<svg width="24" height="24" viewBox="0 0 24 24" fill="none" xmlns="http://www.w3.org/2000/svg">
<g id="lni_lni-arrow-top-right" clip-path="url(#clip0_40_351)">
<g id="Group">
<path id="Vector" d="M1.4191 24.0001C1.04483 24.0001 0.670565 23.8757 0.421053 23.5648C-0.140351 23.0052 -0.140351 22.1348 0.421053 21.5752L19.3216 2.73581H4.22612C3.47758 2.73581 2.8538 2.11405 2.8538 1.36794C2.8538 0.621823 3.47758 6.10352e-05 4.22612 6.10352e-05H22.6277C23.3762 6.10352e-05 24 0.621823 24 1.36794V19.8343C24 20.5804 23.3762 21.2021 22.6277 21.2021C21.8791 21.2021 21.2554 20.5804 21.2554 19.8343V4.8498L2.41715 23.627C2.16764 23.8757 1.79337 24.0001 1.4191 24.0001Z" fill="white"/>
</g>
</g>
<defs>
<clipPath id="clip0_40_351">
<rect width="24" height="24" fill="white"/>
</clipPath>
</defs>
</svg>
