<svg width="24" height="24" viewBox="0 0 24 24" fill="none" xmlns="http://www.w3.org/2000/svg">
<g id="lni_lni-arrow-top-right" clip-path="url(#clip0_46_278)">
<g id="Group">
<path id="Vector" d="M-6.2031e-08 1.4191C-4.56712e-08 1.04483 0.124353 0.670564 0.435234 0.421052C0.99482 -0.140352 1.86528 -0.140352 2.42487 0.421052L21.2642 19.3216L21.2642 4.22612C21.2642 3.47758 21.886 2.8538 22.6321 2.8538C23.3782 2.8538 24 3.47758 24 4.22612L24 22.6277C24 23.3762 23.3782 24 22.6321 24L4.1658 24C3.41969 24 2.79793 23.3762 2.79793 22.6277C2.79793 21.8791 3.41969 21.2554 4.1658 21.2554L19.1503 21.2554L0.373056 2.41715C0.124351 2.16764 -7.83908e-08 1.79337 -6.2031e-08 1.4191Z" fill="white"/>
</g>
</g>
<defs>
<clipPath id="clip0_46_278">
<rect width="24" height="24" fill="white"/>
</clipPath>
</defs>
</svg>
