<svg width="180" height="46" viewBox="0 0 180 46" fill="none" xmlns="http://www.w3.org/2000/svg">
<g id="Logo">
<path id="Vector" d="M4.44855 42.0884H43.2469V3.29004H4.44855V42.0884ZM35.7792 18.9561H27.5808V10.7578H35.7792V18.9561ZM11.9148 10.7578H20.1177V26.4223H35.7792V34.6206H11.9148V10.7578ZM68.5119 3.29004C64.6751 3.29004 60.9244 4.42779 57.7343 6.5594C54.5441 8.69101 52.0577 11.7207 50.5894 15.2655C49.1211 18.8103 48.7371 22.7107 49.4855 26.4737C50.2341 30.2368 52.0816 33.6934 54.7946 36.4064C57.5076 39.1196 60.9642 40.9671 64.7273 41.7157C68.4905 42.4641 72.3909 42.08 75.9357 40.6118C79.4804 39.1435 82.51 36.6571 84.6418 33.4668C86.7733 30.2766 87.9111 26.5259 87.9111 22.6892C87.9051 17.546 85.8593 12.6153 82.2225 8.97857C78.5857 5.34181 73.6551 3.29604 68.5119 3.29004ZM68.5119 34.6206C66.1521 34.6206 63.8452 33.9209 61.8831 32.6098C59.9211 31.2988 58.3917 29.4354 57.4887 27.2551C56.5857 25.075 56.3494 22.676 56.8097 20.3615C57.2701 18.047 58.4065 15.921 60.0751 14.2524C61.7438 12.5838 63.8698 11.4474 66.1842 10.987C68.4986 10.5267 70.8976 10.7629 73.0779 11.666C75.258 12.5691 77.1215 14.0983 78.4325 16.0605C79.7436 18.0225 80.4434 20.3294 80.4434 22.6892C80.4385 25.8522 79.1799 28.8842 76.9434 31.1208C74.7068 33.3573 71.6748 34.6158 68.5119 34.6206ZM157.331 3.29004C153.493 3.28975 149.743 4.42723 146.553 6.55866C143.362 8.69008 140.876 11.7197 139.407 15.2644C137.939 18.8091 137.554 22.7098 138.302 26.4728C139.051 30.236 140.898 33.6928 143.611 36.406C146.324 39.1191 149.781 40.9669 153.545 41.7155C157.306 42.4641 161.207 42.08 164.753 40.6119C168.297 39.1436 171.327 36.6572 173.458 33.467C175.591 30.2767 176.728 26.5261 176.728 22.6892C176.722 17.5463 174.677 12.6158 171.041 8.9791C167.405 5.34239 162.473 3.29645 157.331 3.29004ZM157.331 34.6206C154.971 34.6209 152.664 33.9214 150.701 32.6105C148.739 31.2997 147.21 29.4363 146.306 27.2562C145.403 25.0761 145.167 22.6769 145.627 20.3624C146.087 18.0479 147.223 15.9218 148.892 14.2529C150.56 12.5842 152.687 11.4476 155.001 10.9871C157.315 10.5266 159.714 10.7628 161.894 11.6659C164.075 12.5689 165.939 14.0981 167.25 16.0604C168.56 18.0225 169.261 20.3294 169.261 22.6892C169.256 25.8519 167.997 28.8836 165.76 31.1202C163.525 33.3567 160.493 34.6155 157.331 34.6206ZM112.921 3.29004C109.084 3.29004 105.333 4.42779 102.143 6.5594C98.9527 8.69101 96.4662 11.7207 94.998 15.2655C93.5297 18.8103 93.1456 22.7107 93.8941 26.4737C94.6427 30.2368 96.4901 33.6934 99.2031 36.4064C101.916 39.1196 105.373 40.9671 109.136 41.7157C112.899 42.4641 116.799 42.08 120.344 40.6118C123.889 39.1435 126.919 36.6571 129.05 33.4668C131.182 30.2766 132.32 26.5259 132.32 22.6892C132.314 17.546 130.268 12.6153 126.631 8.97857C122.994 5.34181 118.064 3.29604 112.921 3.29004ZM112.921 34.6206C110.722 34.6217 108.566 34.0153 106.69 32.8683C104.814 31.7213 103.292 30.0784 102.291 28.1208C101.29 26.1632 100.85 23.967 101.018 21.775C101.187 19.5828 101.957 17.4798 103.246 15.6981C104.534 13.9165 106.29 12.5254 108.318 11.6785C110.347 10.8316 112.571 10.5618 114.744 10.8988C116.916 11.2359 118.953 12.1667 120.63 13.5885C122.307 15.0103 123.559 16.8679 124.247 18.9561H112.921V26.4223H124.247C123.459 28.8051 121.941 30.8795 119.908 32.351C117.875 33.8226 115.43 34.6165 112.921 34.6206Z" fill="#231F20"/>
</g>
</svg>
