<svg width="180" height="86" viewBox="0 0 180 86" fill="none" xmlns="http://www.w3.org/2000/svg">
<g id="Logo" clip-path="url(#clip0_25_452)">
<path id="Vector" d="M162.99 83.454V83.6572C162.94 83.772 162.879 83.8826 162.809 83.9869L162.551 84.2914L162.293 84.5199C162.024 84.7449 161.719 84.9249 161.39 85.0526H161.261C160.941 85.1784 160.6 85.2471 160.255 85.2557H149.936C149.661 85.2645 149.387 85.2146 149.133 85.1096C148.879 85.0044 148.651 84.8464 148.466 84.6467L137.192 73.1779L129.788 84.2407L129.633 84.4436L129.375 84.7481H129.246H129.117H128.937C128.73 84.9216 128.494 85.059 128.24 85.1542L127.982 85.281C127.659 85.3969 127.32 85.4653 126.976 85.4839H116.657C116.382 85.4927 116.108 85.443 115.854 85.3378C115.6 85.2328 115.373 85.0749 115.187 84.8749L111.343 80.5363L97.8249 85.281C97.5088 85.4209 97.1653 85.4902 96.8188 85.4839C96.3503 85.4966 95.8926 85.3434 95.529 85.0526L95.3224 84.8496L88.8731 77.5929C88.6151 78.4556 88.4087 79.3183 88.125 80.1302L87.9703 80.4855C87.9257 80.6029 87.8649 80.7139 87.7896 80.8153L87.6349 81.0182L87.351 81.3227L86.9899 81.6527C86.7904 81.8031 86.574 81.9309 86.3449 82.0333L85.5969 82.9466C85.242 83.0775 84.8666 83.1461 84.4875 83.1497H76.026C75.7524 83.1634 75.4791 83.1182 75.2252 83.0175C74.9713 82.9166 74.7426 82.7627 74.5556 82.566L71.7694 79.4199L70.5568 83.3779C70.5281 83.5127 70.4756 83.6415 70.4021 83.7587L70.2471 84.0885L70.0924 84.2914L69.8346 84.5959C69.7271 84.7187 69.6058 84.8293 69.4734 84.9257C69.2589 85.0676 69.0347 85.1946 68.8026 85.3063L68.4673 85.4839C68.1219 85.62 67.7554 85.6974 67.3836 85.7124H52.0599C51.7804 85.7248 51.5014 85.6768 51.243 85.5716C50.9844 85.4664 50.7525 85.3065 50.5637 85.1034L48.3193 82.566H40.1931L40.0125 83.175C39.9812 83.3055 39.9379 83.4328 39.8835 83.5556C39.8134 83.6601 39.753 83.7705 39.7029 83.8854L39.5481 84.0885L39.2901 84.393C39.1826 84.5158 39.0615 84.6264 38.9291 84.7228C38.7146 84.8644 38.4904 84.9917 38.2581 85.1034L37.9228 85.281C37.5776 85.4171 37.2111 85.4942 36.8394 85.5094H27.2685C26.9931 85.5182 26.7193 85.4683 26.4654 85.3633C26.2116 85.2581 25.9839 85.1002 25.7981 84.9004L22.8313 81.5764H13.9827C13.7091 81.5901 13.4359 81.5452 13.182 81.4444C12.928 81.3435 12.6995 81.1894 12.5122 80.9929L0.464732 68.154C0.56121 68.2498 0.674934 68.3274 0.800113 68.3824C0.576986 68.2522 0.390718 68.0689 0.258386 67.8495C0.088599 67.5236 0 67.1627 0 66.7965C0 66.4303 0.088599 66.0694 0.258386 65.7435C7.07205 51.9778 12.6567 37.6556 16.9494 22.9389V22.7612L16.0981 21.7969C16.0981 21.7969 16.2271 21.7969 16.3045 21.9746C16.0191 21.7168 15.8177 21.3816 15.7258 21.0113C15.634 20.6409 15.6558 20.2521 15.7885 19.894L18.6005 10.6074C18.8352 9.90658 19.2773 9.29066 19.8703 8.8386C20.4632 8.38654 21.1798 8.11894 21.9283 8.07007H32.2474L33.9242 2.53866C34.1621 1.83965 34.605 1.2256 35.1973 0.774011C35.7896 0.322419 36.5046 0.0535316 37.2521 0.00134432H46.9005C47.1872 -0.00963709 47.4726 0.0467874 47.7328 0.165929C47.9931 0.285069 48.2205 0.463506 48.3966 0.686434L51.6988 4.41632L51.9568 3.73123C52.1899 3.02475 52.6352 2.40426 53.2337 1.95138C53.8324 1.4985 54.5565 1.23442 55.3106 1.19389H89.3891C89.6749 1.18886 89.9584 1.24794 90.2177 1.36665C90.4768 1.48535 90.7052 1.66055 90.8854 1.87898L101.204 13.5761L101.024 3.83274C101.038 3.40352 101.142 2.98172 101.328 2.59335C101.514 2.20498 101.779 1.85823 102.107 1.57448C102.731 0.937337 103.582 0.564208 104.481 0.534201H114.8C115.13 0.524194 115.458 0.601236 115.748 0.757363C116.038 0.913489 116.281 1.14301 116.451 1.42224C116.406 1.32033 116.345 1.2261 116.27 1.14314L124.009 9.79543L125.325 5.45664C125.554 4.75215 125.994 4.13246 126.588 3.67941C127.183 3.22639 127.902 2.96134 128.653 2.9193H166.318C166.606 2.9073 166.893 2.96053 167.157 3.07489C167.421 3.18928 167.654 3.36174 167.84 3.57898L179.603 16.8492L179.758 17.0268C179.884 17.2178 179.964 17.4349 179.99 17.6612C179.99 17.6612 179.99 17.6612 179.99 17.7881C180.003 17.9739 180.003 18.1604 179.99 18.3462C179.999 18.4899 179.999 18.634 179.99 18.7776L168.149 57.5734L167.994 57.954L167.814 58.2838C167.814 58.2838 167.814 58.4106 167.659 58.4867L167.401 58.7912L167.014 59.1212C166.808 59.2734 166.576 59.3749 166.369 59.5018C166.163 59.6286 166.137 59.6539 166.034 59.6794C165.684 59.8301 165.306 59.9079 164.925 59.9076H159.765L161.803 62.1913V62.3689C161.934 62.6038 162.013 62.8631 162.035 63.1301L163.17 82.2615V82.9466C163.17 82.9466 163.17 82.9466 163.17 83.1242C163.17 83.3019 162.99 83.3779 162.99 83.454Z" fill="#231F20"/>
<path id="Vector_2" d="M2.78644 66.2255C9.67534 52.3019 15.3289 37.8192 19.6839 22.9387H27.7069C23.4673 37.7832 17.997 52.2605 11.3513 66.2255H2.78644ZM54.6396 3.68041L51.8278 12.8656H85.8548L88.6667 3.68041H54.6396ZM28.5325 67.1137H38.1291C44.1482 57.1428 48.921 46.4934 52.3435 35.3971H43.8047C40.2591 46.5935 35.0985 57.2319 28.4809 66.9869L28.5325 67.1137ZM45.2751 22.0507L42.4373 31.388H58.7155L49.7123 60.9479H43.8304L40.9926 70.2091H56.3164L68.1319 31.388H83.9458L86.8093 22.0507H45.2751ZM38.0518 29.4344L40.9412 19.97H46.9005L49.738 10.6835H43.8304L46.4102 2.64014H36.5813L34.0015 10.6835H21.2317L18.394 19.97H31.2928L16.0722 70.2599H25.6431L34.6206 40.7761L38.0001 44.0493L41.4313 32.7837L38.0518 29.4344ZM69.5248 35.7016C69.7718 46.4469 68.274 57.1623 65.0878 67.4435H73.5752C76.7796 57.1486 78.5162 46.466 78.7345 35.7016H69.5248ZM114.232 2.99536H103.784L104.068 19.2089H114.542L114.232 2.99536ZM92.3815 24.2836L89.3631 34.2299H96.5608L85.5968 70.2599L104.094 63.7644L107.473 52.6254L100.095 55.1628L109.511 24.2581L92.3815 24.2836ZM115.832 70.2091L128.601 51.1032H118.282L105.384 70.2091H115.832ZM128.06 5.40581L116.167 44.3791H153.831L165.698 5.40581H128.06ZM146.943 34.6612H129.014L134.948 15.0984H153.006L147.047 34.6612M137.192 51.0269L138.327 70.133H148.646L147.485 51.0269H137.192Z" fill="white"/>
</g>
<defs>
<clipPath id="clip0_25_452">
<rect width="180" height="85.7143" fill="white"/>
</clipPath>
</defs>
</svg>
