<svg width="180" height="42" viewBox="0 0 180 42" fill="none" xmlns="http://www.w3.org/2000/svg">
<g id="Logo" clip-path="url(#clip0_25_458)">
<path id="Vector" d="M175.262 7.88313L179.556 12.2059C179.706 12.3253 179.817 12.4864 179.875 12.669C179.962 13.733 179.157 13.7912 178.334 13.8506C177.978 13.8764 177.619 13.9024 177.328 14.0102C175.884 14.4009 174.596 15.2263 173.638 16.3741C172.68 17.522 172.099 18.9369 171.972 20.4267C171.879 20.5988 171.74 20.7404 171.568 20.8345C171.397 20.9288 171.203 20.9713 171.007 20.9575C170.781 20.9374 170.569 20.8383 170.409 20.6776L168.999 19.2588C169.01 19.3559 169.01 19.452 169.01 19.5294V20.4653C169.01 20.5244 169.012 20.5814 169.005 20.6383C168.995 20.7021 168.974 20.7656 168.923 20.8319V20.9188C168.923 20.9631 168.928 21.0044 168.934 21.0462C168.944 21.1319 168.955 21.2201 168.923 21.3434C168.892 21.4583 168.889 21.5923 168.885 21.7119C168.884 21.783 168.882 21.849 168.875 21.9029C168.865 21.9777 168.865 22.0575 168.859 22.1372C168.852 22.2119 168.84 22.2865 168.807 22.3564C168.762 22.4543 168.746 22.5478 168.742 22.6429C168.739 22.6883 168.739 22.7341 168.739 22.781L168.682 23.0801L166.492 33.5202L166.318 34.3017L166.25 35.4404L165.285 40.3709L165.131 41.1429H87.0426L86.6663 40.7665L86.5987 41.0946H78.2428L73.592 36.4149L74.0359 34.3017H71.4113L69.7807 32.6518C67.757 34.1254 65.3075 34.8979 62.8046 34.8518C60.114 34.9576 57.4911 33.9931 55.51 32.1694L52.9724 29.6125L52.4224 32.179C52.3549 32.5456 52.268 32.8931 52.1715 33.2308L52.0847 33.5492L51.94 34.0123C51.928 34.0525 51.9119 34.0914 51.8917 34.1281C51.748 34.5535 51.5773 34.9693 51.3803 35.3728C51.3855 35.3884 51.3855 35.4054 51.3803 35.421C51.355 35.4745 51.326 35.526 51.2934 35.5754C51.1478 35.8637 50.9868 36.1439 50.811 36.4149C50.7784 36.4642 50.7494 36.5158 50.7242 36.5693L50.6181 36.685C50.3822 37.0233 50.1243 37.3456 49.8461 37.6499C49.7698 37.7263 49.6935 37.7979 49.6159 37.8683C49.5367 37.9403 49.4563 38.011 49.3733 38.0841L49.1611 38.2867C49.0273 38.3979 48.8904 38.5052 48.7506 38.6086C48.6353 38.6938 48.518 38.7763 48.3988 38.856C46.4103 40.0343 44.1165 40.595 41.8087 40.4674C38.6245 40.4674 36.0771 39.5411 34.4658 37.9201L29.9308 33.3562C28.1194 34.3812 26.0683 34.9074 23.9871 34.8807C21.3047 34.9637 18.6976 33.9861 16.7312 32.1597L14.1936 29.6028L13.3734 33.5492L13.2093 34.3307H4.67008L0 29.622L0.241222 28.4835L5.37444 3.83059L5.52879 3.05868H14.097L14.3189 3.27099V3.05868H72.0482L72.2605 3.27099V3.05868H80.6164L85.2865 7.76734L85.0549 8.89625L84.8041 10.1313H87.2066L87.583 10.5077C88.6401 9.88811 89.8409 9.55548 91.0662 9.54277C91.9672 9.52497 92.862 9.69612 93.6929 10.0451C94.5239 10.3941 95.2724 10.9131 95.8906 11.569L95.7651 11.4242L98.0326 13.7111C99.4125 11.1156 102.51 9.54277 106.716 9.54277C109.978 9.54277 112.381 10.3725 113.837 11.8777L115.478 13.5278L116.028 10.8743L116.192 10.1024H124.557L126.95 12.505L127.288 10.8839L127.452 10.112H143.914L144.357 10.5559C145.472 9.89801 146.748 9.56384 148.043 9.591C148.822 9.5606 149.597 9.70318 150.315 10.0085C151.032 10.3138 151.673 10.7743 152.192 11.3568C152.165 11.3264 152.139 11.2961 152.113 11.2663C152.067 11.2109 152.021 11.1569 151.971 11.1069L152.81 11.9453C153.54 11.189 154.418 10.5901 155.388 10.1853C156.359 9.78045 157.402 9.57816 158.453 9.591C159.012 9.55666 159.569 9.60418 160.111 9.73063L159.197 8.80944C159.073 8.67629 158.988 8.51062 158.954 8.33165C158.92 8.15267 158.938 7.96763 159.004 7.79808C159.071 7.62847 159.184 7.48124 159.331 7.37336C159.478 7.26547 159.652 7.20133 159.834 7.18843H160.567C160.765 7.16959 160.961 7.14061 161.156 7.10157C162.181 6.88602 163.146 6.44528 163.98 5.81112C164.815 5.17704 165.498 4.36544 165.981 3.43501C166.023 3.36304 166.061 3.28901 166.096 3.21309V3.16486C166.428 2.45021 166.63 1.68255 166.694 0.897342C166.711 0.653352 166.821 0.424909 167 0.258363C167.179 0.0917567 167.414 -0.000586121 167.659 2.79965e-06H167.736C167.882 0.0139013 168.024 0.0611328 168.15 0.138046C168.275 0.215018 168.381 0.31961 168.46 0.443873C169.155 1.1193 173.014 5.04635 173.014 5.04635C173.336 5.39216 173.312 5.8411 173.288 6.29533C173.272 6.57619 173.257 6.85911 173.322 7.12088C173.498 7.15239 173.676 7.17624 173.853 7.19238C174.024 7.20775 174.195 7.21611 174.365 7.21735C174.565 7.22153 174.759 7.28784 174.92 7.40715C175.08 7.52642 175.201 7.69279 175.262 7.88313Z" fill="#231F20"/>
<path id="Vector_2" d="M44.1629 11.0575H50.261L46.8453 27.2579C46.2182 30.3263 45.0216 32.0825 43.2076 33.3271C41.3729 34.3918 39.266 34.895 37.1482 34.7744C33.115 34.7744 29.2457 33.0859 28.8598 28.9851H34.9964C35.1894 29.95 36.0772 30.5 37.428 30.5C39.2516 30.5 40.0911 29.4 40.4674 27.6729L40.834 25.8878H40.6989C40.1605 26.4797 39.5073 26.9559 38.7792 27.2877C38.051 27.6194 37.2631 27.7997 36.4631 27.8176C32.9123 27.8176 30.0948 24.9905 30.1527 20.8511C30.2299 16.0267 33.3754 10.5461 38.6534 10.5461C39.6536 10.4787 40.6521 10.6992 41.5311 11.1814C42.41 11.6635 43.1323 12.3873 43.6129 13.2671H43.719L44.1629 11.0575ZM38.9235 23.2923C41.2683 23.2923 42.5708 20.5906 42.6094 18.2652C42.6094 16.7118 42.0015 15.1197 40.2069 15.1197C37.756 15.1197 36.5113 17.8503 36.4727 20.1949C36.4727 21.7774 37.0806 23.2923 38.8753 23.2923M107.383 23.8134C107.383 24.8457 106.494 25.2607 105.327 25.2607C103.397 25.2607 102.751 24.2958 102.741 22.9449H96.6721C96.566 27.9816 101.062 29.2263 105.057 29.2263C110.161 29.2263 113.471 27.0167 113.539 22.6073C113.539 19.0853 110.537 18.0144 107.585 17.3292C105.317 16.8083 104.324 16.4319 104.333 15.5732C104.343 14.7144 105.357 14.3671 106.35 14.3671C107.595 14.3671 108.443 14.8109 108.531 15.9495H114.427C114.359 11.7426 110.566 10.5075 106.707 10.5075C102.018 10.5075 98.3606 12.6399 98.3027 16.6731C98.3027 19.8476 100.445 21.0151 103.677 21.845C105.752 22.395 107.401 22.5686 107.383 23.8134ZM152.471 13.6724H152.365C152.103 12.7222 151.523 11.8904 150.723 11.3147C149.923 10.7391 148.949 10.4543 147.965 10.5075C145.341 10.5075 143.74 11.8101 142.225 13.7785H142.119L142.678 11.0575H136.541L132.865 28.6378H139.282L141.212 19.1529C141.655 17.088 142.707 15.6407 144.299 15.6407C145.892 15.6407 146.103 16.9143 145.775 18.4679L143.652 28.6378H150.069L151.999 19.1529C152.443 16.953 153.495 15.6407 155.086 15.6407C156.678 15.6407 156.891 16.8468 156.563 18.4679L154.44 28.6378H160.856L163.153 18.188C164.118 13.7785 162.642 10.4689 158.406 10.4689C157.227 10.464 156.067 10.7547 155.03 11.3144C153.994 11.874 153.114 12.6847 152.471 13.6724ZM1.17712 28.6378H7.80591L12.9295 3.98486H6.31033L1.17712 28.6378ZM21.131 10.5365C25.6081 10.5365 29.8826 12.9872 29.815 18.5353C29.7571 24.6045 25.6274 29.1492 19.317 29.1492C14.975 29.1492 10.6331 26.737 10.7102 21.2178C10.8164 15.2934 14.8882 10.5365 21.131 10.5365ZM19.5004 24.8457C22.3275 24.8457 23.3599 20.7449 23.3599 18.3327C23.3599 16.6056 22.8293 14.917 20.9669 14.917C18.1688 14.917 17.2136 19.259 17.2136 21.4976C17.2136 23.2923 17.7153 24.8457 19.539 24.8457M15.139 3.98486L14.1741 8.91544H69.8386L70.8035 3.98486H15.139ZM59.9099 10.5365C64.3869 10.5365 68.6614 12.9872 68.5939 18.5353C68.536 24.6045 64.3966 29.1492 58.0862 29.1492C53.7442 29.1492 49.4022 26.737 49.4891 21.2178C49.6242 15.2934 53.696 10.5365 59.9099 10.5365ZM58.3082 24.8457C61.1353 24.8457 62.1677 20.7449 62.1677 18.3327C62.1677 16.6056 61.6274 14.917 59.7652 14.917C56.9766 14.917 56.0117 19.259 56.0117 21.4976C56.0117 23.2923 56.5134 24.8457 58.3468 24.8457M73.0806 3.98486L72.1157 8.91544H78.5226L79.4875 3.98486H73.0806ZM67.9474 28.6378H74.3639L78.0401 11.0575H71.585L67.9474 28.6378ZM88.4223 29.2263C87.4011 29.2988 86.3799 29.0854 85.4731 28.6099C84.5664 28.1344 83.8101 27.4156 83.2891 26.5343H83.1829L81.2533 35.4306H74.7595L79.9699 11.0575H86.068L85.5856 13.4022C86.2224 12.5361 87.0473 11.8257 87.9982 11.3242C88.9491 10.8229 90.0014 10.5437 91.0758 10.5075C94.9353 10.5075 97.2028 13.8171 97.1353 18.1205C97.0484 23.5335 94.2406 29.2263 88.3837 29.2263H88.4223ZM88.1714 15.4864C85.6917 15.4864 84.1672 18.6608 84.1286 21.102C84.1286 22.8002 84.7268 24.6913 86.7627 24.6913C89.4162 24.6913 90.5065 21.1792 90.5354 18.8345C90.5354 17.2424 90.0723 15.4864 88.1714 15.4864ZM125.272 25.8685H125.378L124.818 28.6571H130.916L134.593 11.0768H128.186L126.14 20.8993C125.725 22.9353 124.471 24.0063 122.889 24.0063C121.306 24.0063 120.958 22.5203 121.277 20.9669L123.351 11.0768H116.944L114.676 21.9318C113.712 26.6597 115.912 29.2071 119.598 29.2071C120.755 29.1958 121.89 28.8795 122.885 28.2899C123.881 27.7003 124.705 26.8584 125.272 25.8492V25.8685ZM159.689 35.5175L160.654 30.5868H84.5628L83.5979 35.5175H159.689Z" fill="white"/>
<path id="Vector_3" d="M166.587 15.8823C166.525 15.8774 166.463 15.86 166.406 15.8311C166.349 15.8023 166.298 15.7625 166.257 15.7141C166.216 15.6656 166.185 15.6096 166.166 15.549C166.146 15.4884 166.139 15.4247 166.144 15.3612C166.224 14.5019 166.123 13.6352 165.845 12.8181C165.567 12.001 165.12 11.2517 164.531 10.6196C163.944 9.98737 163.229 9.48644 162.435 9.14958C161.64 8.81273 160.783 8.64757 159.92 8.66491C159.793 8.66491 159.67 8.61409 159.58 8.5236C159.489 8.43313 159.438 8.31041 159.438 8.18246C159.438 8.0545 159.489 7.93181 159.58 7.84133C159.67 7.75085 159.793 7.70002 159.92 7.70002C160.152 7.71497 160.384 7.71497 160.616 7.70002C162.329 7.51743 163.926 6.74314 165.13 5.51036C166.335 4.27759 167.072 2.66345 167.215 0.945796C167.225 0.824647 167.28 0.711642 167.369 0.629353C167.459 0.547066 167.576 0.501566 167.697 0.501956C167.761 0.506826 167.823 0.524196 167.879 0.553059C167.936 0.581922 167.986 0.62171 168.027 0.670136C168.07 0.718564 168.1 0.774668 168.12 0.835226C168.14 0.895784 168.147 0.959593 168.142 1.02299C168.061 1.8815 168.163 2.7473 168.44 3.56376C168.718 4.38021 169.164 5.12894 169.75 5.76099C170.338 6.39304 171.05 6.89418 171.843 7.23165C172.638 7.56911 173.493 7.73529 174.355 7.71931C174.483 7.71931 174.606 7.77015 174.697 7.86063C174.787 7.9511 174.838 8.07381 174.838 8.20176C174.838 8.32972 174.787 8.45244 174.697 8.54291C174.606 8.63338 174.483 8.68421 174.355 8.68421C172.522 8.71449 170.764 9.42064 169.42 10.6672C168.076 11.9137 167.239 13.6128 167.071 15.4384C167.061 15.5596 167.006 15.6726 166.917 15.7549C166.827 15.8372 166.71 15.8827 166.587 15.8823Z" fill="white"/>
</g>
<defs>
<clipPath id="clip0_25_458">
<rect width="180" height="41.1429" fill="white"/>
</clipPath>
</defs>
</svg>
