<svg width="180" height="129" viewBox="0 0 180 129" fill="none" xmlns="http://www.w3.org/2000/svg">
<g id="Logo">
<path id="Vector" d="M14.6625 116.093V90H10.3846V116.093H14.6625Z" fill="#231F20"/>
<path id="Vector_2" d="M17.2809 107.395C17.2809 112.726 20.8575 116.514 26.2925 116.514C31.7274 116.514 35.3041 112.726 35.3041 107.395C35.3041 102.064 31.7274 98.2769 26.2925 98.2769C20.8575 98.2769 17.2809 102.064 17.2809 107.395ZM21.5938 107.395C21.5938 104.274 23.4523 102.1 26.2925 102.1C29.1327 102.1 30.9912 104.274 30.9912 107.395C30.9912 110.482 29.1327 112.691 26.2925 112.691C23.4523 112.691 21.5938 110.482 21.5938 107.395Z" fill="#231F20"/>
<path id="Vector_3" d="M36.7428 107.045C36.7428 112.095 40.0038 115.742 44.8778 115.742C47.4025 115.742 49.5765 114.725 50.6634 113.042V115.988C50.6634 118.828 48.8752 120.722 45.8946 120.722C43.2298 120.722 41.4064 119.425 41.161 117.145H36.8481C37.409 121.669 40.8804 124.615 45.6492 124.615C51.2597 124.615 54.8361 120.933 54.8361 115.216V98.7678H51.0492L50.8038 101.118C49.7518 99.2938 47.5778 98.2065 45.018 98.2065C40.0739 98.2065 36.7428 101.959 36.7428 107.045ZM41.0909 106.939C41.0909 104.063 42.9142 101.959 45.6142 101.959C48.5597 101.959 50.5232 104.099 50.5232 106.939C50.5232 109.815 48.5597 112.025 45.6142 112.025C42.9492 112.025 41.0909 109.85 41.0909 106.939Z" fill="#231F20"/>
<path id="Vector_4" d="M56.9532 107.395C56.9532 112.726 60.5299 116.514 65.9648 116.514C71.3998 116.514 74.9764 112.726 74.9764 107.395C74.9764 102.064 71.3998 98.2769 65.9648 98.2769C60.5299 98.2769 56.9532 102.064 56.9532 107.395ZM61.2661 107.395C61.2661 104.274 63.1246 102.1 65.9648 102.1C68.805 102.1 70.6635 104.274 70.6635 107.395C70.6635 110.482 68.805 112.691 65.9648 112.691C63.1246 112.691 61.2661 110.482 61.2661 107.395Z" fill="#231F20"/>
<path id="Vector_5" d="M79.606 95.2255C81.0087 95.2255 82.1659 94.1031 82.1659 92.6652C82.1659 91.2624 81.0087 90.1401 79.606 90.1401C78.1685 90.1401 77.0814 91.2624 77.0814 92.6652C77.0814 94.1031 78.1685 95.2255 79.606 95.2255ZM77.4672 116.093H81.7451V98.7677H77.4672V116.093Z" fill="#231F20"/>
<path id="Vector_6" d="M85.4929 124.124H89.6655V113.708C90.7526 115.497 93.1019 116.549 95.6967 116.549C100.816 116.549 103.867 112.621 103.796 107.22C103.691 101.784 100.571 98.2417 95.6615 98.2417C93.0318 98.2417 90.6473 99.3991 89.5954 101.398L89.3499 98.7678H85.4929V124.124ZM89.8408 107.43C89.8408 104.309 91.7344 102.135 94.7148 102.135C97.6954 102.135 99.4836 104.344 99.4836 107.43C99.4836 110.517 97.6954 112.691 94.7148 112.691C91.7344 112.691 89.8408 110.552 89.8408 107.43Z" fill="#231F20"/>
<path id="Vector_7" d="M104.883 110.902C105.023 114.339 107.688 116.549 111.825 116.549C115.893 116.549 118.663 114.375 118.663 111.008C118.663 108.518 117.12 106.834 114.28 106.133L111.229 105.396C109.932 105.046 109.055 104.59 109.055 103.467C109.055 102.275 110.002 101.433 111.545 101.433C113.158 101.433 114.21 102.345 114.21 103.853H118.102C117.962 100.416 115.402 98.2417 111.65 98.2417C107.933 98.2417 105.163 100.416 105.163 103.713C105.163 105.957 106.461 107.816 109.792 108.693L112.807 109.465C113.929 109.78 114.631 110.306 114.631 111.288C114.631 112.656 113.333 113.287 111.755 113.287C109.862 113.287 108.775 112.41 108.775 110.902H104.883Z" fill="#231F20"/>
<path id="Vector_8" d="M127.536 116.549C129.886 116.549 132.13 115.462 133.147 113.849L133.427 116.093H137.425V98.7681H133.147V107.851C133.147 110.973 131.955 112.726 129.149 112.726C126.975 112.726 125.468 111.674 125.468 108.097V98.7681H121.19V109.605C121.19 113.743 123.434 116.549 127.536 116.549Z" fill="#231F20"/>
<path id="Vector_9" d="M145.478 116.093V106.133C145.478 103.327 147.126 101.994 149.16 101.994C151.194 101.994 152.526 103.292 152.526 105.747V116.093H156.699V106.168C156.699 103.327 158.312 101.994 160.346 101.994C162.415 101.994 163.747 103.292 163.747 105.747V116.093H167.885V104.765C167.885 100.767 165.675 98.2417 161.468 98.2417C158.838 98.2417 156.769 99.5043 155.928 101.538C154.981 99.5043 153.087 98.2417 150.212 98.2417C148.178 98.2417 146.355 99.1886 145.338 100.732L145.128 98.7678H141.201V116.093H145.478Z" fill="#231F20"/>
<path id="Vector_10" d="M78.7275 66.3789C73.0918 76.5209 61.6169 81.3461 50.0142 81.3461H3.46153C51.9231 75.2884 85.6731 51.0576 90 17.3076C94.3269 51.0576 128.077 75.2884 176.538 81.3461H129.986C118.383 81.3461 106.908 76.5209 101.272 66.3789C95.1726 55.4018 91.2863 42.9808 90 29.423C88.7137 42.9808 84.8274 55.4018 78.7275 66.3789Z" fill="#231F20"/>
<path id="Vector_11" d="M52.105 62.7944C49.3865 64.325 46.5269 65.7625 43.5327 67.1016C41.8318 61.2264 41.206 55.0622 41.7051 48.9218C42.3654 40.7984 44.9742 32.9669 49.3004 26.1212C53.6268 19.2755 59.5369 13.6266 66.5074 9.67502C73.4779 5.72351 81.2937 3.59125 89.2623 3.46717C97.231 3.34308 105.107 5.23098 112.191 8.96364C119.276 12.6963 125.352 18.1584 129.88 24.8664C134.408 31.5743 137.248 39.3209 138.15 47.4198C138.888 54.0444 138.31 60.7376 136.467 67.1016C133.473 65.7625 130.614 64.3248 127.895 62.7943C129.041 58.1416 129.362 53.3013 128.828 48.5057C128.101 41.9747 125.81 35.7278 122.159 30.3186C118.508 24.9095 113.608 20.5047 107.895 17.4947C102.182 14.4846 95.831 12.9623 89.4051 13.0623C82.9791 13.1624 76.6765 14.8818 71.0557 18.0683C65.4347 21.2548 60.6687 25.81 57.1799 31.3304C53.6912 36.8509 51.5875 43.1661 51.0551 49.7169C50.6972 54.12 51.0565 58.5383 52.105 62.7944Z" fill="#231F20"/>
</g>
</svg>
