<svg width="180" height="92" viewBox="0 0 180 92" fill="none" xmlns="http://www.w3.org/2000/svg">
<g id="Logo">
<path id="Vector" d="M4.65332 53.1299H9.75258V78.1331H4.65332V53.1299Z" fill="#231F20"/>
<path id="Vector_2" d="M12.7101 69.5663C12.7068 67.7705 13.2362 66.0139 14.2315 64.519C15.2268 63.0241 16.6433 61.858 18.3015 61.1684C19.9597 60.4789 21.7852 60.2967 23.5471 60.645C25.3089 60.9933 26.9278 61.8564 28.1988 63.1252C29.47 64.3939 30.3361 66.0112 30.6877 67.7723C31.0394 69.5334 30.8607 71.3593 30.1741 73.0189C29.4876 74.6783 28.3243 76.0969 26.8312 77.095C25.3383 78.0933 23.5827 78.6259 21.7869 78.6259C20.5924 78.6396 19.4074 78.4148 18.3012 77.9644C17.1949 77.5142 16.1896 76.8477 15.3443 76.0039C14.4989 75.1602 13.8305 74.1562 13.3782 73.0506C12.9259 71.9452 12.6987 70.7606 12.7101 69.5663ZM25.7301 69.5663C25.7101 68.7911 25.4619 68.0389 25.0166 67.404C24.5713 66.769 23.9487 66.2795 23.2265 65.9966C22.5043 65.7136 21.7149 65.6501 20.9569 65.8135C20.1987 65.977 19.5057 66.3604 18.9643 66.9157C18.423 67.471 18.0574 68.1737 17.9133 68.9358C17.7692 69.6977 17.8531 70.4854 18.1543 71.2C18.4556 71.9146 18.9609 72.5246 19.6069 72.9536C20.2531 73.3825 21.0112 73.6115 21.7869 73.6117C22.3173 73.6266 22.8453 73.5314 23.3372 73.3319C23.8291 73.1325 24.2745 72.8333 24.6451 72.4532C25.0155 72.073 25.3033 71.6203 25.49 71.1235C25.6768 70.6265 25.7586 70.0964 25.7301 69.5663Z" fill="#231F20"/>
<path id="Vector_3" d="M51.3622 60.9994V77.2829C51.3622 83.0451 46.8579 85.4758 42.3027 85.4758C40.7008 85.5949 39.097 85.2709 37.6669 84.5394C36.2368 83.8079 35.0357 82.6969 34.1949 81.3284L38.5803 78.7958C38.9282 79.4971 39.4788 80.0779 40.1607 80.4628C40.8425 80.8476 41.6243 81.019 42.4047 80.9544C42.9181 81.04 43.4444 81.0066 43.943 80.8564C44.4416 80.7065 44.899 80.4441 45.28 80.0893C45.6609 79.7345 45.9554 79.2969 46.1406 78.8104C46.3258 78.3238 46.3968 77.8013 46.348 77.2829V75.7021C45.7486 76.4398 44.9836 77.0257 44.1154 77.4125C43.2473 77.7993 42.3001 77.9763 41.3508 77.9289C39.0427 77.9289 36.8292 77.012 35.197 75.3799C33.5649 73.7479 32.648 71.5342 32.648 69.2261C32.648 66.918 33.5649 64.7045 35.197 63.0724C36.8292 61.4404 39.0427 60.5235 41.3508 60.5235C42.2996 60.4801 43.2453 60.6588 44.1129 61.0453C44.9805 61.4319 45.7459 62.0157 46.348 62.7501V61.0503L51.3622 60.9994ZM46.348 69.2261C46.382 68.3995 46.1678 67.5816 45.7333 66.8775C45.2986 66.1735 44.6634 65.6155 43.9092 65.2755C43.155 64.9353 42.3162 64.8285 41.5008 64.9689C40.6854 65.1091 39.9306 65.4902 39.3336 66.0628C38.7363 66.6355 38.3241 67.3737 38.1499 68.1825C37.9755 68.9912 38.0471 69.8338 38.3554 70.6015C38.6638 71.3694 39.1946 72.0273 39.8799 72.4909C40.5651 72.9548 41.3733 73.2028 42.2006 73.2036C42.7408 73.2417 43.2828 73.1665 43.7918 72.9823C44.301 72.7982 44.766 72.5097 45.1567 72.1349C45.5473 71.7601 45.8553 71.3076 46.0605 70.8067C46.2657 70.3057 46.3636 69.7674 46.348 69.2261Z" fill="#231F20"/>
<path id="Vector_4" d="M54.3029 69.5663C54.2995 67.7705 54.829 66.0139 55.8243 64.519C56.8197 63.0241 58.2361 61.858 59.8942 61.1684C61.5524 60.4789 63.378 60.2967 65.1398 60.645C66.9016 60.9933 68.5206 61.8564 69.7917 63.1252C71.0627 64.3939 71.9289 66.0112 72.2806 67.7723C72.6321 69.5334 72.4534 71.3593 71.7669 73.0189C71.0803 74.6783 69.917 76.0969 68.4241 77.095C66.931 78.0933 65.1754 78.6259 63.3796 78.6259C62.1853 78.6396 61.0002 78.4148 59.8939 77.9644C58.7876 77.5142 57.7823 76.8477 56.937 76.0039C56.0917 75.1602 55.4232 74.1562 54.9709 73.0506C54.5185 71.9452 54.2914 70.7606 54.3029 69.5663ZM67.323 69.5663C67.3029 68.7911 67.0546 68.0389 66.6093 67.404C66.164 66.769 65.5414 66.2795 64.8192 65.9966C64.0972 65.7136 63.3078 65.6501 62.5496 65.8135C61.7914 65.977 61.0984 66.3604 60.557 66.9157C60.0157 67.471 59.6502 68.1737 59.506 68.9358C59.362 69.6977 59.4459 70.4854 59.747 71.2C60.0483 71.9146 60.5536 72.5246 61.1996 72.9536C61.8458 73.3825 62.604 73.6115 63.3796 73.6117C63.9073 73.6217 64.4315 73.5231 64.9195 73.3215C65.4073 73.1199 65.8485 72.82 66.2153 72.4404C66.5821 72.061 66.8667 71.6097 67.0516 71.1152C67.2363 70.6208 67.3171 70.0934 67.289 69.5663H67.323Z" fill="#231F20"/>
<path id="Vector_5" d="M74.819 56.4104C74.819 55.7986 75.0004 55.2005 75.3403 54.6918C75.6803 54.1831 76.1634 53.7866 76.7286 53.5524C77.294 53.3182 77.9159 53.257 78.516 53.3763C79.1161 53.4957 79.6673 53.7903 80.1 54.2229C80.5327 54.6556 80.8272 55.2068 80.9465 55.8069C81.066 56.407 81.0047 57.0291 80.7707 57.5943C80.5365 58.1595 80.1399 58.6428 79.6313 58.9826C79.1224 59.3225 78.5244 59.5039 77.9124 59.5039C77.0934 59.4996 76.3092 59.1722 75.7299 58.5929C75.1507 58.0139 74.8235 57.2296 74.819 56.4104ZM75.3458 60.9997H80.445V78.1332H75.3458V60.9997Z" fill="#231F20"/>
<path id="Vector_6" d="M102.678 69.5662C102.739 70.6988 102.577 71.8324 102.199 72.9018C101.82 73.9712 101.235 74.9553 100.475 75.7973C99.7148 76.6393 98.7959 77.3228 97.7708 77.8083C96.7457 78.2937 95.6347 78.5716 94.5018 78.626C93.5507 78.6715 92.601 78.5081 91.7201 78.1468C90.839 77.7856 90.0479 77.2355 89.4026 76.5353V85.034H84.3033V60.9995H89.4026V62.6143C90.0479 61.9141 90.839 61.364 91.7201 61.0027C92.601 60.6415 93.5507 60.478 94.5018 60.5236C95.6333 60.5779 96.7428 60.8553 97.7666 61.3397C98.7906 61.8242 99.7088 62.5061 100.468 63.3463C101.228 64.1866 101.814 65.1685 102.193 66.2359C102.573 67.3033 102.737 68.4351 102.678 69.5662ZM97.5783 69.5662C97.5582 68.7685 97.3044 67.9941 96.8484 67.3391C96.3925 66.6843 95.7546 66.1772 95.0135 65.8813C94.2725 65.5852 93.4607 65.513 92.6791 65.6737C91.8974 65.8343 91.1799 66.2207 90.6156 66.785C90.0513 67.3493 89.665 68.0667 89.5043 68.8484C89.3437 69.6301 89.4159 70.4418 89.7118 71.1828C90.0079 71.9239 90.5148 72.562 91.1698 73.0177C91.8248 73.4737 92.5992 73.7275 93.3969 73.7476C93.9537 73.7831 94.5115 73.6989 95.0331 73.5009C95.5546 73.3027 96.0276 72.9952 96.4206 72.5992C96.8133 72.2031 97.117 71.7275 97.3109 71.2044C97.5045 70.6813 97.5843 70.1228 97.5443 69.5662H97.5783Z" fill="#231F20"/>
<path id="Vector_7" d="M118.553 72.9998C118.553 76.9433 115.154 78.6259 111.414 78.6259C109.921 78.7582 108.421 78.4403 107.11 77.7133C105.798 76.9863 104.734 75.8834 104.055 74.5466L108.508 72.014C108.689 72.6323 109.076 73.1701 109.604 73.538C110.133 73.9059 110.772 74.082 111.414 74.0366C112.655 74.0366 113.267 73.6456 113.267 72.9658C113.267 71.079 104.768 72.082 104.768 66.1668C104.768 62.4273 107.93 60.5406 111.567 60.5406C112.91 60.4999 114.238 60.8187 115.416 61.4643C116.594 62.1098 117.577 63.0586 118.264 64.212L113.794 66.5578C113.597 66.1089 113.273 65.7269 112.863 65.4584C112.452 65.1898 111.973 65.0462 111.482 65.0449C110.599 65.0449 110.055 65.3849 110.055 66.0138C110.123 67.9685 118.553 66.6597 118.553 72.9998Z" fill="#231F20"/>
<path id="Vector_8" d="M137.319 60.9995V78.133H132.219V76.5353C131.626 77.2452 130.873 77.8047 130.022 78.1681C129.172 78.5315 128.247 78.6883 127.324 78.626C123.924 78.626 120.916 76.1613 120.916 71.521V60.9995H126.015V70.7732C125.97 71.1897 126.019 71.6109 126.157 72.0063C126.295 72.4018 126.52 72.7614 126.814 73.0593C127.109 73.3572 127.466 73.5856 127.86 73.7282C128.254 73.8709 128.675 73.9239 129.092 73.8837C130.962 73.8837 132.27 72.7958 132.27 70.3653V60.9995H137.319Z" fill="#231F20"/>
<path id="Vector_9" d="M166.792 67.6284V78.1328H161.693V68.0704C161.693 66.3707 160.86 65.2488 159.228 65.2488C157.597 65.2488 156.543 66.4557 156.543 68.4783V78.1328H151.443V68.0704C151.443 66.3707 150.627 65.2488 148.979 65.2488C147.33 65.2488 146.31 66.4557 146.31 68.4783V78.1328H141.211V60.9995H146.31V62.5803C146.843 61.882 147.542 61.3282 148.344 60.9691C149.145 60.6098 150.024 60.4566 150.899 60.5236C151.779 60.4807 152.655 60.6667 153.441 61.0627C154.227 61.4589 154.898 62.052 155.387 62.7842C155.956 62.0187 156.709 61.4097 157.577 61.0144C158.445 60.6192 159.399 60.4501 160.35 60.5236C164.226 60.5236 166.792 63.3451 166.792 67.6284Z" fill="#231F20"/>
<path id="Vector_10" d="M171.144 60.8976C173.246 60.8976 174.951 59.1928 174.951 57.0901C174.951 54.9873 173.246 53.2827 171.144 53.2827C169.041 53.2827 167.336 54.9873 167.336 57.0901C167.336 59.1928 169.041 60.8976 171.144 60.8976Z" fill="#231F20"/>
<path id="Vector_11" d="M62.3597 40.1608C72.2072 40.1608 80.19 32.1778 80.19 22.3303C80.19 12.4829 72.2072 4.5 62.3597 4.5C52.5123 4.5 44.5293 12.4829 44.5293 22.3303C44.5293 32.1778 52.5123 40.1608 62.3597 40.1608Z" fill="#231F20"/>
<path id="Vector_12" d="M102.219 40.1608C112.066 40.1608 120.049 32.1778 120.049 22.3303C120.049 12.4829 112.066 4.5 102.219 4.5C92.3713 4.5 84.3883 12.4829 84.3883 22.3303C84.3883 32.1778 92.3713 40.1608 102.219 40.1608Z" fill="#231F20"/>
<path id="Vector_13" d="M40.331 4.5H4.68732V40.1437H40.331V4.5Z" fill="#231F20"/>
</g>
</svg>
