<svg width="180" height="47" viewBox="0 0 180 47" fill="none" xmlns="http://www.w3.org/2000/svg">
<g id="Logo">
<path id="Vector" d="M33.3607 19.5669C36.826 19.5669 37.6057 21.072 37.6057 22.9493C37.6057 24.9393 36.6626 26.3649 33.3751 26.3649C30.1086 26.3649 29.1644 25.0221 29.1644 22.9493C29.1644 20.9097 30.1936 19.5669 33.3607 19.5669Z" fill="#231F20"/>
<path id="Vector_2" d="M69.575 19.5669C73.0403 19.5669 73.8199 21.072 73.8199 22.9493C73.8199 24.9393 72.8757 26.3649 69.5893 26.3649C66.3239 26.3649 65.3787 25.0221 65.3787 22.9493C65.3787 20.9097 66.4079 19.5669 69.575 19.5669Z" fill="#231F20"/>
<path id="Vector_3" fill-rule="evenodd" clip-rule="evenodd" d="M2.67981 42.5153V3.36475H177.797V42.5153H2.67981ZM86.1402 40.3067H175.588V5.57333H86.1402V40.3067ZM33.3773 29.6978C39.5293 29.6978 42.1155 27.0441 42.1155 22.8997C42.1155 18.6879 39.2024 16.1845 33.3773 16.1845C27.6415 16.1845 24.6224 18.9033 24.6224 22.8997C24.6224 27.4097 27.7895 29.6978 33.3773 29.6978ZM11.9882 16.4827V29.499H24.4049V26.0326H16.4804V16.4827H11.9882ZM56.012 29.499L55.896 28.2379C54.3932 29.3104 52.564 29.8265 50.7224 29.6978C47.9539 29.6978 45.6482 28.8684 44.355 27.1943C43.5021 25.9721 43.0714 24.5049 43.1282 23.0157C43.0797 21.5577 43.5253 20.1261 44.3926 18.953C45.7012 17.3285 48.0732 16.2508 51.6047 16.2508C55.6674 16.2508 58.0549 17.4942 59.0819 19.5835C59.3023 20.0756 59.4319 20.6034 59.464 21.1417H55.1661C55.0578 20.8146 54.8562 20.5264 54.5863 20.3124C53.7302 19.7447 52.7078 19.4823 51.6842 19.567C51.0838 19.4942 50.4747 19.5496 49.8974 19.7297C49.3201 19.9098 48.7875 20.2104 48.3349 20.6116C47.821 21.3151 47.5797 22.181 47.6558 23.0488C47.5961 23.8767 47.818 24.7005 48.2852 25.3866C48.7418 25.8121 49.2847 26.1343 49.8768 26.3318C50.4691 26.5291 51.0966 26.597 51.7174 26.5306C52.9501 26.6309 54.174 26.2507 55.133 25.4694C55.3389 25.2119 55.4809 24.9091 55.5471 24.586H50.9223V21.7888H59.5766V29.499H56.012ZM69.5915 29.6978C75.7424 29.6978 78.3298 27.0441 78.3298 22.8997C78.3298 18.6879 75.4121 16.1845 69.5915 16.1845C63.8558 16.1845 60.8366 18.9033 60.8366 22.8997C60.8366 27.4097 64.0037 29.6978 69.5915 29.6978Z" fill="#231F20"/>
<path id="Vector_4" d="M93.7072 29.4494V16.4331H96.9096V29.4494H93.7072Z" fill="#231F20"/>
<path id="Vector_5" d="M113.355 24.0108C112.543 25.072 111.146 25.5568 109.177 25.5689C108.762 25.5689 103.257 25.5524 103.257 25.5524V29.4494H100.123V16.4331H109.178C109.904 16.3564 110.638 16.4333 111.332 16.6589C112.026 16.8847 112.665 17.2539 113.207 17.7428C113.922 18.6751 114.27 19.8374 114.185 21.0093C114.258 22.0752 113.965 23.1341 113.355 24.0108ZM110.785 19.767C110.454 19.27 109.739 18.994 108.53 18.994H103.24V22.9562H108.496C109.789 22.9562 110.47 22.6912 110.785 22.1766C110.972 21.814 111.052 21.4058 111.017 20.9994C111.045 20.5755 110.965 20.1516 110.785 19.767Z" fill="#231F20"/>
<path id="Vector_6" d="M123.42 29.6482C117.517 29.6482 115.71 27.4396 115.71 25.2543H119.06C119.06 26.332 120.535 27.1448 123.569 27.1448C126.586 27.1448 127.383 26.6136 127.383 25.7512C127.383 24.7893 126.786 24.4912 123.984 24.1765C123.431 24.1268 121.928 23.9446 121.364 23.8617C117.389 23.4134 115.858 22.2362 115.858 20.1303C115.858 17.9085 118.098 16.2344 122.955 16.2344C128.228 16.2344 130.252 18.3071 130.252 20.4627H126.939C126.939 19.3684 125.695 18.7378 122.76 18.7378C119.742 18.7378 119.096 19.1519 119.096 19.9647C119.096 20.8106 119.759 21.0756 122.961 21.4566C123.691 21.5571 125.315 21.7393 125.763 21.7879C129.146 22.1357 130.671 23.3626 130.671 25.5347C130.666 28.1221 128.344 29.6482 123.42 29.6482Z" fill="#231F20"/>
<path id="Vector_7" d="M140.102 29.6316C135.775 29.6316 132.956 27.9233 132.956 24.331V16.4331H136.122V24.3752C136.122 26.0173 137.466 27.1105 140.234 27.1105C142.738 27.1105 144.231 26.0835 144.231 24.3752V16.4331H147.365V24.6259C147.365 27.8913 144.744 29.6316 140.102 29.6316Z" fill="#231F20"/>
<path id="Vector_8" d="M164.526 29.4494V20.7608L160.463 29.4494H157.38L153.433 20.7608V29.4494H150.451V16.4331H154.491L158.968 26.3486L163.544 16.4331H167.519V29.4494H164.526Z" fill="#231F20"/>
</g>
</svg>
