<svg width="180" height="93" viewBox="0 0 180 93" fill="none" xmlns="http://www.w3.org/2000/svg">
<g id="Logo">
<path id="Vector" d="M45.6098 45.6058L45.9783 45.5278H76.6307L88.1486 57.0458H57.0502L45.6098 45.6058Z" fill="#231F20"/>
<path id="Vector_2" d="M35.7419 45.5278L4.64325 45.528L16.1612 57.046H35.7415L35.7419 45.5278Z" fill="#231F20"/>
<path id="Vector_3" d="M98.8519 12.4419H103.629V27.2845H111.833V31.3055H98.8519V12.4419Z" fill="#231F20"/>
<path id="Vector_4" d="M120.505 31.7098C118.904 31.7098 117.501 31.422 116.295 30.8462C115.089 30.2526 114.154 29.4431 113.488 28.4175C112.84 27.374 112.517 26.1777 112.517 24.8283C112.517 23.479 112.84 22.2916 113.488 21.2661C114.154 20.2227 115.089 19.413 116.295 18.8374C117.501 18.2436 118.904 17.9468 120.505 17.9468C122.106 17.9468 123.51 18.2436 124.715 18.8374C125.92 19.413 126.847 20.2227 127.495 21.2661C128.16 22.2916 128.493 23.479 128.493 24.8283C128.493 26.1777 128.16 27.374 127.495 28.4175C126.847 29.4431 125.92 30.2526 124.715 30.8462C123.51 31.422 122.106 31.7098 120.505 31.7098ZM120.505 28.0128C121.458 28.0128 122.215 27.7339 122.772 27.1762C123.348 26.6004 123.635 25.8179 123.635 24.8283C123.635 23.8388 123.348 23.0652 122.772 22.5074C122.215 21.9317 121.458 21.6439 120.505 21.6439C119.551 21.6439 118.788 21.9317 118.211 22.5074C117.653 23.0652 117.375 23.8388 117.375 24.8283C117.375 25.8179 117.653 26.6004 118.211 27.1762C118.788 27.7339 119.551 28.0128 120.505 28.0128Z" fill="#231F20"/>
<path id="Vector_5" d="M137.415 37.5119C136.551 37.5119 135.679 37.431 134.796 37.269C133.933 37.1072 133.187 36.8912 132.558 36.6214V33.3291C133.978 33.9407 135.598 34.2467 137.415 34.2467C138.728 34.2467 139.673 33.9767 140.248 33.4369C140.842 32.8973 141.138 32.1058 141.138 31.0622V30.2795C140.617 30.7293 139.97 31.0802 139.196 31.332C138.44 31.584 137.63 31.7098 136.767 31.7098C135.4 31.7098 134.194 31.422 133.151 30.8462C132.107 30.2707 131.289 29.4609 130.694 28.4175C130.119 27.374 129.831 26.1777 129.831 24.8283C129.831 23.461 130.119 22.2556 130.694 21.2121C131.271 20.1687 132.08 19.3681 133.124 18.8103C134.167 18.2346 135.364 17.9468 136.713 17.9468C138.567 17.9468 140.096 18.5135 141.301 19.6468V18.3516H145.888V30.4146C145.888 32.6634 145.197 34.4085 143.811 35.65C142.443 36.8912 140.311 37.5119 137.415 37.5119ZM137.954 28.0397C138.692 28.0397 139.349 27.8508 139.924 27.473C140.5 27.0951 140.905 26.5915 141.138 25.9617V23.695C140.887 23.0652 140.473 22.5705 139.897 22.2106C139.322 21.8328 138.674 21.6439 137.954 21.6439C136.984 21.6439 136.2 21.9317 135.607 22.5074C135.013 23.0652 134.716 23.8299 134.716 24.8013C134.716 25.7908 135.013 26.5824 135.607 27.1762C136.2 27.7519 136.984 28.0397 137.954 28.0397Z" fill="#231F20"/>
<path id="Vector_6" d="M155.081 31.7098C153.48 31.7098 152.076 31.422 150.871 30.8462C149.666 30.2526 148.731 29.4431 148.065 28.4175C147.417 27.374 147.093 26.1777 147.093 24.8283C147.093 23.479 147.417 22.2916 148.065 21.2661C148.731 20.2227 149.666 19.413 150.871 18.8374C152.076 18.2436 153.48 17.9468 155.081 17.9468C156.683 17.9468 158.085 18.2436 159.292 18.8374C160.497 19.413 161.423 20.2227 162.071 21.2661C162.737 22.2916 163.07 23.479 163.07 24.8283C163.07 26.1777 162.737 27.374 162.071 28.4175C161.423 29.4431 160.497 30.2526 159.292 30.8462C158.085 31.422 156.683 31.7098 155.081 31.7098ZM155.081 28.0128C156.035 28.0128 156.79 27.7339 157.349 27.1762C157.924 26.6004 158.212 25.8179 158.212 24.8283C158.212 23.8388 157.924 23.0652 157.349 22.5074C156.79 21.9317 156.035 21.6439 155.081 21.6439C154.128 21.6439 153.363 21.9317 152.787 22.5074C152.23 23.0652 151.951 23.8388 151.951 24.8283C151.951 25.8179 152.23 26.6004 152.787 27.1762C153.363 27.7339 154.128 28.0128 155.081 28.0128Z" fill="#231F20"/>
<path id="Vector_7" d="M98.8519 38.248H103.629V57.1117H98.8519V38.248Z" fill="#231F20"/>
<path id="Vector_8" d="M106.047 44.1581H110.634V45.4534C111.839 44.3201 113.37 43.7534 115.222 43.7534C116.571 43.7534 117.768 44.0412 118.811 44.617C119.855 45.1747 120.664 45.9752 121.24 47.0187C121.816 48.0441 122.104 49.2406 122.104 50.6079C122.104 51.9572 121.816 53.1626 121.24 54.224C120.664 55.2675 119.855 56.0773 118.811 56.6527C117.786 57.2286 116.589 57.5164 115.222 57.5164C114.358 57.5164 113.531 57.3815 112.74 57.1116C111.966 56.8598 111.318 56.5089 110.797 56.0591V63.0218H106.047V44.1581ZM113.981 53.8193C114.953 53.8193 115.735 53.5315 116.328 52.9557C116.922 52.3801 117.219 51.5973 117.219 50.6079C117.219 49.6184 116.922 48.8448 116.328 48.287C115.735 47.7114 114.953 47.4236 113.981 47.4236C113.261 47.4236 112.613 47.6125 112.038 47.9903C111.462 48.3499 111.048 48.8448 110.797 49.4744V51.7682C111.048 52.3981 111.462 52.9017 112.038 53.2795C112.613 53.6395 113.261 53.8193 113.981 53.8193Z" fill="#231F20"/>
<path id="Vector_9" d="M129.185 57.5164C128.141 57.5164 127.052 57.4084 125.919 57.1925C124.786 56.9947 123.885 56.7069 123.221 56.3291V52.8479C123.958 53.2795 124.839 53.6395 125.865 53.9273C126.909 54.1971 127.862 54.332 128.725 54.332C129.355 54.332 129.814 54.2869 130.102 54.1971C130.39 54.1071 130.533 53.9273 130.533 53.6573C130.533 53.4415 130.435 53.2706 130.236 53.1448C130.057 53.0008 129.715 52.8568 129.212 52.7128C128.725 52.551 128.159 52.3801 127.511 52.2001C126.413 51.8762 125.55 51.5433 124.92 51.2015C124.291 50.8597 123.823 50.4281 123.518 49.9063C123.212 49.3846 123.058 48.7277 123.058 47.9361C123.058 46.533 123.607 45.4894 124.705 44.806C125.82 44.1041 127.341 43.7534 129.265 43.7534C130.2 43.7534 131.181 43.8523 132.207 44.0501C133.251 44.2481 134.033 44.509 134.555 44.8329V48.2601C134.014 47.9003 133.296 47.6034 132.396 47.3696C131.514 47.1357 130.687 47.0187 129.912 47.0187C129.301 47.0187 128.825 47.0816 128.483 47.2076C128.141 47.3156 127.971 47.5136 127.971 47.8014C127.971 48.0712 128.141 48.2781 128.483 48.4219C128.825 48.5659 129.436 48.7459 130.318 48.9617C130.893 49.1055 131.137 49.1686 131.047 49.1506C132.198 49.4564 133.088 49.7983 133.718 50.1761C134.347 50.5541 134.789 51.0037 135.04 51.5255C135.31 52.0291 135.446 52.6768 135.446 53.4684C135.446 54.7099 134.906 55.6995 133.826 56.4369C132.764 57.1566 131.217 57.5164 129.185 57.5164Z" fill="#231F20"/>
<path id="Vector_10" d="M142.537 57.5164C140.756 57.5164 139.416 57.0217 138.517 56.0323C137.635 55.0426 137.194 53.7385 137.194 52.1192V44.1582H141.944V51.5794C141.944 53.0727 142.618 53.8194 143.967 53.8194C144.58 53.8194 145.137 53.6754 145.64 53.3876C146.145 53.0998 146.558 52.6768 146.882 52.1192V44.1582H151.631V57.1117H147.044V55.7083C146.487 56.3021 145.812 56.7519 145.02 57.0577C144.229 57.3635 143.4 57.5164 142.537 57.5164Z" fill="#231F20"/>
<path id="Vector_11" d="M154.064 44.1581H158.462V45.5614C159.002 44.9858 159.622 44.545 160.324 44.239C161.026 43.9152 161.773 43.7534 162.564 43.7534C163.536 43.7534 164.31 43.8972 164.886 44.185C165.479 44.473 165.955 44.9047 166.315 45.4805C166.855 44.9407 167.511 44.518 168.286 44.2121C169.058 43.9063 169.842 43.7534 170.633 43.7534C172.342 43.7534 173.557 44.1941 174.277 45.0756C174.997 45.9392 175.357 47.1896 175.357 48.8268V57.1116H170.822V49.5015C170.822 48.7819 170.687 48.2601 170.417 47.9361C170.147 47.6125 169.697 47.4505 169.067 47.4505C168.258 47.4505 167.602 47.7385 167.098 48.3139C167.116 48.6199 167.126 49.0877 167.126 49.7174V57.1116H162.591V49.3126C162.591 48.6468 162.474 48.1701 162.24 47.8823C162.007 47.5945 161.593 47.4505 160.999 47.4505C160.082 47.4505 159.289 47.9632 158.625 48.9886V57.1116H154.064V44.1581Z" fill="#231F20"/>
<path id="Vector_12" d="M45.9787 45.5279L45.61 45.606L57.0498 57.0459V88.1443H47.2595L35.7415 76.6264H45.5318V45.5277H35.7415V35.7378H45.5318V4.63916L57.0498 16.1571V35.7376L45.5318 35.7378V45.5277L45.9787 45.5279Z" fill="#555555"/>
<path id="Vector_13" d="M76.6308 45.5281L88.1488 57.0461V47.2558L76.6308 35.7378V45.5281Z" fill="#555555"/>
<path id="Vector_14" d="M99.5269 65.9663H106.516C108.495 65.9663 110.033 66.4341 111.131 67.3697C112.246 68.3052 112.805 69.6905 112.805 71.5255C112.805 73.3786 112.255 74.764 111.158 75.6817C110.06 76.5991 108.513 77.0578 106.516 77.0578H101.632V84.8299H99.5269V65.9663ZM106.354 75.2768C107.704 75.2768 108.766 75.007 109.539 74.4671C110.313 73.9095 110.699 72.929 110.699 71.5255C110.699 70.1043 110.313 69.1237 109.539 68.5841C108.766 68.0263 107.704 67.7476 106.354 67.7476H101.632V75.2768H106.354Z" fill="#555555"/>
<path id="Vector_15" d="M115.497 64.8867H117.575V84.8298H115.497V64.8867Z" fill="#555555"/>
<path id="Vector_16" d="M126.584 85.2349C124.856 85.2349 123.525 84.7671 122.589 83.8314C121.671 82.896 121.214 81.6456 121.214 80.0804V71.8765H123.291V80.1884C123.291 82.4553 124.469 83.5887 126.826 83.5887C127.816 83.5887 128.679 83.3727 129.417 82.9411C130.172 82.5091 130.847 81.8255 131.441 80.89V71.8765H133.519V84.83H131.495V82.8869C130.326 84.4522 128.688 85.2349 126.584 85.2349Z" fill="#555555"/>
<path id="Vector_17" d="M141.799 85.2348C140.953 85.2348 140.044 85.1088 139.073 84.857C138.101 84.623 137.346 84.3263 136.806 83.9663V82.2123C137.49 82.6261 138.273 82.9588 139.154 83.2106C140.053 83.4626 140.917 83.5885 141.745 83.5885C142.86 83.5885 143.661 83.4356 144.146 83.1297C144.651 82.8059 144.902 82.3292 144.902 81.6996C144.902 81.2138 144.794 80.8359 144.579 80.5661C144.362 80.2781 144.003 80.0263 143.499 79.8105C142.995 79.5945 142.212 79.3427 141.152 79.0549C140.108 78.7671 139.272 78.4701 138.642 78.1643C138.03 77.8403 137.562 77.4356 137.238 76.9498C136.914 76.4642 136.753 75.8435 136.753 75.0878C136.753 73.9184 137.22 73.0278 138.155 72.4162C139.109 71.7864 140.368 71.4717 141.934 71.4717C142.779 71.4717 143.571 71.5526 144.309 71.7144C145.064 71.8584 145.693 72.0653 146.198 72.3353V74.0893C145.675 73.8015 145.046 73.5766 144.309 73.4146C143.571 73.2348 142.806 73.1448 142.015 73.1448C140.971 73.1448 140.18 73.2977 139.639 73.6035C139.1 73.9095 138.83 74.4042 138.83 75.0878C138.83 75.5556 138.92 75.9155 139.1 76.1673C139.299 76.4191 139.648 76.6531 140.153 76.8689C140.674 77.0669 141.502 77.3187 142.635 77.6245C144.255 78.0743 145.379 78.6051 146.008 79.2169C146.656 79.8105 146.98 80.6381 146.98 81.6996C146.98 82.7968 146.549 83.6605 145.684 84.2903C144.839 84.9199 143.544 85.2348 141.799 85.2348Z" fill="#555555"/>
</g>
</svg>
