<svg width="180" height="180" viewBox="0 0 180 180" fill="none" xmlns="http://www.w3.org/2000/svg">
<g id="Logo">
<path id="Vector" d="M23.76 119.484C25.3307 119.484 26.604 106.284 26.604 90.0001C26.604 73.7166 25.3307 60.5161 23.76 60.5161C22.1893 60.5161 20.916 73.7166 20.916 90.0001C20.916 106.284 22.1893 119.484 23.76 119.484Z" fill="#231F20"/>
<path id="Vector_2" d="M31.32 122.76C33.0696 122.76 34.488 108.093 34.488 90.0002C34.488 71.9074 33.0696 57.2402 31.32 57.2402C29.5704 57.2402 28.152 71.9074 28.152 90.0002C28.152 108.093 29.5704 122.76 31.32 122.76Z" fill="#231F20"/>
<path id="Vector_3" d="M39.744 126.432C41.6725 126.432 43.236 110.121 43.236 89.9999C43.236 69.8791 41.6725 53.5679 39.744 53.5679C37.8155 53.5679 36.252 69.8791 36.252 89.9999C36.252 110.121 37.8155 126.432 39.744 126.432Z" fill="#231F20"/>
<path id="Vector_4" d="M49.068 130.464C51.2154 130.464 52.956 112.348 52.956 90.0001C52.956 67.6524 51.2154 49.5361 49.068 49.5361C46.9206 49.5361 45.18 67.6524 45.18 90.0001C45.18 112.348 46.9206 130.464 49.068 130.464Z" fill="#231F20"/>
<path id="Vector_5" d="M59.436 134.964C61.8217 134.964 63.756 114.833 63.756 90.0001C63.756 65.1673 61.8217 45.0361 59.436 45.0361C57.0503 45.0361 55.116 65.1673 55.116 90.0001C55.116 114.833 57.0503 134.964 59.436 134.964Z" fill="#231F20"/>
<path id="Vector_6" d="M70.992 139.968C73.6362 139.968 75.78 117.597 75.78 90.0002C75.78 62.4037 73.6362 40.0322 70.992 40.0322C68.3478 40.0322 66.204 62.4037 66.204 90.0002C66.204 117.597 68.3478 139.968 70.992 139.968Z" fill="#231F20"/>
<path id="Vector_7" d="M83.808 145.512C86.7506 145.512 89.136 120.658 89.136 89.9998C89.136 59.3415 86.7506 34.4878 83.808 34.4878C80.8653 34.4878 78.48 59.3415 78.48 89.9998C78.48 120.658 80.8653 145.512 83.808 145.512Z" fill="#231F20"/>
<path id="Vector_8" d="M98.028 151.668C101.309 151.668 103.968 124.058 103.968 90C103.968 55.9419 101.309 28.332 98.028 28.332C94.7473 28.332 92.088 55.9419 92.088 90C92.088 124.058 94.7473 151.668 98.028 151.668Z" fill="#231F20"/>
<path id="Vector_9" d="M113.832 158.544C117.471 158.544 120.42 127.856 120.42 90.0001C120.42 52.1443 117.471 21.4561 113.832 21.4561C110.193 21.4561 107.244 52.1443 107.244 90.0001C107.244 127.856 110.193 158.544 113.832 158.544Z" fill="#231F20"/>
<path id="Vector_10" d="M131.4 166.14C135.436 166.14 138.708 132.051 138.708 89.9999C138.708 47.949 135.436 13.8599 131.4 13.8599C127.364 13.8599 124.092 47.949 124.092 89.9999C124.092 132.051 127.364 166.14 131.4 166.14Z" fill="#231F20"/>
<path id="Vector_11" d="M150.912 174.6C155.406 174.6 159.048 136.723 159.048 89.9999C159.048 43.2766 155.406 5.3999 150.912 5.3999C146.418 5.3999 142.776 43.2766 142.776 89.9999C142.776 136.723 146.418 174.6 150.912 174.6Z" fill="#231F20"/>
</g>
</svg>
