<svg width="200" height="134" viewBox="0 0 200 134" fill="none" xmlns="http://www.w3.org/2000/svg">
<g id="Logo" clip-path="url(#clip0_25_477)">
<path id="Vector" d="M187.5 4.16666C187.5 6.46786 189.365 8.33332 191.667 8.33332H195.833C198.135 8.33332 200 6.46786 200 4.16666C200 1.86548 198.135 0 195.833 0H191.667C189.365 0 187.5 1.86548 187.5 4.16666Z" fill="#231F20"/>
<path id="Vector_2" d="M66.6667 133.333H86.9077L81.015 127.441C79.4523 125.878 77.3327 125 75.1227 125H66.6667C34.45 125 8.33333 98.8833 8.33333 66.6667C8.33333 34.45 34.45 8.33337 66.6667 8.33333H133.333C165.55 8.33333 191.667 34.45 191.667 66.6667C191.667 98.8833 165.55 125 133.333 125H108.395C105.079 125 101.9 123.683 99.5557 121.339L92.6523 114.435C88.7453 110.528 83.446 108.333 77.9207 108.333H66.6667C43.6547 108.333 25 89.6787 25 66.6667C25 43.6547 43.6547 25 66.6667 25H133.333C156.345 25 175 43.6547 175 66.6667C175 89.6787 156.345 108.333 133.333 108.333H117.32C114.005 108.333 110.826 107.016 108.481 104.672L101.578 97.7687C97.6707 93.8617 92.3717 91.6667 86.8463 91.6667H66.6667C52.8597 91.6667 41.6667 80.4737 41.6667 66.6667C41.6667 52.8597 52.8597 41.6667 66.6667 41.6667H133.333C147.14 41.6667 158.333 52.8597 158.333 66.6667C158.333 80.3053 147.412 91.3933 133.837 91.6617L133.835 91.6667H127.737C124.422 91.6667 121.242 90.3497 118.898 88.0057L111.994 81.102C108.789 77.896 104.646 75.843 100.209 75.2093L100 75H66.6667C62.0643 75 58.3333 71.269 58.3333 66.6667C58.3333 62.0643 62.0643 58.3333 66.6667 58.3333H133.333C137.936 58.3333 141.667 62.0643 141.667 66.6667C141.667 71.269 137.936 75 133.333 75H116.667L122.559 80.8927C124.122 82.4553 126.242 83.3333 128.452 83.3333H133.333C142.538 83.3333 150 75.8713 150 66.6667C150 57.462 142.538 50 133.333 50H66.6667C57.462 50 50 57.462 50 66.6667C50 75.8713 57.462 83.3333 66.6667 83.3333H97.263C100.578 83.3333 103.758 84.6503 106.102 86.9943L113.006 93.898C116.913 97.805 122.212 100 127.737 100H135.417V99.936C152.856 98.8607 166.667 84.3763 166.667 66.6667C166.667 48.2573 151.743 33.3333 133.333 33.3333H66.6667C48.2573 33.3333 33.3333 48.2573 33.3333 66.6667C33.3333 85.0763 48.2573 100 66.6667 100H86.8463C90.1617 100 93.341 101.317 95.6853 103.661L102.589 110.565C106.496 114.472 111.795 116.667 117.32 116.667H133.333C160.948 116.667 183.333 94.281 183.333 66.6667C183.333 39.0523 160.948 16.6667 133.333 16.6667H66.6667C39.0523 16.6667 16.6667 39.0523 16.6667 66.6667C16.6667 94.281 39.0523 116.667 66.6667 116.667H77.9207C81.236 116.667 84.4153 117.984 86.7597 120.328L93.6633 127.231C97.5703 131.138 102.869 133.333 108.395 133.333H133.333C170.152 133.333 200 103.486 200 66.6667C200 29.8477 170.152 -3.21882e-06 133.333 0L66.6667 1.37755e-05C29.8477 1.69943e-05 -3.21882e-06 29.8477 0 66.6667C3.21882e-06 103.486 29.8477 133.333 66.6667 133.333Z" fill="#231F20"/>
</g>
<defs>
<clipPath id="clip0_25_477">
<rect width="200" height="133.333" fill="white"/>
</clipPath>
</defs>
</svg>
