<svg width="168" height="48" viewBox="0 0 168 48" fill="none" xmlns="http://www.w3.org/2000/svg">
<g id="Logo">
<g id="Group">
<g id="Clip path group">
<mask id="mask0_428_48" style="mask-type:luminance" maskUnits="userSpaceOnUse" x="0" y="0" width="24" height="24">
<g id="clippath">
<path id="Vector" d="M0 24C0 10.7439 10.7439 0 24 0H0V24Z" fill="white"/>
</g>
</mask>
<g mask="url(#mask0_428_48)">
<g id="Group_2">
<path id="Vector_2" d="M2.12473 3.30735H14.3051" stroke="white" stroke-width="0.5" stroke-miterlimit="10"/>
<path id="Vector_3" d="M2.12473 4.6637H14.3051" stroke="white" stroke-width="0.5" stroke-miterlimit="10"/>
<path id="Vector_4" d="M2.12473 6.02673H14.3051" stroke="white" stroke-width="0.5" stroke-miterlimit="10"/>
<path id="Vector_5" d="M2.12473 7.38976H14.3051" stroke="white" stroke-width="0.5" stroke-miterlimit="10"/>
<path id="Vector_6" d="M2.12473 8.75278H14.3051" stroke="white" stroke-width="0.5" stroke-miterlimit="10"/>
<path id="Vector_7" d="M2.12473 10.1091H14.3051" stroke="white" stroke-width="0.5" stroke-miterlimit="10"/>
<path id="Vector_8" d="M2.12473 11.4722H14.3051" stroke="white" stroke-width="0.5" stroke-miterlimit="10"/>
<path id="Vector_9" d="M2.12473 12.8352H14.3051" stroke="white" stroke-width="0.5" stroke-miterlimit="10"/>
<path id="Vector_10" d="M12.8151 1.97773V14.1581" stroke="white" stroke-width="0.5" stroke-miterlimit="10"/>
<path id="Vector_11" d="M11.4521 1.97773V14.1581" stroke="white" stroke-width="0.5" stroke-miterlimit="10"/>
<path id="Vector_12" d="M10.0891 1.97773V14.1581" stroke="white" stroke-width="0.5" stroke-miterlimit="10"/>
<path id="Vector_13" d="M8.73274 1.97773V14.1581" stroke="white" stroke-width="0.5" stroke-miterlimit="10"/>
<path id="Vector_14" d="M7.36971 1.97773V14.1581" stroke="white" stroke-width="0.5" stroke-miterlimit="10"/>
<path id="Vector_15" d="M6.00668 1.97773V14.1581" stroke="white" stroke-width="0.5" stroke-miterlimit="10"/>
<path id="Vector_16" d="M4.64365 1.97773V14.1581" stroke="white" stroke-width="0.5" stroke-miterlimit="10"/>
<path id="Vector_17" d="M3.28731 1.97773V14.1581" stroke="white" stroke-width="0.5" stroke-miterlimit="10"/>
</g>
</g>
</g>
<g id="Clip path group_2">
<mask id="mask1_428_48" style="mask-type:luminance" maskUnits="userSpaceOnUse" x="24" y="0" width="24" height="24">
<g id="clippath-1">
<path id="Vector_18" d="M48 24C48 10.7439 37.2561 0 24 0H48V24Z" fill="white"/>
</g>
</mask>
<g mask="url(#mask1_428_48)">
<g id="Group_3">
<path id="Vector_19" d="M45.8753 3.30735H33.6949" stroke="white" stroke-width="0.5" stroke-miterlimit="10"/>
<path id="Vector_20" d="M45.8753 4.6637H33.6949" stroke="white" stroke-width="0.5" stroke-miterlimit="10"/>
<path id="Vector_21" d="M45.8753 6.02673H33.6949" stroke="white" stroke-width="0.5" stroke-miterlimit="10"/>
<path id="Vector_22" d="M45.8753 7.38976H33.6949" stroke="white" stroke-width="0.5" stroke-miterlimit="10"/>
<path id="Vector_23" d="M45.8753 8.75278H33.6949" stroke="white" stroke-width="0.5" stroke-miterlimit="10"/>
<path id="Vector_24" d="M45.8753 10.1091H33.6949" stroke="white" stroke-width="0.5" stroke-miterlimit="10"/>
<path id="Vector_25" d="M45.8753 11.4722H33.6949" stroke="white" stroke-width="0.5" stroke-miterlimit="10"/>
<path id="Vector_26" d="M45.8753 12.8352H33.6949" stroke="white" stroke-width="0.5" stroke-miterlimit="10"/>
<path id="Vector_27" d="M35.1849 1.97773V14.1581" stroke="white" stroke-width="0.5" stroke-miterlimit="10"/>
<path id="Vector_28" d="M36.5479 1.97773V14.1581" stroke="white" stroke-width="0.5" stroke-miterlimit="10"/>
<path id="Vector_29" d="M37.9109 1.97773V14.1581" stroke="white" stroke-width="0.5" stroke-miterlimit="10"/>
<path id="Vector_30" d="M39.2739 1.97773V14.1581" stroke="white" stroke-width="0.5" stroke-miterlimit="10"/>
<path id="Vector_31" d="M40.6303 1.97773V14.1581" stroke="white" stroke-width="0.5" stroke-miterlimit="10"/>
<path id="Vector_32" d="M41.9933 1.97773V14.1581" stroke="white" stroke-width="0.5" stroke-miterlimit="10"/>
<path id="Vector_33" d="M43.3563 1.97773V14.1581" stroke="white" stroke-width="0.5" stroke-miterlimit="10"/>
<path id="Vector_34" d="M44.7194 1.97773V14.1581" stroke="white" stroke-width="0.5" stroke-miterlimit="10"/>
</g>
</g>
</g>
<g id="Clip path group_3">
<mask id="mask2_428_48" style="mask-type:luminance" maskUnits="userSpaceOnUse" x="0" y="24" width="24" height="24">
<g id="clippath-2">
<path id="Vector_35" d="M0 24C0 37.2561 10.7439 48 24 48H0V24Z" fill="white"/>
</g>
</mask>
<g mask="url(#mask2_428_48)">
<g id="Group_4">
<path id="Vector_36" d="M2.12473 44.6993H14.3051" stroke="white" stroke-width="0.5" stroke-miterlimit="10"/>
<path id="Vector_37" d="M2.12473 43.3363H14.3051" stroke="white" stroke-width="0.5" stroke-miterlimit="10"/>
<path id="Vector_38" d="M2.12473 41.9733H14.3051" stroke="white" stroke-width="0.5" stroke-miterlimit="10"/>
<path id="Vector_39" d="M2.12473 40.6102H14.3051" stroke="white" stroke-width="0.5" stroke-miterlimit="10"/>
<path id="Vector_40" d="M2.12473 39.2539H14.3051" stroke="white" stroke-width="0.5" stroke-miterlimit="10"/>
<path id="Vector_41" d="M2.12473 37.8909H14.3051" stroke="white" stroke-width="0.5" stroke-miterlimit="10"/>
<path id="Vector_42" d="M2.12473 36.5278H14.3051" stroke="white" stroke-width="0.5" stroke-miterlimit="10"/>
<path id="Vector_43" d="M2.12473 35.1648H14.3051" stroke="white" stroke-width="0.5" stroke-miterlimit="10"/>
<path id="Vector_44" d="M12.8151 46.0223V33.8419" stroke="white" stroke-width="0.5" stroke-miterlimit="10"/>
<path id="Vector_45" d="M11.4521 46.0223V33.8419" stroke="white" stroke-width="0.5" stroke-miterlimit="10"/>
<path id="Vector_46" d="M10.0891 46.0223V33.8419" stroke="white" stroke-width="0.5" stroke-miterlimit="10"/>
<path id="Vector_47" d="M8.73274 46.0223V33.8419" stroke="white" stroke-width="0.5" stroke-miterlimit="10"/>
<path id="Vector_48" d="M7.36971 46.0223V33.8419" stroke="white" stroke-width="0.5" stroke-miterlimit="10"/>
<path id="Vector_49" d="M6.00668 46.0223V33.8419" stroke="white" stroke-width="0.5" stroke-miterlimit="10"/>
<path id="Vector_50" d="M4.64365 46.0223V33.8419" stroke="white" stroke-width="0.5" stroke-miterlimit="10"/>
<path id="Vector_51" d="M3.28731 46.0223V33.8419" stroke="white" stroke-width="0.5" stroke-miterlimit="10"/>
</g>
</g>
</g>
<g id="Clip path group_4">
<mask id="mask3_428_48" style="mask-type:luminance" maskUnits="userSpaceOnUse" x="24" y="24" width="24" height="24">
<g id="clippath-3">
<path id="Vector_52" d="M48 24C48 37.2561 37.2561 48 24 48H48V24Z" fill="white"/>
</g>
</mask>
<g mask="url(#mask3_428_48)">
<g id="Group_5">
<path id="Vector_53" d="M45.8753 44.6993H33.6949" stroke="white" stroke-width="0.5" stroke-miterlimit="10"/>
<path id="Vector_54" d="M45.8753 43.3363H33.6949" stroke="white" stroke-width="0.5" stroke-miterlimit="10"/>
<path id="Vector_55" d="M45.8753 41.9733H33.6949" stroke="white" stroke-width="0.5" stroke-miterlimit="10"/>
<path id="Vector_56" d="M45.8753 40.6102H33.6949" stroke="white" stroke-width="0.5" stroke-miterlimit="10"/>
<path id="Vector_57" d="M45.8753 39.2539H33.6949" stroke="white" stroke-width="0.5" stroke-miterlimit="10"/>
<path id="Vector_58" d="M45.8753 37.8909H33.6949" stroke="white" stroke-width="0.5" stroke-miterlimit="10"/>
<path id="Vector_59" d="M45.8753 36.5278H33.6949" stroke="white" stroke-width="0.5" stroke-miterlimit="10"/>
<path id="Vector_60" d="M45.8753 35.1648H33.6949" stroke="white" stroke-width="0.5" stroke-miterlimit="10"/>
<path id="Vector_61" d="M35.1849 46.0223V33.8419" stroke="white" stroke-width="0.5" stroke-miterlimit="10"/>
<path id="Vector_62" d="M36.5479 46.0223V33.8419" stroke="white" stroke-width="0.5" stroke-miterlimit="10"/>
<path id="Vector_63" d="M37.9109 46.0223V33.8419" stroke="white" stroke-width="0.5" stroke-miterlimit="10"/>
<path id="Vector_64" d="M39.2739 46.0223V33.8419" stroke="white" stroke-width="0.5" stroke-miterlimit="10"/>
<path id="Vector_65" d="M40.6303 46.0223V33.8419" stroke="white" stroke-width="0.5" stroke-miterlimit="10"/>
<path id="Vector_66" d="M41.9933 46.0223V33.8419" stroke="white" stroke-width="0.5" stroke-miterlimit="10"/>
<path id="Vector_67" d="M43.3563 46.0223V33.8419" stroke="white" stroke-width="0.5" stroke-miterlimit="10"/>
<path id="Vector_68" d="M44.7194 46.0223V33.8419" stroke="white" stroke-width="0.5" stroke-miterlimit="10"/>
</g>
</g>
</g>
</g>
<path id="Vector_69" d="M19.049 5.77951L18.5212 5.25167L19.049 4.72383C19.1826 4.5902 19.1826 4.36971 19.049 4.23608C18.9154 4.10245 18.6949 4.10245 18.5612 4.23608L18.0334 4.76392L17.5056 4.23608C17.3719 4.10245 17.1514 4.10245 17.0178 4.23608C16.8842 4.36971 16.8842 4.5902 17.0178 4.72383L17.5457 5.25167L17.0178 5.77951C16.8842 5.91314 16.8842 6.13363 17.0178 6.26726C17.1514 6.40089 17.3719 6.40089 17.5056 6.26726L18.0334 5.73942L18.5612 6.26726C18.6949 6.40089 18.9154 6.40089 19.049 6.26726C19.1826 6.13363 19.1826 5.91314 19.049 5.77951Z" fill="white"/>
<path id="Vector_70" d="M22.1359 5.77951L21.608 5.25167L22.1359 4.72383C22.2695 4.5902 22.2695 4.36971 22.1359 4.23608C22.0022 4.10245 21.7817 4.10245 21.6481 4.23608L21.1203 4.76392L20.5924 4.23608C20.4588 4.10245 20.2383 4.10245 20.1047 4.23608C19.971 4.36971 19.971 4.5902 20.1047 4.72383L20.6325 5.25167L20.1047 5.77951C19.971 5.91314 19.971 6.13363 20.1047 6.26726C20.2383 6.40089 20.4588 6.40089 20.5924 6.26726L21.1203 5.73942L21.6481 6.26726C21.7817 6.40089 22.0022 6.40089 22.1359 6.26726C22.2695 6.13363 22.2695 5.91314 22.1359 5.77951Z" fill="white"/>
<path id="Vector_71" d="M25.216 5.77951L24.6882 5.25167L25.216 4.72383C25.3497 4.5902 25.3497 4.36971 25.216 4.23608C25.0824 4.10245 24.8619 4.10245 24.7283 4.23608L24.2004 4.76392L23.6726 4.23608C23.539 4.10245 23.3185 4.10245 23.1849 4.23608C23.0512 4.36971 23.0512 4.5902 23.1849 4.72383L23.7127 5.25167L23.1849 5.77951C23.0512 5.91314 23.0512 6.13363 23.1849 6.26726C23.3185 6.40089 23.539 6.40089 23.6726 6.26726L24.2004 5.73942L24.7283 6.26726C24.8619 6.40089 25.0824 6.40089 25.216 6.26726C25.3497 6.13363 25.3497 5.91314 25.216 5.77951Z" fill="white"/>
<path id="Vector_72" d="M28.2962 5.77951L27.7684 5.25167L28.2962 4.72383C28.4298 4.5902 28.4298 4.36971 28.2962 4.23608C28.1626 4.10245 27.9421 4.10245 27.8085 4.23608L27.2806 4.76392L26.7528 4.23608C26.6192 4.10245 26.3987 4.10245 26.265 4.23608C26.1314 4.36971 26.1314 4.5902 26.265 4.72383L26.7929 5.25167L26.265 5.77951C26.1314 5.91314 26.1314 6.13363 26.265 6.26726C26.3987 6.40089 26.6192 6.40089 26.7528 6.26726L27.2806 5.73942L27.8085 6.26726C27.9421 6.40089 28.1626 6.40089 28.2962 6.26726C28.4298 6.13363 28.4298 5.91314 28.2962 5.77951Z" fill="white"/>
<path id="Vector_73" d="M31.2561 5.77951L30.7283 5.25167L31.2561 4.72383C31.3898 4.5902 31.3898 4.36971 31.2561 4.23608C31.1225 4.10245 30.902 4.10245 30.7684 4.23608L30.2405 4.76392L29.7127 4.23608C29.5791 4.10245 29.3586 4.10245 29.2249 4.23608C29.0913 4.36971 29.0913 4.5902 29.2249 4.72383L29.7528 5.25167L29.2249 5.77951C29.0913 5.91314 29.0913 6.13363 29.2249 6.26726C29.3586 6.40089 29.5791 6.40089 29.7127 6.26726L30.2405 5.73942L30.7684 6.26726C30.902 6.40089 31.1225 6.40089 31.2561 6.26726C31.3898 6.13363 31.3898 5.91314 31.2561 5.77951Z" fill="white"/>
<path id="Vector_74" d="M19.049 8.79287L18.5212 8.26503L19.049 7.73719C19.1826 7.60356 19.1826 7.38307 19.049 7.24944C18.9154 7.11581 18.6949 7.11581 18.5612 7.24944L18.0334 7.77728L17.5056 7.24944C17.3719 7.11581 17.1514 7.11581 17.0178 7.24944C16.8842 7.38307 16.8842 7.60356 17.0178 7.73719L17.5457 8.26503L17.0178 8.79287C16.8842 8.9265 16.8842 9.14699 17.0178 9.28062C17.1514 9.41425 17.3719 9.41425 17.5056 9.28062L18.0334 8.75278L18.5612 9.28062C18.6949 9.41425 18.9154 9.41425 19.049 9.28062C19.1826 9.14699 19.1826 8.9265 19.049 8.79287Z" fill="white"/>
<path id="Vector_75" d="M15.9354 8.79287L15.4076 8.26503L15.9354 7.73719C16.069 7.60356 16.069 7.38307 15.9354 7.24944C15.8018 7.11581 15.5813 7.11581 15.4477 7.24944L14.9198 7.77728L14.392 7.24944C14.2584 7.11581 14.0379 7.11581 13.9042 7.24944C13.7706 7.38307 13.7706 7.60356 13.9042 7.73719L14.4321 8.26503L13.9042 8.79287C13.7706 8.9265 13.7706 9.14699 13.9042 9.28062C14.0379 9.41425 14.2584 9.41425 14.392 9.28062L14.9198 8.75278L15.4477 9.28062C15.5813 9.41425 15.8018 9.41425 15.9354 9.28062C16.069 9.14699 16.069 8.9265 15.9354 8.79287Z" fill="white"/>
<path id="Vector_76" d="M22.1359 8.79287L21.608 8.26503L22.1359 7.73719C22.2695 7.60356 22.2695 7.38307 22.1359 7.24944C22.0022 7.11581 21.7817 7.11581 21.6481 7.24944L21.1203 7.77728L20.5924 7.24944C20.4588 7.11581 20.2383 7.11581 20.1047 7.24944C19.971 7.38307 19.971 7.60356 20.1047 7.73719L20.6325 8.26503L20.1047 8.79287C19.971 8.9265 19.971 9.14699 20.1047 9.28062C20.2383 9.41425 20.4588 9.41425 20.5924 9.28062L21.1203 8.75278L21.6481 9.28062C21.7817 9.41425 22.0022 9.41425 22.1359 9.28062C22.2695 9.14699 22.2695 8.9265 22.1359 8.79287Z" fill="white"/>
<path id="Vector_77" d="M25.216 8.79287L24.6882 8.26503L25.216 7.73719C25.3497 7.60356 25.3497 7.38307 25.216 7.24944C25.0824 7.11581 24.8619 7.11581 24.7283 7.24944L24.2004 7.77728L23.6726 7.24944C23.539 7.11581 23.3185 7.11581 23.1849 7.24944C23.0512 7.38307 23.0512 7.60356 23.1849 7.73719L23.7127 8.26503L23.1849 8.79287C23.0512 8.9265 23.0512 9.14699 23.1849 9.28062C23.3185 9.41425 23.539 9.41425 23.6726 9.28062L24.2004 8.75278L24.7283 9.28062C24.8619 9.41425 25.0824 9.41425 25.216 9.28062C25.3497 9.14699 25.3497 8.9265 25.216 8.79287Z" fill="white"/>
<path id="Vector_78" d="M28.2962 8.79287L27.7684 8.26503L28.2962 7.73719C28.4298 7.60356 28.4298 7.38307 28.2962 7.24944C28.1626 7.11581 27.9421 7.11581 27.8085 7.24944L27.2806 7.77728L26.7528 7.24944C26.6192 7.11581 26.3987 7.11581 26.265 7.24944C26.1314 7.38307 26.1314 7.60356 26.265 7.73719L26.7929 8.26503L26.265 8.79287C26.1314 8.9265 26.1314 9.14699 26.265 9.28062C26.3987 9.41425 26.6192 9.41425 26.7528 9.28062L27.2806 8.75278L27.8085 9.28062C27.9421 9.41425 28.1626 9.41425 28.2962 9.28062C28.4298 9.14699 28.4298 8.9265 28.2962 8.79287Z" fill="white"/>
<path id="Vector_79" d="M31.2561 8.79287L30.7283 8.26503L31.2561 7.73719C31.3898 7.60356 31.3898 7.38307 31.2561 7.24944C31.1225 7.11581 30.902 7.11581 30.7684 7.24944L30.2405 7.77728L29.7127 7.24944C29.5791 7.11581 29.3586 7.11581 29.2249 7.24944C29.0913 7.38307 29.0913 7.60356 29.2249 7.73719L29.7528 8.26503L29.2249 8.79287C29.0913 8.9265 29.0913 9.14699 29.2249 9.28062C29.3586 9.41425 29.5791 9.41425 29.7127 9.28062L30.2405 8.75278L30.7684 9.28062C30.902 9.41425 31.1225 9.41425 31.2561 9.28062C31.3898 9.14699 31.3898 8.9265 31.2561 8.79287Z" fill="white"/>
<path id="Vector_80" d="M34.2294 8.79287L33.7016 8.26503L34.2294 7.73719C34.363 7.60356 34.363 7.38307 34.2294 7.24944C34.0958 7.11581 33.8753 7.11581 33.7416 7.24944L33.2138 7.77728L32.686 7.24944C32.5523 7.11581 32.3318 7.11581 32.1982 7.24944C32.0646 7.38307 32.0646 7.60356 32.1982 7.73719L32.7261 8.26503L32.1982 8.79287C32.0646 8.9265 32.0646 9.14699 32.1982 9.28062C32.3318 9.41425 32.5523 9.41425 32.686 9.28062L33.2138 8.75278L33.7416 9.28062C33.8753 9.41425 34.0958 9.41425 34.2294 9.28062C34.363 9.14699 34.363 8.9265 34.2294 8.79287Z" fill="white"/>
<path id="Vector_81" d="M19.049 11.7394L18.5212 11.2116L19.049 10.6837C19.1826 10.5501 19.1826 10.3296 19.049 10.196C18.9154 10.0624 18.6949 10.0624 18.5612 10.196L18.0334 10.7238L17.5056 10.196C17.3719 10.0624 17.1514 10.0624 17.0178 10.196C16.8842 10.3296 16.8842 10.5501 17.0178 10.6837L17.5457 11.2116L17.0178 11.7394C16.8842 11.8731 16.8842 12.0935 17.0178 12.2272C17.1514 12.3608 17.3719 12.3608 17.5056 12.2272L18.0334 11.6993L18.5612 12.2272C18.6949 12.3608 18.9154 12.3608 19.049 12.2272C19.1826 12.0935 19.1826 11.8731 19.049 11.7394Z" fill="white"/>
<path id="Vector_82" d="M15.9354 11.7394L15.4076 11.2116L15.9354 10.6837C16.069 10.5501 16.069 10.3296 15.9354 10.196C15.8018 10.0624 15.5813 10.0624 15.4477 10.196L14.9198 10.7238L14.392 10.196C14.2584 10.0624 14.0379 10.0624 13.9042 10.196C13.7706 10.3296 13.7706 10.5501 13.9042 10.6837L14.4321 11.2116L13.9042 11.7394C13.7706 11.8731 13.7706 12.0935 13.9042 12.2272C14.0379 12.3608 14.2584 12.3608 14.392 12.2272L14.9198 11.6993L15.4477 12.2272C15.5813 12.3608 15.8018 12.3608 15.9354 12.2272C16.069 12.0935 16.069 11.8731 15.9354 11.7394Z" fill="white"/>
<path id="Vector_83" d="M12.9421 11.7394L12.4143 11.2116L12.9421 10.6837C13.0757 10.5501 13.0757 10.3296 12.9421 10.196C12.8085 10.0624 12.588 10.0624 12.4543 10.196L11.9265 10.7238L11.3987 10.196C11.265 10.0624 11.0445 10.0624 10.9109 10.196C10.7773 10.3296 10.7773 10.5501 10.9109 10.6837L11.4388 11.2116L10.9109 11.7394C10.7773 11.8731 10.7773 12.0935 10.9109 12.2272C11.0445 12.3608 11.265 12.3608 11.3987 12.2272L11.9265 11.6993L12.4543 12.2272C12.588 12.3608 12.8085 12.3608 12.9421 12.2272C13.0757 12.0935 13.0757 11.8731 12.9421 11.7394Z" fill="white"/>
<path id="Vector_84" d="M22.1359 11.7394L21.608 11.2116L22.1359 10.6837C22.2695 10.5501 22.2695 10.3296 22.1359 10.196C22.0022 10.0624 21.7817 10.0624 21.6481 10.196L21.1203 10.7238L20.5924 10.196C20.4588 10.0624 20.2383 10.0624 20.1047 10.196C19.971 10.3296 19.971 10.5501 20.1047 10.6837L20.6325 11.2116L20.1047 11.7394C19.971 11.8731 19.971 12.0935 20.1047 12.2272C20.2383 12.3608 20.4588 12.3608 20.5924 12.2272L21.1203 11.6993L21.6481 12.2272C21.7817 12.3608 22.0022 12.3608 22.1359 12.2272C22.2695 12.0935 22.2695 11.8731 22.1359 11.7394Z" fill="white"/>
<path id="Vector_85" d="M25.216 11.7394L24.6882 11.2116L25.216 10.6837C25.3497 10.5501 25.3497 10.3296 25.216 10.196C25.0824 10.0624 24.8619 10.0624 24.7283 10.196L24.2004 10.7238L23.6726 10.196C23.539 10.0624 23.3185 10.0624 23.1849 10.196C23.0512 10.3296 23.0512 10.5501 23.1849 10.6837L23.7127 11.2116L23.1849 11.7394C23.0512 11.8731 23.0512 12.0935 23.1849 12.2272C23.3185 12.3608 23.539 12.3608 23.6726 12.2272L24.2004 11.6993L24.7283 12.2272C24.8619 12.3608 25.0824 12.3608 25.216 12.2272C25.3497 12.0935 25.3497 11.8731 25.216 11.7394Z" fill="white"/>
<path id="Vector_86" d="M28.2962 11.7394L27.7684 11.2116L28.2962 10.6837C28.4298 10.5501 28.4298 10.3296 28.2962 10.196C28.1626 10.0624 27.9421 10.0624 27.8085 10.196L27.2806 10.7238L26.7528 10.196C26.6192 10.0624 26.3987 10.0624 26.265 10.196C26.1314 10.3296 26.1314 10.5501 26.265 10.6837L26.7929 11.2116L26.265 11.7394C26.1314 11.8731 26.1314 12.0935 26.265 12.2272C26.3987 12.3608 26.6192 12.3608 26.7528 12.2272L27.2806 11.6993L27.8085 12.2272C27.9421 12.3608 28.1626 12.3608 28.2962 12.2272C28.4298 12.0935 28.4298 11.8731 28.2962 11.7394Z" fill="white"/>
<path id="Vector_87" d="M31.2561 11.7394L30.7283 11.2116L31.2561 10.6837C31.3898 10.5501 31.3898 10.3296 31.2561 10.196C31.1225 10.0624 30.902 10.0624 30.7684 10.196L30.2405 10.7238L29.7127 10.196C29.5791 10.0624 29.3586 10.0624 29.2249 10.196C29.0913 10.3296 29.0913 10.5501 29.2249 10.6837L29.7528 11.2116L29.2249 11.7394C29.0913 11.8731 29.0913 12.0935 29.2249 12.2272C29.3586 12.3608 29.5791 12.3608 29.7127 12.2272L30.2405 11.6993L30.7684 12.2272C30.902 12.3608 31.1225 12.3608 31.2561 12.2272C31.3898 12.0935 31.3898 11.8731 31.2561 11.7394Z" fill="white"/>
<path id="Vector_88" d="M34.2294 11.7394L33.7016 11.2116L34.2294 10.6837C34.363 10.5501 34.363 10.3296 34.2294 10.196C34.0958 10.0624 33.8753 10.0624 33.7416 10.196L33.2138 10.7238L32.686 10.196C32.5523 10.0624 32.3318 10.0624 32.1982 10.196C32.0646 10.3296 32.0646 10.5501 32.1982 10.6837L32.7261 11.2116L32.1982 11.7394C32.0646 11.8731 32.0646 12.0935 32.1982 12.2272C32.3318 12.3608 32.5523 12.3608 32.686 12.2272L33.2138 11.6993L33.7416 12.2272C33.8753 12.3608 34.0958 12.3608 34.2294 12.2272C34.363 12.0935 34.363 11.8731 34.2294 11.7394Z" fill="white"/>
<path id="Vector_89" d="M37.3229 11.7394L36.7951 11.2116L37.3229 10.6837C37.4566 10.5501 37.4566 10.3296 37.3229 10.196C37.1893 10.0624 36.9688 10.0624 36.8352 10.196L36.3073 10.7238L35.7795 10.196C35.6459 10.0624 35.4254 10.0624 35.2918 10.196C35.1581 10.3296 35.1581 10.5501 35.2918 10.6837L35.8196 11.2116L35.2918 11.7394C35.1581 11.8731 35.1581 12.0935 35.2918 12.2272C35.4254 12.3608 35.6459 12.3608 35.7795 12.2272L36.3073 11.6993L36.8352 12.2272C36.9688 12.3608 37.1893 12.3608 37.3229 12.2272C37.4566 12.0935 37.4566 11.8731 37.3229 11.7394Z" fill="white"/>
<path id="Vector_90" d="M19.049 14.7127L18.5212 14.1849L19.049 13.657C19.1826 13.5234 19.1826 13.3029 19.049 13.1693C18.9154 13.0356 18.6949 13.0356 18.5612 13.1693L18.0334 13.6971L17.5056 13.1693C17.3719 13.0356 17.1514 13.0356 17.0178 13.1693C16.8842 13.3029 16.8842 13.5234 17.0178 13.657L17.5457 14.1849L17.0178 14.7127C16.8842 14.8463 16.8842 15.0668 17.0178 15.2004C17.1514 15.3341 17.3719 15.3341 17.5056 15.2004L18.0334 14.6726L18.5612 15.2004C18.6949 15.3341 18.9154 15.3341 19.049 15.2004C19.1826 15.0668 19.1826 14.8463 19.049 14.7127Z" fill="white"/>
<path id="Vector_91" d="M15.9354 14.7127L15.4076 14.1849L15.9354 13.657C16.069 13.5234 16.069 13.3029 15.9354 13.1693C15.8018 13.0356 15.5813 13.0356 15.4477 13.1693L14.9198 13.6971L14.392 13.1693C14.2584 13.0356 14.0379 13.0356 13.9042 13.1693C13.7706 13.3029 13.7706 13.5234 13.9042 13.657L14.4321 14.1849L13.9042 14.7127C13.7706 14.8463 13.7706 15.0668 13.9042 15.2004C14.0379 15.3341 14.2584 15.3341 14.392 15.2004L14.9198 14.6726L15.4477 15.2004C15.5813 15.3341 15.8018 15.3341 15.9354 15.2004C16.069 15.0668 16.069 14.8463 15.9354 14.7127Z" fill="white"/>
<path id="Vector_92" d="M12.9421 14.7127L12.4143 14.1849L12.9421 13.657C13.0757 13.5234 13.0757 13.3029 12.9421 13.1693C12.8085 13.0356 12.588 13.0356 12.4543 13.1693L11.9265 13.6971L11.3987 13.1693C11.265 13.0356 11.0445 13.0356 10.9109 13.1693C10.7773 13.3029 10.7773 13.5234 10.9109 13.657L11.4388 14.1849L10.9109 14.7127C10.7773 14.8463 10.7773 15.0668 10.9109 15.2004C11.0445 15.3341 11.265 15.3341 11.3987 15.2004L11.9265 14.6726L12.4543 15.2004C12.588 15.3341 12.8085 15.3341 12.9421 15.2004C13.0757 15.0668 13.0757 14.8463 12.9421 14.7127Z" fill="white"/>
<path id="Vector_93" d="M9.92205 14.7127L9.39421 14.1849L9.92205 13.657C10.0557 13.5234 10.0557 13.3029 9.92205 13.1693C9.78842 13.0356 9.56793 13.0356 9.4343 13.1693L8.90646 13.6971L8.37862 13.1693C8.24499 13.0356 8.0245 13.0356 7.89087 13.1693C7.75724 13.3029 7.75724 13.5234 7.89087 13.657L8.41871 14.1849L7.89087 14.7127C7.75724 14.8463 7.75724 15.0668 7.89087 15.2004C8.0245 15.3341 8.24499 15.3341 8.37862 15.2004L8.90646 14.6726L9.4343 15.2004C9.56793 15.3341 9.78842 15.3341 9.92205 15.2004C10.0557 15.0668 10.0557 14.8463 9.92205 14.7127Z" fill="white"/>
<path id="Vector_94" d="M22.1359 14.7127L21.608 14.1849L22.1359 13.657C22.2695 13.5234 22.2695 13.3029 22.1359 13.1693C22.0022 13.0356 21.7817 13.0356 21.6481 13.1693L21.1203 13.6971L20.5924 13.1693C20.4588 13.0356 20.2383 13.0356 20.1047 13.1693C19.971 13.3029 19.971 13.5234 20.1047 13.657L20.6325 14.1849L20.1047 14.7127C19.971 14.8463 19.971 15.0668 20.1047 15.2004C20.2383 15.3341 20.4588 15.3341 20.5924 15.2004L21.1203 14.6726L21.6481 15.2004C21.7817 15.3341 22.0022 15.3341 22.1359 15.2004C22.2695 15.0668 22.2695 14.8463 22.1359 14.7127Z" fill="white"/>
<path id="Vector_95" d="M25.216 14.7127L24.6882 14.1849L25.216 13.657C25.3497 13.5234 25.3497 13.3029 25.216 13.1693C25.0824 13.0356 24.8619 13.0356 24.7283 13.1693L24.2004 13.6971L23.6726 13.1693C23.539 13.0356 23.3185 13.0356 23.1849 13.1693C23.0512 13.3029 23.0512 13.5234 23.1849 13.657L23.7127 14.1849L23.1849 14.7127C23.0512 14.8463 23.0512 15.0668 23.1849 15.2004C23.3185 15.3341 23.539 15.3341 23.6726 15.2004L24.2004 14.6726L24.7283 15.2004C24.8619 15.3341 25.0824 15.3341 25.216 15.2004C25.3497 15.0668 25.3497 14.8463 25.216 14.7127Z" fill="white"/>
<path id="Vector_96" d="M28.2962 14.7127L27.7684 14.1849L28.2962 13.657C28.4298 13.5234 28.4298 13.3029 28.2962 13.1693C28.1626 13.0356 27.9421 13.0356 27.8085 13.1693L27.2806 13.6971L26.7528 13.1693C26.6192 13.0356 26.3987 13.0356 26.265 13.1693C26.1314 13.3029 26.1314 13.5234 26.265 13.657L26.7929 14.1849L26.265 14.7127C26.1314 14.8463 26.1314 15.0668 26.265 15.2004C26.3987 15.3341 26.6192 15.3341 26.7528 15.2004L27.2806 14.6726L27.8085 15.2004C27.9421 15.3341 28.1626 15.3341 28.2962 15.2004C28.4298 15.0668 28.4298 14.8463 28.2962 14.7127Z" fill="white"/>
<path id="Vector_97" d="M31.2561 14.7127L30.7283 14.1849L31.2561 13.657C31.3898 13.5234 31.3898 13.3029 31.2561 13.1693C31.1225 13.0356 30.902 13.0356 30.7684 13.1693L30.2405 13.6971L29.7127 13.1693C29.5791 13.0356 29.3586 13.0356 29.2249 13.1693C29.0913 13.3029 29.0913 13.5234 29.2249 13.657L29.7528 14.1849L29.2249 14.7127C29.0913 14.8463 29.0913 15.0668 29.2249 15.2004C29.3586 15.3341 29.5791 15.3341 29.7127 15.2004L30.2405 14.6726L30.7684 15.2004C30.902 15.3341 31.1225 15.3341 31.2561 15.2004C31.3898 15.0668 31.3898 14.8463 31.2561 14.7127Z" fill="white"/>
<path id="Vector_98" d="M34.2294 14.7127L33.7016 14.1849L34.2294 13.657C34.363 13.5234 34.363 13.3029 34.2294 13.1693C34.0958 13.0356 33.8753 13.0356 33.7416 13.1693L33.2138 13.6971L32.686 13.1693C32.5523 13.0356 32.3318 13.0356 32.1982 13.1693C32.0646 13.3029 32.0646 13.5234 32.1982 13.657L32.7261 14.1849L32.1982 14.7127C32.0646 14.8463 32.0646 15.0668 32.1982 15.2004C32.3318 15.3341 32.5523 15.3341 32.686 15.2004L33.2138 14.6726L33.7416 15.2004C33.8753 15.3341 34.0958 15.3341 34.2294 15.2004C34.363 15.0668 34.363 14.8463 34.2294 14.7127Z" fill="white"/>
<path id="Vector_99" d="M37.3229 14.7127L36.7951 14.1849L37.3229 13.657C37.4566 13.5234 37.4566 13.3029 37.3229 13.1693C37.1893 13.0356 36.9688 13.0356 36.8352 13.1693L36.3073 13.6971L35.7795 13.1693C35.6459 13.0356 35.4254 13.0356 35.2918 13.1693C35.1581 13.3029 35.1581 13.5234 35.2918 13.657L35.8196 14.1849L35.2918 14.7127C35.1581 14.8463 35.1581 15.0668 35.2918 15.2004C35.4254 15.3341 35.6459 15.3341 35.7795 15.2004L36.3073 14.6726L36.8352 15.2004C36.9688 15.3341 37.1893 15.3341 37.3229 15.2004C37.4566 15.0668 37.4566 14.8463 37.3229 14.7127Z" fill="white"/>
<path id="Vector_100" d="M40.4633 14.7127L39.9354 14.1849L40.4633 13.657C40.5969 13.5234 40.5969 13.3029 40.4633 13.1693C40.3296 13.0356 40.1091 13.0356 39.9755 13.1693L39.4477 13.6971L38.9198 13.1693C38.7862 13.0356 38.5657 13.0356 38.4321 13.1693C38.2984 13.3029 38.2984 13.5234 38.4321 13.657L38.9599 14.1849L38.4321 14.7127C38.2984 14.8463 38.2984 15.0668 38.4321 15.2004C38.5657 15.3341 38.7862 15.3341 38.9198 15.2004L39.4477 14.6726L39.9755 15.2004C40.1091 15.3341 40.3296 15.3341 40.4633 15.2004C40.5969 15.0668 40.5969 14.8463 40.4633 14.7127Z" fill="white"/>
<path id="Vector_101" d="M29.3051 43.1693L29.833 43.6971L29.3051 44.2249C29.1715 44.3586 29.1715 44.5791 29.3051 44.7127C29.4388 44.8463 29.6592 44.8463 29.7929 44.7127L30.3207 44.1849L30.8486 44.7127C30.9822 44.8463 31.2027 44.8463 31.3363 44.7127C31.4699 44.5791 31.4699 44.3586 31.3363 44.2249L30.8085 43.6971L31.3363 43.1693C31.4699 43.0356 31.4699 42.8151 31.3363 42.6815C31.2027 42.5479 30.9822 42.5479 30.8486 42.6815L30.3207 43.2094L29.7929 42.6815C29.6592 42.5479 29.4388 42.5479 29.3051 42.6815C29.1715 42.8151 29.1715 43.0356 29.3051 43.1693Z" fill="white"/>
<path id="Vector_102" d="M26.2249 43.1693L26.7528 43.6971L26.2249 44.2249C26.0913 44.3586 26.0913 44.5791 26.2249 44.7127C26.3586 44.8463 26.5791 44.8463 26.7127 44.7127L27.2405 44.1849L27.7684 44.7127C27.902 44.8463 28.1225 44.8463 28.2561 44.7127C28.3898 44.5791 28.3898 44.3586 28.2561 44.2249L27.7283 43.6971L28.2561 43.1693C28.3898 43.0356 28.3898 42.8151 28.2561 42.6815C28.1225 42.5479 27.902 42.5479 27.7684 42.6815L27.2405 43.2094L26.7127 42.6815C26.5791 42.5479 26.3586 42.5479 26.2249 42.6815C26.0913 42.8151 26.0913 43.0356 26.2249 43.1693Z" fill="white"/>
<path id="Vector_103" d="M23.1448 43.1693L23.6726 43.6971L23.1448 44.2249C23.0111 44.3586 23.0111 44.5791 23.1448 44.7127C23.2784 44.8463 23.4989 44.8463 23.6325 44.7127L24.1604 44.1849L24.6882 44.7127C24.8218 44.8463 25.0423 44.8463 25.1759 44.7127C25.3096 44.5791 25.3096 44.3586 25.1759 44.2249L24.6481 43.6971L25.1759 43.1693C25.3096 43.0356 25.3096 42.8151 25.1759 42.6815C25.0423 42.5479 24.8218 42.5479 24.6882 42.6815L24.1604 43.2094L23.6325 42.6815C23.4989 42.5479 23.2784 42.5479 23.1448 42.6815C23.0111 42.8151 23.0111 43.0356 23.1448 43.1693Z" fill="white"/>
<path id="Vector_104" d="M20.0579 43.1693L20.5857 43.6971L20.0579 44.2249C19.9243 44.3586 19.9243 44.5791 20.0579 44.7127C20.1915 44.8463 20.412 44.8463 20.5457 44.7127L21.0735 44.1849L21.6013 44.7127C21.735 44.8463 21.9555 44.8463 22.0891 44.7127C22.2227 44.5791 22.2227 44.3586 22.0891 44.2249L21.5613 43.6971L22.0891 43.1693C22.2227 43.0356 22.2227 42.8151 22.0891 42.6815C21.9555 42.5479 21.735 42.5479 21.6013 42.6815L21.0735 43.2094L20.5457 42.6815C20.412 42.5479 20.1915 42.5479 20.0579 42.6815C19.9243 42.8151 19.9243 43.0356 20.0579 43.1693Z" fill="white"/>
<path id="Vector_105" d="M17.098 43.1693L17.6258 43.6971L17.098 44.2249C16.9644 44.3586 16.9644 44.5791 17.098 44.7127C17.2316 44.8463 17.4521 44.8463 17.5857 44.7127L18.1136 44.1849L18.6414 44.7127C18.7751 44.8463 18.9955 44.8463 19.1292 44.7127C19.2628 44.5791 19.2628 44.3586 19.1292 44.2249L18.6013 43.6971L19.1292 43.1693C19.2628 43.0356 19.2628 42.8151 19.1292 42.6815C18.9955 42.5479 18.7751 42.5479 18.6414 42.6815L18.1136 43.2094L17.5857 42.6815C17.4521 42.5479 17.2316 42.5479 17.098 42.6815C16.9644 42.8151 16.9644 43.0356 17.098 43.1693Z" fill="white"/>
<path id="Vector_106" d="M29.3051 40.1559L29.833 40.6837L29.3051 41.2116C29.1715 41.3452 29.1715 41.5657 29.3051 41.6993C29.4388 41.833 29.6592 41.833 29.7929 41.6993L30.3207 41.1715L30.8486 41.6993C30.9822 41.833 31.2027 41.833 31.3363 41.6993C31.4699 41.5657 31.4699 41.3452 31.3363 41.2116L30.8085 40.6837L31.3363 40.1559C31.4699 40.0223 31.4699 39.8018 31.3363 39.6682C31.2027 39.5345 30.9822 39.5345 30.8486 39.6682L30.3207 40.196L29.7929 39.6682C29.6592 39.5345 29.4388 39.5345 29.3051 39.6682C29.1715 39.8018 29.1715 40.0223 29.3051 40.1559Z" fill="white"/>
<path id="Vector_107" d="M32.4254 40.1559L32.9532 40.6837L32.4254 41.2116C32.2918 41.3452 32.2918 41.5657 32.4254 41.6993C32.559 41.833 32.7795 41.833 32.9131 41.6993L33.441 41.1715L33.9688 41.6993C34.1024 41.833 34.3229 41.833 34.4566 41.6993C34.5902 41.5657 34.5902 41.3452 34.4566 41.2116L33.9287 40.6837L34.4566 40.1559C34.5902 40.0223 34.5902 39.8018 34.4566 39.6682C34.3229 39.5345 34.1024 39.5345 33.9688 39.6682L33.441 40.196L32.9131 39.6682C32.7795 39.5345 32.559 39.5345 32.4254 39.6682C32.2918 39.8018 32.2918 40.0223 32.4254 40.1559Z" fill="white"/>
<path id="Vector_108" d="M26.2249 40.1559L26.7528 40.6837L26.2249 41.2116C26.0913 41.3452 26.0913 41.5657 26.2249 41.6993C26.3586 41.833 26.5791 41.833 26.7127 41.6993L27.2405 41.1715L27.7684 41.6993C27.902 41.833 28.1225 41.833 28.2561 41.6993C28.3898 41.5657 28.3898 41.3452 28.2561 41.2116L27.7283 40.6837L28.2561 40.1559C28.3898 40.0223 28.3898 39.8018 28.2561 39.6682C28.1225 39.5345 27.902 39.5345 27.7684 39.6682L27.2405 40.196L26.7127 39.6682C26.5791 39.5345 26.3586 39.5345 26.2249 39.6682C26.0913 39.8018 26.0913 40.0223 26.2249 40.1559Z" fill="white"/>
<path id="Vector_109" d="M23.1448 40.1559L23.6726 40.6837L23.1448 41.2116C23.0111 41.3452 23.0111 41.5657 23.1448 41.6993C23.2784 41.833 23.4989 41.833 23.6325 41.6993L24.1604 41.1715L24.6882 41.6993C24.8218 41.833 25.0423 41.833 25.1759 41.6993C25.3096 41.5657 25.3096 41.3452 25.1759 41.2116L24.6481 40.6837L25.1759 40.1559C25.3096 40.0223 25.3096 39.8018 25.1759 39.6682C25.0423 39.5345 24.8218 39.5345 24.6882 39.6682L24.1604 40.196L23.6325 39.6682C23.4989 39.5345 23.2784 39.5345 23.1448 39.6682C23.0111 39.8018 23.0111 40.0223 23.1448 40.1559Z" fill="white"/>
<path id="Vector_110" d="M20.0579 40.1559L20.5857 40.6837L20.0579 41.2116C19.9243 41.3452 19.9243 41.5657 20.0579 41.6993C20.1915 41.833 20.412 41.833 20.5457 41.6993L21.0735 41.1715L21.6013 41.6993C21.735 41.833 21.9555 41.833 22.0891 41.6993C22.2227 41.5657 22.2227 41.3452 22.0891 41.2116L21.5613 40.6837L22.0891 40.1559C22.2227 40.0223 22.2227 39.8018 22.0891 39.6682C21.9555 39.5345 21.735 39.5345 21.6013 39.6682L21.0735 40.196L20.5457 39.6682C20.412 39.5345 20.1915 39.5345 20.0579 39.6682C19.9243 39.8018 19.9243 40.0223 20.0579 40.1559Z" fill="white"/>
<path id="Vector_111" d="M17.098 40.1559L17.6258 40.6837L17.098 41.2116C16.9644 41.3452 16.9644 41.5657 17.098 41.6993C17.2316 41.833 17.4521 41.833 17.5857 41.6993L18.1136 41.1715L18.6414 41.6993C18.7751 41.833 18.9955 41.833 19.1292 41.6993C19.2628 41.5657 19.2628 41.3452 19.1292 41.2116L18.6013 40.6837L19.1292 40.1559C19.2628 40.0223 19.2628 39.8018 19.1292 39.6682C18.9955 39.5345 18.7751 39.5345 18.6414 39.6682L18.1136 40.196L17.5857 39.6682C17.4521 39.5345 17.2316 39.5345 17.098 39.6682C16.9644 39.8018 16.9644 40.0223 17.098 40.1559Z" fill="white"/>
<path id="Vector_112" d="M14.1314 40.1559L14.6592 40.6837L14.1314 41.2116C13.9978 41.3452 13.9978 41.5657 14.1314 41.6993C14.265 41.833 14.4855 41.833 14.6192 41.6993L15.147 41.1715L15.6748 41.6993C15.8085 41.833 16.029 41.833 16.1626 41.6993C16.2962 41.5657 16.2962 41.3452 16.1626 41.2116L15.6347 40.6837L16.1626 40.1559C16.2962 40.0223 16.2962 39.8018 16.1626 39.6682C16.029 39.5345 15.8085 39.5345 15.6748 39.6682L15.147 40.196L14.6192 39.6682C14.4855 39.5345 14.265 39.5345 14.1314 39.6682C13.9978 39.8018 13.9978 40.0223 14.1314 40.1559Z" fill="white"/>
<path id="Vector_113" d="M29.3051 37.2094L29.833 37.7372L29.3051 38.265C29.1715 38.3987 29.1715 38.6192 29.3051 38.7528C29.4388 38.8864 29.6592 38.8864 29.7929 38.7528L30.3207 38.2249L30.8486 38.7528C30.9822 38.8864 31.2027 38.8864 31.3363 38.7528C31.4699 38.6192 31.4699 38.3987 31.3363 38.265L30.8085 37.7372L31.3363 37.2094C31.4699 37.0757 31.4699 36.8552 31.3363 36.7216C31.2027 36.588 30.9822 36.588 30.8486 36.7216L30.3207 37.2494L29.7929 36.7216C29.6592 36.588 29.4388 36.588 29.3051 36.7216C29.1715 36.8552 29.1715 37.0757 29.3051 37.2094Z" fill="white"/>
<path id="Vector_114" d="M32.4254 37.2094L32.9532 37.7372L32.4254 38.265C32.2918 38.3987 32.2918 38.6192 32.4254 38.7528C32.559 38.8864 32.7795 38.8864 32.9131 38.7528L33.441 38.2249L33.9688 38.7528C34.1024 38.8864 34.3229 38.8864 34.4566 38.7528C34.5902 38.6192 34.5902 38.3987 34.4566 38.265L33.9287 37.7372L34.4566 37.2094C34.5902 37.0757 34.5902 36.8552 34.4566 36.7216C34.3229 36.588 34.1024 36.588 33.9688 36.7216L33.441 37.2494L32.9131 36.7216C32.7795 36.588 32.559 36.588 32.4254 36.7216C32.2918 36.8552 32.2918 37.0757 32.4254 37.2094Z" fill="white"/>
<path id="Vector_115" d="M35.412 37.2094L35.9399 37.7372L35.412 38.265C35.2784 38.3987 35.2784 38.6192 35.412 38.7528C35.5457 38.8864 35.7661 38.8864 35.8998 38.7528L36.4276 38.2249L36.9555 38.7528C37.0891 38.8864 37.3096 38.8864 37.4432 38.7528C37.5768 38.6192 37.5768 38.3987 37.4432 38.265L36.9154 37.7372L37.4432 37.2094C37.5768 37.0757 37.5768 36.8552 37.4432 36.7216C37.3096 36.588 37.0891 36.588 36.9555 36.7216L36.4276 37.2494L35.8998 36.7216C35.7661 36.588 35.5457 36.588 35.412 36.7216C35.2784 36.8552 35.2784 37.0757 35.412 37.2094Z" fill="white"/>
<path id="Vector_116" d="M26.2249 37.2094L26.7528 37.7372L26.2249 38.265C26.0913 38.3987 26.0913 38.6192 26.2249 38.7528C26.3586 38.8864 26.5791 38.8864 26.7127 38.7528L27.2405 38.2249L27.7684 38.7528C27.902 38.8864 28.1225 38.8864 28.2561 38.7528C28.3898 38.6192 28.3898 38.3987 28.2561 38.265L27.7283 37.7372L28.2561 37.2094C28.3898 37.0757 28.3898 36.8552 28.2561 36.7216C28.1225 36.588 27.902 36.588 27.7684 36.7216L27.2405 37.2494L26.7127 36.7216C26.5791 36.588 26.3586 36.588 26.2249 36.7216C26.0913 36.8552 26.0913 37.0757 26.2249 37.2094Z" fill="white"/>
<path id="Vector_117" d="M23.1448 37.2094L23.6726 37.7372L23.1448 38.265C23.0111 38.3987 23.0111 38.6192 23.1448 38.7528C23.2784 38.8864 23.4989 38.8864 23.6325 38.7528L24.1604 38.2249L24.6882 38.7528C24.8218 38.8864 25.0423 38.8864 25.1759 38.7528C25.3096 38.6192 25.3096 38.3987 25.1759 38.265L24.6481 37.7372L25.1759 37.2094C25.3096 37.0757 25.3096 36.8552 25.1759 36.7216C25.0423 36.588 24.8218 36.588 24.6882 36.7216L24.1604 37.2494L23.6325 36.7216C23.4989 36.588 23.2784 36.588 23.1448 36.7216C23.0111 36.8552 23.0111 37.0757 23.1448 37.2094Z" fill="white"/>
<path id="Vector_118" d="M20.0579 37.2094L20.5857 37.7372L20.0579 38.265C19.9243 38.3987 19.9243 38.6192 20.0579 38.7528C20.1915 38.8864 20.412 38.8864 20.5457 38.7528L21.0735 38.2249L21.6013 38.7528C21.735 38.8864 21.9555 38.8864 22.0891 38.7528C22.2227 38.6192 22.2227 38.3987 22.0891 38.265L21.5613 37.7372L22.0891 37.2094C22.2227 37.0757 22.2227 36.8552 22.0891 36.7216C21.9555 36.588 21.735 36.588 21.6013 36.7216L21.0735 37.2494L20.5457 36.7216C20.412 36.588 20.1915 36.588 20.0579 36.7216C19.9243 36.8552 19.9243 37.0757 20.0579 37.2094Z" fill="white"/>
<path id="Vector_119" d="M17.098 37.2094L17.6258 37.7372L17.098 38.265C16.9644 38.3987 16.9644 38.6192 17.098 38.7528C17.2316 38.8864 17.4521 38.8864 17.5857 38.7528L18.1136 38.2249L18.6414 38.7528C18.7751 38.8864 18.9955 38.8864 19.1292 38.7528C19.2628 38.6192 19.2628 38.3987 19.1292 38.265L18.6013 37.7372L19.1292 37.2094C19.2628 37.0757 19.2628 36.8552 19.1292 36.7216C18.9955 36.588 18.7751 36.588 18.6414 36.7216L18.1136 37.2494L17.5857 36.7216C17.4521 36.588 17.2316 36.588 17.098 36.7216C16.9644 36.8552 16.9644 37.0757 17.098 37.2094Z" fill="white"/>
<path id="Vector_120" d="M14.1314 37.2094L14.6592 37.7372L14.1314 38.265C13.9978 38.3987 13.9978 38.6192 14.1314 38.7528C14.265 38.8864 14.4855 38.8864 14.6192 38.7528L15.147 38.2249L15.6748 38.7528C15.8085 38.8864 16.029 38.8864 16.1626 38.7528C16.2962 38.6192 16.2962 38.3987 16.1626 38.265L15.6347 37.7372L16.1626 37.2094C16.2962 37.0757 16.2962 36.8552 16.1626 36.7216C16.029 36.588 15.8085 36.588 15.6748 36.7216L15.147 37.2494L14.6192 36.7216C14.4855 36.588 14.265 36.588 14.1314 36.7216C13.9978 36.8552 13.9978 37.0757 14.1314 37.2094Z" fill="white"/>
<path id="Vector_121" d="M11.0312 37.2094L11.559 37.7372L11.0312 38.265C10.8976 38.3987 10.8976 38.6192 11.0312 38.7528C11.1648 38.8864 11.3853 38.8864 11.5189 38.7528L12.0468 38.2249L12.5746 38.7528C12.7082 38.8864 12.9287 38.8864 13.0624 38.7528C13.196 38.6192 13.196 38.3987 13.0624 38.265L12.5345 37.7372L13.0624 37.2094C13.196 37.0757 13.196 36.8552 13.0624 36.7216C12.9287 36.588 12.7082 36.588 12.5746 36.7216L12.0468 37.2494L11.5189 36.7216C11.3853 36.588 11.1648 36.588 11.0312 36.7216C10.8976 36.8552 10.8976 37.0757 11.0312 37.2094Z" fill="white"/>
<path id="Vector_122" d="M29.3051 34.2361L29.833 34.7639L29.3051 35.2918C29.1715 35.4254 29.1715 35.6459 29.3051 35.7795C29.4388 35.9131 29.6592 35.9131 29.7929 35.7795L30.3207 35.2517L30.8486 35.7795C30.9822 35.9131 31.2027 35.9131 31.3363 35.7795C31.4699 35.6459 31.4699 35.4254 31.3363 35.2918L30.8085 34.7639L31.3363 34.2361C31.4699 34.1025 31.4699 33.882 31.3363 33.7483C31.2027 33.6147 30.9822 33.6147 30.8486 33.7483L30.3207 34.2762L29.7929 33.7483C29.6592 33.6147 29.4388 33.6147 29.3051 33.7483C29.1715 33.882 29.1715 34.1025 29.3051 34.2361Z" fill="white"/>
<path id="Vector_123" d="M32.4254 34.2361L32.9532 34.7639L32.4254 35.2918C32.2918 35.4254 32.2918 35.6459 32.4254 35.7795C32.559 35.9131 32.7795 35.9131 32.9131 35.7795L33.441 35.2517L33.9688 35.7795C34.1024 35.9131 34.3229 35.9131 34.4566 35.7795C34.5902 35.6459 34.5902 35.4254 34.4566 35.2918L33.9287 34.7639L34.4566 34.2361C34.5902 34.1025 34.5902 33.882 34.4566 33.7483C34.3229 33.6147 34.1024 33.6147 33.9688 33.7483L33.441 34.2762L32.9131 33.7483C32.7795 33.6147 32.559 33.6147 32.4254 33.7483C32.2918 33.882 32.2918 34.1025 32.4254 34.2361Z" fill="white"/>
<path id="Vector_124" d="M35.412 34.2361L35.9399 34.7639L35.412 35.2918C35.2784 35.4254 35.2784 35.6459 35.412 35.7795C35.5457 35.9131 35.7661 35.9131 35.8998 35.7795L36.4276 35.2517L36.9555 35.7795C37.0891 35.9131 37.3096 35.9131 37.4432 35.7795C37.5768 35.6459 37.5768 35.4254 37.4432 35.2918L36.9154 34.7639L37.4432 34.2361C37.5768 34.1025 37.5768 33.882 37.4432 33.7483C37.3096 33.6147 37.0891 33.6147 36.9555 33.7483L36.4276 34.2762L35.8998 33.7483C35.7661 33.6147 35.5457 33.6147 35.412 33.7483C35.2784 33.882 35.2784 34.1025 35.412 34.2361Z" fill="white"/>
<path id="Vector_125" d="M38.4388 34.2361L38.9666 34.7639L38.4388 35.2918C38.3051 35.4254 38.3051 35.6459 38.4388 35.7795C38.5724 35.9131 38.7929 35.9131 38.9265 35.7795L39.4543 35.2517L39.9822 35.7795C40.1158 35.9131 40.3363 35.9131 40.4699 35.7795C40.6036 35.6459 40.6036 35.4254 40.4699 35.2918L39.9421 34.7639L40.4699 34.2361C40.6036 34.1025 40.6036 33.882 40.4699 33.7483C40.3363 33.6147 40.1158 33.6147 39.9822 33.7483L39.4543 34.2762L38.9265 33.7483C38.7929 33.6147 38.5724 33.6147 38.4388 33.7483C38.3051 33.882 38.3051 34.1025 38.4388 34.2361Z" fill="white"/>
<path id="Vector_126" d="M26.2249 34.2361L26.7528 34.7639L26.2249 35.2918C26.0913 35.4254 26.0913 35.6459 26.2249 35.7795C26.3586 35.9131 26.5791 35.9131 26.7127 35.7795L27.2405 35.2517L27.7684 35.7795C27.902 35.9131 28.1225 35.9131 28.2561 35.7795C28.3898 35.6459 28.3898 35.4254 28.2561 35.2918L27.7283 34.7639L28.2561 34.2361C28.3898 34.1025 28.3898 33.882 28.2561 33.7483C28.1225 33.6147 27.902 33.6147 27.7684 33.7483L27.2405 34.2762L26.7127 33.7483C26.5791 33.6147 26.3586 33.6147 26.2249 33.7483C26.0913 33.882 26.0913 34.1025 26.2249 34.2361Z" fill="white"/>
<path id="Vector_127" d="M23.1448 34.2361L23.6726 34.7639L23.1448 35.2918C23.0111 35.4254 23.0111 35.6459 23.1448 35.7795C23.2784 35.9131 23.4989 35.9131 23.6325 35.7795L24.1604 35.2517L24.6882 35.7795C24.8218 35.9131 25.0423 35.9131 25.1759 35.7795C25.3096 35.6459 25.3096 35.4254 25.1759 35.2918L24.6481 34.7639L25.1759 34.2361C25.3096 34.1025 25.3096 33.882 25.1759 33.7483C25.0423 33.6147 24.8218 33.6147 24.6882 33.7483L24.1604 34.2762L23.6325 33.7483C23.4989 33.6147 23.2784 33.6147 23.1448 33.7483C23.0111 33.882 23.0111 34.1025 23.1448 34.2361Z" fill="white"/>
<path id="Vector_128" d="M20.0579 34.2361L20.5857 34.7639L20.0579 35.2918C19.9243 35.4254 19.9243 35.6459 20.0579 35.7795C20.1915 35.9131 20.412 35.9131 20.5457 35.7795L21.0735 35.2517L21.6013 35.7795C21.735 35.9131 21.9555 35.9131 22.0891 35.7795C22.2227 35.6459 22.2227 35.4254 22.0891 35.2918L21.5613 34.7639L22.0891 34.2361C22.2227 34.1025 22.2227 33.882 22.0891 33.7483C21.9555 33.6147 21.735 33.6147 21.6013 33.7483L21.0735 34.2762L20.5457 33.7483C20.412 33.6147 20.1915 33.6147 20.0579 33.7483C19.9243 33.882 19.9243 34.1025 20.0579 34.2361Z" fill="white"/>
<path id="Vector_129" d="M17.098 34.2361L17.6258 34.7639L17.098 35.2918C16.9644 35.4254 16.9644 35.6459 17.098 35.7795C17.2316 35.9131 17.4521 35.9131 17.5857 35.7795L18.1136 35.2517L18.6414 35.7795C18.7751 35.9131 18.9955 35.9131 19.1292 35.7795C19.2628 35.6459 19.2628 35.4254 19.1292 35.2918L18.6013 34.7639L19.1292 34.2361C19.2628 34.1025 19.2628 33.882 19.1292 33.7483C18.9955 33.6147 18.7751 33.6147 18.6414 33.7483L18.1136 34.2762L17.5857 33.7483C17.4521 33.6147 17.2316 33.6147 17.098 33.7483C16.9644 33.882 16.9644 34.1025 17.098 34.2361Z" fill="white"/>
<path id="Vector_130" d="M14.1314 34.2361L14.6592 34.7639L14.1314 35.2918C13.9978 35.4254 13.9978 35.6459 14.1314 35.7795C14.265 35.9131 14.4855 35.9131 14.6192 35.7795L15.147 35.2517L15.6748 35.7795C15.8085 35.9131 16.029 35.9131 16.1626 35.7795C16.2962 35.6459 16.2962 35.4254 16.1626 35.2918L15.6347 34.7639L16.1626 34.2361C16.2962 34.1025 16.2962 33.882 16.1626 33.7483C16.029 33.6147 15.8085 33.6147 15.6748 33.7483L15.147 34.2762L14.6192 33.7483C14.4855 33.6147 14.265 33.6147 14.1314 33.7483C13.9978 33.882 13.9978 34.1025 14.1314 34.2361Z" fill="white"/>
<path id="Vector_131" d="M11.0312 34.2361L11.559 34.7639L11.0312 35.2918C10.8976 35.4254 10.8976 35.6459 11.0312 35.7795C11.1648 35.9131 11.3853 35.9131 11.5189 35.7795L12.0468 35.2517L12.5746 35.7795C12.7082 35.9131 12.9287 35.9131 13.0624 35.7795C13.196 35.6459 13.196 35.4254 13.0624 35.2918L12.5345 34.7639L13.0624 34.2361C13.196 34.1025 13.196 33.882 13.0624 33.7483C12.9287 33.6147 12.7082 33.6147 12.5746 33.7483L12.0468 34.2762L11.5189 33.7483C11.3853 33.6147 11.1648 33.6147 11.0312 33.7483C10.8976 33.882 10.8976 34.1025 11.0312 34.2361Z" fill="white"/>
<path id="Vector_132" d="M7.89087 34.2361L8.41871 34.7639L7.89087 35.2918C7.75724 35.4254 7.75724 35.6459 7.89087 35.7795C8.0245 35.9131 8.24499 35.9131 8.37862 35.7795L8.90646 35.2517L9.4343 35.7795C9.56793 35.9131 9.78842 35.9131 9.92205 35.7795C10.0557 35.6459 10.0557 35.4254 9.92205 35.2918L9.39421 34.7639L9.92205 34.2361C10.0557 34.1025 10.0557 33.882 9.92205 33.7483C9.78842 33.6147 9.56793 33.6147 9.4343 33.7483L8.90646 34.2762L8.37862 33.7483C8.24499 33.6147 8.0245 33.6147 7.89087 33.7483C7.75724 33.882 7.75724 34.1025 7.89087 34.2361Z" fill="white"/>
<path id="Vector_133" d="M19.049 17.5924L18.5212 17.0646L19.049 16.5367C19.1826 16.4031 19.1826 16.1826 19.049 16.049C18.9154 15.9154 18.6949 15.9154 18.5612 16.049L18.0334 16.5768L17.5056 16.049C17.3719 15.9154 17.1514 15.9154 17.0178 16.049C16.8842 16.1826 16.8842 16.4031 17.0178 16.5367L17.5457 17.0646L17.0178 17.5924C16.8842 17.7261 16.8842 17.9465 17.0178 18.0802C17.1514 18.2138 17.3719 18.2138 17.5056 18.0802L18.0334 17.5523L18.5612 18.0802C18.6949 18.2138 18.9154 18.2138 19.049 18.0802C19.1826 17.9465 19.1826 17.7261 19.049 17.5924Z" fill="white"/>
<path id="Vector_134" d="M15.9354 17.5924L15.4076 17.0646L15.9354 16.5367C16.069 16.4031 16.069 16.1826 15.9354 16.049C15.8018 15.9154 15.5813 15.9154 15.4477 16.049L14.9198 16.5768L14.392 16.049C14.2584 15.9154 14.0379 15.9154 13.9042 16.049C13.7706 16.1826 13.7706 16.4031 13.9042 16.5367L14.4321 17.0646L13.9042 17.5924C13.7706 17.7261 13.7706 17.9465 13.9042 18.0802C14.0379 18.2138 14.2584 18.2138 14.392 18.0802L14.9198 17.5523L15.4477 18.0802C15.5813 18.2138 15.8018 18.2138 15.9354 18.0802C16.069 17.9465 16.069 17.7261 15.9354 17.5924Z" fill="white"/>
<path id="Vector_135" d="M12.9421 17.5924L12.4143 17.0646L12.9421 16.5367C13.0757 16.4031 13.0757 16.1826 12.9421 16.049C12.8085 15.9154 12.588 15.9154 12.4543 16.049L11.9265 16.5768L11.3987 16.049C11.265 15.9154 11.0445 15.9154 10.9109 16.049C10.7773 16.1826 10.7773 16.4031 10.9109 16.5367L11.4388 17.0646L10.9109 17.5924C10.7773 17.7261 10.7773 17.9465 10.9109 18.0802C11.0445 18.2138 11.265 18.2138 11.3987 18.0802L11.9265 17.5523L12.4543 18.0802C12.588 18.2138 12.8085 18.2138 12.9421 18.0802C13.0757 17.9465 13.0757 17.7261 12.9421 17.5924Z" fill="white"/>
<path id="Vector_136" d="M9.92205 17.5924L9.39421 17.0646L9.92205 16.5367C10.0557 16.4031 10.0557 16.1826 9.92205 16.049C9.78842 15.9154 9.56793 15.9154 9.4343 16.049L8.90646 16.5768L8.37862 16.049C8.24499 15.9154 8.0245 15.9154 7.89087 16.049C7.75724 16.1826 7.75724 16.4031 7.89087 16.5367L8.41871 17.0646L7.89087 17.5924C7.75724 17.7261 7.75724 17.9465 7.89087 18.0802C8.0245 18.2138 8.24499 18.2138 8.37862 18.0802L8.90646 17.5523L9.4343 18.0802C9.56793 18.2138 9.78842 18.2138 9.92205 18.0802C10.0557 17.9465 10.0557 17.7261 9.92205 17.5924Z" fill="white"/>
<path id="Vector_137" d="M6.88864 17.5924L6.3608 17.0646L6.88864 16.5367C7.02227 16.4031 7.02227 16.1826 6.88864 16.049C6.75501 15.9154 6.53452 15.9154 6.40089 16.049L5.87305 16.5768L5.34521 16.049C5.21158 15.9154 4.99109 15.9154 4.85746 16.049C4.72383 16.1826 4.72383 16.4031 4.85746 16.5367L5.3853 17.0646L4.85746 17.5924C4.72383 17.7261 4.72383 17.9465 4.85746 18.0802C4.99109 18.2138 5.21158 18.2138 5.34521 18.0802L5.87305 17.5523L6.40089 18.0802C6.53452 18.2138 6.75501 18.2138 6.88864 18.0802C7.02227 17.9465 7.02227 17.7261 6.88864 17.5924Z" fill="white"/>
<path id="Vector_138" d="M22.1359 17.5924L21.608 17.0646L22.1359 16.5367C22.2695 16.4031 22.2695 16.1826 22.1359 16.049C22.0022 15.9154 21.7817 15.9154 21.6481 16.049L21.1203 16.5768L20.5924 16.049C20.4588 15.9154 20.2383 15.9154 20.1047 16.049C19.971 16.1826 19.971 16.4031 20.1047 16.5367L20.6325 17.0646L20.1047 17.5924C19.971 17.7261 19.971 17.9465 20.1047 18.0802C20.2383 18.2138 20.4588 18.2138 20.5924 18.0802L21.1203 17.5523L21.6481 18.0802C21.7817 18.2138 22.0022 18.2138 22.1359 18.0802C22.2695 17.9465 22.2695 17.7261 22.1359 17.5924Z" fill="white"/>
<path id="Vector_139" d="M25.216 17.5924L24.6882 17.0646L25.216 16.5367C25.3497 16.4031 25.3497 16.1826 25.216 16.049C25.0824 15.9154 24.8619 15.9154 24.7283 16.049L24.2004 16.5768L23.6726 16.049C23.539 15.9154 23.3185 15.9154 23.1849 16.049C23.0512 16.1826 23.0512 16.4031 23.1849 16.5367L23.7127 17.0646L23.1849 17.5924C23.0512 17.7261 23.0512 17.9465 23.1849 18.0802C23.3185 18.2138 23.539 18.2138 23.6726 18.0802L24.2004 17.5523L24.7283 18.0802C24.8619 18.2138 25.0824 18.2138 25.216 18.0802C25.3497 17.9465 25.3497 17.7261 25.216 17.5924Z" fill="white"/>
<path id="Vector_140" d="M28.2962 17.5924L27.7684 17.0646L28.2962 16.5367C28.4298 16.4031 28.4298 16.1826 28.2962 16.049C28.1626 15.9154 27.9421 15.9154 27.8085 16.049L27.2806 16.5768L26.7528 16.049C26.6192 15.9154 26.3987 15.9154 26.265 16.049C26.1314 16.1826 26.1314 16.4031 26.265 16.5367L26.7929 17.0646L26.265 17.5924C26.1314 17.7261 26.1314 17.9465 26.265 18.0802C26.3987 18.2138 26.6192 18.2138 26.7528 18.0802L27.2806 17.5523L27.8085 18.0802C27.9421 18.2138 28.1626 18.2138 28.2962 18.0802C28.4298 17.9465 28.4298 17.7261 28.2962 17.5924Z" fill="white"/>
<path id="Vector_141" d="M31.2561 17.5924L30.7283 17.0646L31.2561 16.5367C31.3898 16.4031 31.3898 16.1826 31.2561 16.049C31.1225 15.9154 30.902 15.9154 30.7684 16.049L30.2405 16.5768L29.7127 16.049C29.5791 15.9154 29.3586 15.9154 29.2249 16.049C29.0913 16.1826 29.0913 16.4031 29.2249 16.5367L29.7528 17.0646L29.2249 17.5924C29.0913 17.7261 29.0913 17.9465 29.2249 18.0802C29.3586 18.2138 29.5791 18.2138 29.7127 18.0802L30.2405 17.5523L30.7684 18.0802C30.902 18.2138 31.1225 18.2138 31.2561 18.0802C31.3898 17.9465 31.3898 17.7261 31.2561 17.5924Z" fill="white"/>
<path id="Vector_142" d="M34.2294 17.5924L33.7016 17.0646L34.2294 16.5367C34.363 16.4031 34.363 16.1826 34.2294 16.049C34.0958 15.9154 33.8753 15.9154 33.7416 16.049L33.2138 16.5768L32.686 16.049C32.5523 15.9154 32.3318 15.9154 32.1982 16.049C32.0646 16.1826 32.0646 16.4031 32.1982 16.5367L32.7261 17.0646L32.1982 17.5924C32.0646 17.7261 32.0646 17.9465 32.1982 18.0802C32.3318 18.2138 32.5523 18.2138 32.686 18.0802L33.2138 17.5523L33.7416 18.0802C33.8753 18.2138 34.0958 18.2138 34.2294 18.0802C34.363 17.9465 34.363 17.7261 34.2294 17.5924Z" fill="white"/>
<path id="Vector_143" d="M37.3229 17.5924L36.7951 17.0646L37.3229 16.5367C37.4566 16.4031 37.4566 16.1826 37.3229 16.049C37.1893 15.9154 36.9688 15.9154 36.8352 16.049L36.3073 16.5768L35.7795 16.049C35.6459 15.9154 35.4254 15.9154 35.2918 16.049C35.1581 16.1826 35.1581 16.4031 35.2918 16.5367L35.8196 17.0646L35.2918 17.5924C35.1581 17.7261 35.1581 17.9465 35.2918 18.0802C35.4254 18.2138 35.6459 18.2138 35.7795 18.0802L36.3073 17.5523L36.8352 18.0802C36.9688 18.2138 37.1893 18.2138 37.3229 18.0802C37.4566 17.9465 37.4566 17.7261 37.3229 17.5924Z" fill="white"/>
<path id="Vector_144" d="M40.4633 17.5924L39.9354 17.0646L40.4633 16.5367C40.5969 16.4031 40.5969 16.1826 40.4633 16.049C40.3296 15.9154 40.1091 15.9154 39.9755 16.049L39.4477 16.5768L38.9198 16.049C38.7862 15.9154 38.5657 15.9154 38.4321 16.049C38.2984 16.1826 38.2984 16.4031 38.4321 16.5367L38.9599 17.0646L38.4321 17.5924C38.2984 17.7261 38.2984 17.9465 38.4321 18.0802C38.5657 18.2138 38.7862 18.2138 38.9198 18.0802L39.4477 17.5523L39.9755 18.0802C40.1091 18.2138 40.3296 18.2138 40.4633 18.0802C40.5969 17.9465 40.5969 17.7261 40.4633 17.5924Z" fill="white"/>
<path id="Vector_145" d="M43.4699 17.5924L42.9421 17.0646L43.4699 16.5367C43.6036 16.4031 43.6036 16.1826 43.4699 16.049C43.3363 15.9154 43.1158 15.9154 42.9822 16.049L42.4543 16.5768L41.9265 16.049C41.7929 15.9154 41.5724 15.9154 41.4388 16.049C41.3051 16.1826 41.3051 16.4031 41.4388 16.5367L41.9666 17.0646L41.4388 17.5924C41.3051 17.7261 41.3051 17.9465 41.4388 18.0802C41.5724 18.2138 41.7929 18.2138 41.9265 18.0802L42.4543 17.5523L42.9822 18.0802C43.1158 18.2138 43.3363 18.2138 43.4699 18.0802C43.6036 17.9465 43.6036 17.7261 43.4699 17.5924Z" fill="white"/>
<path id="Vector_146" d="M19.049 20.5924L18.5212 20.0646L19.049 19.5367C19.1826 19.4031 19.1826 19.1826 19.049 19.049C18.9154 18.9154 18.6949 18.9154 18.5612 19.049L18.0334 19.5768L17.5056 19.049C17.3719 18.9154 17.1514 18.9154 17.0178 19.049C16.8842 19.1826 16.8842 19.4031 17.0178 19.5367L17.5457 20.0646L17.0178 20.5924C16.8842 20.7261 16.8842 20.9465 17.0178 21.0802C17.1514 21.2138 17.3719 21.2138 17.5056 21.0802L18.0334 20.5523L18.5612 21.0802C18.6949 21.2138 18.9154 21.2138 19.049 21.0802C19.1826 20.9465 19.1826 20.7261 19.049 20.5924Z" fill="white"/>
<path id="Vector_147" d="M15.9354 20.5924L15.4076 20.0646L15.9354 19.5367C16.069 19.4031 16.069 19.1826 15.9354 19.049C15.8018 18.9154 15.5813 18.9154 15.4477 19.049L14.9198 19.5768L14.392 19.049C14.2584 18.9154 14.0379 18.9154 13.9042 19.049C13.7706 19.1826 13.7706 19.4031 13.9042 19.5367L14.4321 20.0646L13.9042 20.5924C13.7706 20.7261 13.7706 20.9465 13.9042 21.0802C14.0379 21.2138 14.2584 21.2138 14.392 21.0802L14.9198 20.5523L15.4477 21.0802C15.5813 21.2138 15.8018 21.2138 15.9354 21.0802C16.069 20.9465 16.069 20.7261 15.9354 20.5924Z" fill="white"/>
<path id="Vector_148" d="M12.9421 20.5924L12.4143 20.0646L12.9421 19.5367C13.0757 19.4031 13.0757 19.1826 12.9421 19.049C12.8085 18.9154 12.588 18.9154 12.4543 19.049L11.9265 19.5768L11.3987 19.049C11.265 18.9154 11.0445 18.9154 10.9109 19.049C10.7773 19.1826 10.7773 19.4031 10.9109 19.5367L11.4388 20.0646L10.9109 20.5924C10.7773 20.7261 10.7773 20.9465 10.9109 21.0802C11.0445 21.2138 11.265 21.2138 11.3987 21.0802L11.9265 20.5523L12.4543 21.0802C12.588 21.2138 12.8085 21.2138 12.9421 21.0802C13.0757 20.9465 13.0757 20.7261 12.9421 20.5924Z" fill="white"/>
<path id="Vector_149" d="M9.92205 20.5924L9.39421 20.0646L9.92205 19.5367C10.0557 19.4031 10.0557 19.1826 9.92205 19.049C9.78842 18.9154 9.56793 18.9154 9.4343 19.049L8.90646 19.5768L8.37862 19.049C8.24499 18.9154 8.0245 18.9154 7.89087 19.049C7.75724 19.1826 7.75724 19.4031 7.89087 19.5367L8.41871 20.0646L7.89087 20.5924C7.75724 20.7261 7.75724 20.9465 7.89087 21.0802C8.0245 21.2138 8.24499 21.2138 8.37862 21.0802L8.90646 20.5523L9.4343 21.0802C9.56793 21.2138 9.78842 21.2138 9.92205 21.0802C10.0557 20.9465 10.0557 20.7261 9.92205 20.5924Z" fill="white"/>
<path id="Vector_150" d="M6.88864 20.5924L6.3608 20.0646L6.88864 19.5367C7.02227 19.4031 7.02227 19.1826 6.88864 19.049C6.75501 18.9154 6.53452 18.9154 6.40089 19.049L5.87305 19.5768L5.34521 19.049C5.21158 18.9154 4.99109 18.9154 4.85746 19.049C4.72383 19.1826 4.72383 19.4031 4.85746 19.5367L5.3853 20.0646L4.85746 20.5924C4.72383 20.7261 4.72383 20.9465 4.85746 21.0802C4.99109 21.2138 5.21158 21.2138 5.34521 21.0802L5.87305 20.5523L6.40089 21.0802C6.53452 21.2138 6.75501 21.2138 6.88864 21.0802C7.02227 20.9465 7.02227 20.7261 6.88864 20.5924Z" fill="white"/>
<path id="Vector_151" d="M22.1359 20.5924L21.608 20.0646L22.1359 19.5367C22.2695 19.4031 22.2695 19.1826 22.1359 19.049C22.0022 18.9154 21.7817 18.9154 21.6481 19.049L21.1203 19.5768L20.5924 19.049C20.4588 18.9154 20.2383 18.9154 20.1047 19.049C19.971 19.1826 19.971 19.4031 20.1047 19.5367L20.6325 20.0646L20.1047 20.5924C19.971 20.7261 19.971 20.9465 20.1047 21.0802C20.2383 21.2138 20.4588 21.2138 20.5924 21.0802L21.1203 20.5523L21.6481 21.0802C21.7817 21.2138 22.0022 21.2138 22.1359 21.0802C22.2695 20.9465 22.2695 20.7261 22.1359 20.5924Z" fill="white"/>
<path id="Vector_152" d="M25.216 20.5924L24.6882 20.0646L25.216 19.5367C25.3497 19.4031 25.3497 19.1826 25.216 19.049C25.0824 18.9154 24.8619 18.9154 24.7283 19.049L24.2004 19.5768L23.6726 19.049C23.539 18.9154 23.3185 18.9154 23.1849 19.049C23.0512 19.1826 23.0512 19.4031 23.1849 19.5367L23.7127 20.0646L23.1849 20.5924C23.0512 20.7261 23.0512 20.9465 23.1849 21.0802C23.3185 21.2138 23.539 21.2138 23.6726 21.0802L24.2004 20.5523L24.7283 21.0802C24.8619 21.2138 25.0824 21.2138 25.216 21.0802C25.3497 20.9465 25.3497 20.7261 25.216 20.5924Z" fill="white"/>
<path id="Vector_153" d="M28.2962 20.5924L27.7684 20.0646L28.2962 19.5367C28.4298 19.4031 28.4298 19.1826 28.2962 19.049C28.1626 18.9154 27.9421 18.9154 27.8085 19.049L27.2806 19.5768L26.7528 19.049C26.6192 18.9154 26.3987 18.9154 26.265 19.049C26.1314 19.1826 26.1314 19.4031 26.265 19.5367L26.7929 20.0646L26.265 20.5924C26.1314 20.7261 26.1314 20.9465 26.265 21.0802C26.3987 21.2138 26.6192 21.2138 26.7528 21.0802L27.2806 20.5523L27.8085 21.0802C27.9421 21.2138 28.1626 21.2138 28.2962 21.0802C28.4298 20.9465 28.4298 20.7261 28.2962 20.5924Z" fill="white"/>
<path id="Vector_154" d="M31.2561 20.5924L30.7283 20.0646L31.2561 19.5367C31.3898 19.4031 31.3898 19.1826 31.2561 19.049C31.1225 18.9154 30.902 18.9154 30.7684 19.049L30.2405 19.5768L29.7127 19.049C29.5791 18.9154 29.3586 18.9154 29.2249 19.049C29.0913 19.1826 29.0913 19.4031 29.2249 19.5367L29.7528 20.0646L29.2249 20.5924C29.0913 20.7261 29.0913 20.9465 29.2249 21.0802C29.3586 21.2138 29.5791 21.2138 29.7127 21.0802L30.2405 20.5523L30.7684 21.0802C30.902 21.2138 31.1225 21.2138 31.2561 21.0802C31.3898 20.9465 31.3898 20.7261 31.2561 20.5924Z" fill="white"/>
<path id="Vector_155" d="M34.2294 20.5924L33.7016 20.0646L34.2294 19.5367C34.363 19.4031 34.363 19.1826 34.2294 19.049C34.0958 18.9154 33.8753 18.9154 33.7416 19.049L33.2138 19.5768L32.686 19.049C32.5523 18.9154 32.3318 18.9154 32.1982 19.049C32.0646 19.1826 32.0646 19.4031 32.1982 19.5367L32.7261 20.0646L32.1982 20.5924C32.0646 20.7261 32.0646 20.9465 32.1982 21.0802C32.3318 21.2138 32.5523 21.2138 32.686 21.0802L33.2138 20.5523L33.7416 21.0802C33.8753 21.2138 34.0958 21.2138 34.2294 21.0802C34.363 20.9465 34.363 20.7261 34.2294 20.5924Z" fill="white"/>
<path id="Vector_156" d="M37.3229 20.5924L36.7951 20.0646L37.3229 19.5367C37.4566 19.4031 37.4566 19.1826 37.3229 19.049C37.1893 18.9154 36.9688 18.9154 36.8352 19.049L36.3073 19.5768L35.7795 19.049C35.6459 18.9154 35.4254 18.9154 35.2918 19.049C35.1581 19.1826 35.1581 19.4031 35.2918 19.5367L35.8196 20.0646L35.2918 20.5924C35.1581 20.7261 35.1581 20.9465 35.2918 21.0802C35.4254 21.2138 35.6459 21.2138 35.7795 21.0802L36.3073 20.5523L36.8352 21.0802C36.9688 21.2138 37.1893 21.2138 37.3229 21.0802C37.4566 20.9465 37.4566 20.7261 37.3229 20.5924Z" fill="white"/>
<path id="Vector_157" d="M40.4633 20.5924L39.9354 20.0646L40.4633 19.5367C40.5969 19.4031 40.5969 19.1826 40.4633 19.049C40.3296 18.9154 40.1091 18.9154 39.9755 19.049L39.4477 19.5768L38.9198 19.049C38.7862 18.9154 38.5657 18.9154 38.4321 19.049C38.2984 19.1826 38.2984 19.4031 38.4321 19.5367L38.9599 20.0646L38.4321 20.5924C38.2984 20.7261 38.2984 20.9465 38.4321 21.0802C38.5657 21.2138 38.7862 21.2138 38.9198 21.0802L39.4477 20.5523L39.9755 21.0802C40.1091 21.2138 40.3296 21.2138 40.4633 21.0802C40.5969 20.9465 40.5969 20.7261 40.4633 20.5924Z" fill="white"/>
<path id="Vector_158" d="M43.4699 20.5924L42.9421 20.0646L43.4699 19.5367C43.6036 19.4031 43.6036 19.1826 43.4699 19.049C43.3363 18.9154 43.1158 18.9154 42.9822 19.049L42.4543 19.5768L41.9265 19.049C41.7929 18.9154 41.5724 18.9154 41.4388 19.049C41.3051 19.1826 41.3051 19.4031 41.4388 19.5367L41.9666 20.0646L41.4388 20.5924C41.3051 20.7261 41.3051 20.9465 41.4388 21.0802C41.5724 21.2138 41.7929 21.2138 41.9265 21.0802L42.4543 20.5523L42.9822 21.0802C43.1158 21.2138 43.3363 21.2138 43.4699 21.0802C43.6036 20.9465 43.6036 20.7261 43.4699 20.5924Z" fill="white"/>
<path id="Vector_159" d="M19.049 23.5924L18.5212 23.0646L19.049 22.5367C19.1826 22.4031 19.1826 22.1826 19.049 22.049C18.9154 21.9154 18.6949 21.9154 18.5612 22.049L18.0334 22.5768L17.5056 22.049C17.3719 21.9154 17.1514 21.9154 17.0178 22.049C16.8842 22.1826 16.8842 22.4031 17.0178 22.5367L17.5457 23.0646L17.0178 23.5924C16.8842 23.7261 16.8842 23.9465 17.0178 24.0802C17.1514 24.2138 17.3719 24.2138 17.5056 24.0802L18.0334 23.5523L18.5612 24.0802C18.6949 24.2138 18.9154 24.2138 19.049 24.0802C19.1826 23.9465 19.1826 23.7261 19.049 23.5924Z" fill="white"/>
<path id="Vector_160" d="M15.9354 23.5924L15.4076 23.0646L15.9354 22.5367C16.069 22.4031 16.069 22.1826 15.9354 22.049C15.8018 21.9154 15.5813 21.9154 15.4477 22.049L14.9198 22.5768L14.392 22.049C14.2584 21.9154 14.0379 21.9154 13.9042 22.049C13.7706 22.1826 13.7706 22.4031 13.9042 22.5367L14.4321 23.0646L13.9042 23.5924C13.7706 23.7261 13.7706 23.9465 13.9042 24.0802C14.0379 24.2138 14.2584 24.2138 14.392 24.0802L14.9198 23.5523L15.4477 24.0802C15.5813 24.2138 15.8018 24.2138 15.9354 24.0802C16.069 23.9465 16.069 23.7261 15.9354 23.5924Z" fill="white"/>
<path id="Vector_161" d="M12.9421 23.5924L12.4143 23.0646L12.9421 22.5367C13.0757 22.4031 13.0757 22.1826 12.9421 22.049C12.8085 21.9154 12.588 21.9154 12.4543 22.049L11.9265 22.5768L11.3987 22.049C11.265 21.9154 11.0445 21.9154 10.9109 22.049C10.7773 22.1826 10.7773 22.4031 10.9109 22.5367L11.4388 23.0646L10.9109 23.5924C10.7773 23.7261 10.7773 23.9465 10.9109 24.0802C11.0445 24.2138 11.265 24.2138 11.3987 24.0802L11.9265 23.5523L12.4543 24.0802C12.588 24.2138 12.8085 24.2138 12.9421 24.0802C13.0757 23.9465 13.0757 23.7261 12.9421 23.5924Z" fill="white"/>
<path id="Vector_162" d="M9.92205 23.5924L9.39421 23.0646L9.92205 22.5367C10.0557 22.4031 10.0557 22.1826 9.92205 22.049C9.78842 21.9154 9.56793 21.9154 9.4343 22.049L8.90646 22.5768L8.37862 22.049C8.24499 21.9154 8.0245 21.9154 7.89087 22.049C7.75724 22.1826 7.75724 22.4031 7.89087 22.5367L8.41871 23.0646L7.89087 23.5924C7.75724 23.7261 7.75724 23.9465 7.89087 24.0802C8.0245 24.2138 8.24499 24.2138 8.37862 24.0802L8.90646 23.5523L9.4343 24.0802C9.56793 24.2138 9.78842 24.2138 9.92205 24.0802C10.0557 23.9465 10.0557 23.7261 9.92205 23.5924Z" fill="white"/>
<path id="Vector_163" d="M6.88864 23.5924L6.3608 23.0646L6.88864 22.5367C7.02227 22.4031 7.02227 22.1826 6.88864 22.049C6.75501 21.9154 6.53452 21.9154 6.40089 22.049L5.87305 22.5768L5.34521 22.049C5.21158 21.9154 4.99109 21.9154 4.85746 22.049C4.72383 22.1826 4.72383 22.4031 4.85746 22.5367L5.3853 23.0646L4.85746 23.5924C4.72383 23.7261 4.72383 23.9465 4.85746 24.0802C4.99109 24.2138 5.21158 24.2138 5.34521 24.0802L5.87305 23.5523L6.40089 24.0802C6.53452 24.2138 6.75501 24.2138 6.88864 24.0802C7.02227 23.9465 7.02227 23.7261 6.88864 23.5924Z" fill="white"/>
<path id="Vector_164" d="M22.1359 23.5924L21.608 23.0646L22.1359 22.5367C22.2695 22.4031 22.2695 22.1826 22.1359 22.049C22.0022 21.9154 21.7817 21.9154 21.6481 22.049L21.1203 22.5768L20.5924 22.049C20.4588 21.9154 20.2383 21.9154 20.1047 22.049C19.971 22.1826 19.971 22.4031 20.1047 22.5367L20.6325 23.0646L20.1047 23.5924C19.971 23.7261 19.971 23.9465 20.1047 24.0802C20.2383 24.2138 20.4588 24.2138 20.5924 24.0802L21.1203 23.5523L21.6481 24.0802C21.7817 24.2138 22.0022 24.2138 22.1359 24.0802C22.2695 23.9465 22.2695 23.7261 22.1359 23.5924Z" fill="white"/>
<path id="Vector_165" d="M25.216 23.5924L24.6882 23.0646L25.216 22.5367C25.3497 22.4031 25.3497 22.1826 25.216 22.049C25.0824 21.9154 24.8619 21.9154 24.7283 22.049L24.2004 22.5768L23.6726 22.049C23.539 21.9154 23.3185 21.9154 23.1849 22.049C23.0512 22.1826 23.0512 22.4031 23.1849 22.5367L23.7127 23.0646L23.1849 23.5924C23.0512 23.7261 23.0512 23.9465 23.1849 24.0802C23.3185 24.2138 23.539 24.2138 23.6726 24.0802L24.2004 23.5523L24.7283 24.0802C24.8619 24.2138 25.0824 24.2138 25.216 24.0802C25.3497 23.9465 25.3497 23.7261 25.216 23.5924Z" fill="white"/>
<path id="Vector_166" d="M28.2962 23.5924L27.7684 23.0646L28.2962 22.5367C28.4298 22.4031 28.4298 22.1826 28.2962 22.049C28.1626 21.9154 27.9421 21.9154 27.8085 22.049L27.2806 22.5768L26.7528 22.049C26.6192 21.9154 26.3987 21.9154 26.265 22.049C26.1314 22.1826 26.1314 22.4031 26.265 22.5367L26.7929 23.0646L26.265 23.5924C26.1314 23.7261 26.1314 23.9465 26.265 24.0802C26.3987 24.2138 26.6192 24.2138 26.7528 24.0802L27.2806 23.5523L27.8085 24.0802C27.9421 24.2138 28.1626 24.2138 28.2962 24.0802C28.4298 23.9465 28.4298 23.7261 28.2962 23.5924Z" fill="white"/>
<path id="Vector_167" d="M31.2561 23.5924L30.7283 23.0646L31.2561 22.5367C31.3898 22.4031 31.3898 22.1826 31.2561 22.049C31.1225 21.9154 30.902 21.9154 30.7684 22.049L30.2405 22.5768L29.7127 22.049C29.5791 21.9154 29.3586 21.9154 29.2249 22.049C29.0913 22.1826 29.0913 22.4031 29.2249 22.5367L29.7528 23.0646L29.2249 23.5924C29.0913 23.7261 29.0913 23.9465 29.2249 24.0802C29.3586 24.2138 29.5791 24.2138 29.7127 24.0802L30.2405 23.5523L30.7684 24.0802C30.902 24.2138 31.1225 24.2138 31.2561 24.0802C31.3898 23.9465 31.3898 23.7261 31.2561 23.5924Z" fill="white"/>
<path id="Vector_168" d="M34.2294 23.5924L33.7016 23.0646L34.2294 22.5367C34.363 22.4031 34.363 22.1826 34.2294 22.049C34.0958 21.9154 33.8753 21.9154 33.7416 22.049L33.2138 22.5768L32.686 22.049C32.5523 21.9154 32.3318 21.9154 32.1982 22.049C32.0646 22.1826 32.0646 22.4031 32.1982 22.5367L32.7261 23.0646L32.1982 23.5924C32.0646 23.7261 32.0646 23.9465 32.1982 24.0802C32.3318 24.2138 32.5523 24.2138 32.686 24.0802L33.2138 23.5523L33.7416 24.0802C33.8753 24.2138 34.0958 24.2138 34.2294 24.0802C34.363 23.9465 34.363 23.7261 34.2294 23.5924Z" fill="white"/>
<path id="Vector_169" d="M37.3229 23.5924L36.7951 23.0646L37.3229 22.5367C37.4566 22.4031 37.4566 22.1826 37.3229 22.049C37.1893 21.9154 36.9688 21.9154 36.8352 22.049L36.3073 22.5768L35.7795 22.049C35.6459 21.9154 35.4254 21.9154 35.2918 22.049C35.1581 22.1826 35.1581 22.4031 35.2918 22.5367L35.8196 23.0646L35.2918 23.5924C35.1581 23.7261 35.1581 23.9465 35.2918 24.0802C35.4254 24.2138 35.6459 24.2138 35.7795 24.0802L36.3073 23.5523L36.8352 24.0802C36.9688 24.2138 37.1893 24.2138 37.3229 24.0802C37.4566 23.9465 37.4566 23.7261 37.3229 23.5924Z" fill="white"/>
<path id="Vector_170" d="M40.4633 23.5924L39.9354 23.0646L40.4633 22.5367C40.5969 22.4031 40.5969 22.1826 40.4633 22.049C40.3296 21.9154 40.1091 21.9154 39.9755 22.049L39.4477 22.5768L38.9198 22.049C38.7862 21.9154 38.5657 21.9154 38.4321 22.049C38.2984 22.1826 38.2984 22.4031 38.4321 22.5367L38.9599 23.0646L38.4321 23.5924C38.2984 23.7261 38.2984 23.9465 38.4321 24.0802C38.5657 24.2138 38.7862 24.2138 38.9198 24.0802L39.4477 23.5523L39.9755 24.0802C40.1091 24.2138 40.3296 24.2138 40.4633 24.0802C40.5969 23.9465 40.5969 23.7261 40.4633 23.5924Z" fill="white"/>
<path id="Vector_171" d="M43.4699 23.5924L42.9421 23.0646L43.4699 22.5367C43.6036 22.4031 43.6036 22.1826 43.4699 22.049C43.3363 21.9154 43.1158 21.9154 42.9822 22.049L42.4543 22.5768L41.9265 22.049C41.7929 21.9154 41.5724 21.9154 41.4388 22.049C41.3051 22.1826 41.3051 22.4031 41.4388 22.5367L41.9666 23.0646L41.4388 23.5924C41.3051 23.7261 41.3051 23.9465 41.4388 24.0802C41.5724 24.2138 41.7929 24.2138 41.9265 24.0802L42.4543 23.5523L42.9822 24.0802C43.1158 24.2138 43.3363 24.2138 43.4699 24.0802C43.6036 23.9465 43.6036 23.7261 43.4699 23.5924Z" fill="white"/>
<path id="Vector_172" d="M19.049 26.5991L18.5212 26.0713L19.049 25.5434C19.1826 25.4098 19.1826 25.1893 19.049 25.0557C18.9154 24.9221 18.6949 24.9221 18.5612 25.0557L18.0334 25.5835L17.5056 25.0557C17.3719 24.9221 17.1514 24.9221 17.0178 25.0557C16.8842 25.1893 16.8842 25.4098 17.0178 25.5434L17.5457 26.0713L17.0178 26.5991C16.8842 26.7327 16.8842 26.9532 17.0178 27.0869C17.1514 27.2205 17.3719 27.2205 17.5056 27.0869L18.0334 26.559L18.5612 27.0869C18.6949 27.2205 18.9154 27.2205 19.049 27.0869C19.1826 26.9532 19.1826 26.7327 19.049 26.5991Z" fill="white"/>
<path id="Vector_173" d="M15.9354 26.5991L15.4076 26.0713L15.9354 25.5434C16.069 25.4098 16.069 25.1893 15.9354 25.0557C15.8018 24.9221 15.5813 24.9221 15.4477 25.0557L14.9198 25.5835L14.392 25.0557C14.2584 24.9221 14.0379 24.9221 13.9042 25.0557C13.7706 25.1893 13.7706 25.4098 13.9042 25.5434L14.4321 26.0713L13.9042 26.5991C13.7706 26.7327 13.7706 26.9532 13.9042 27.0869C14.0379 27.2205 14.2584 27.2205 14.392 27.0869L14.9198 26.559L15.4477 27.0869C15.5813 27.2205 15.8018 27.2205 15.9354 27.0869C16.069 26.9532 16.069 26.7327 15.9354 26.5991Z" fill="white"/>
<path id="Vector_174" d="M12.9421 26.5991L12.4143 26.0713L12.9421 25.5434C13.0757 25.4098 13.0757 25.1893 12.9421 25.0557C12.8085 24.9221 12.588 24.9221 12.4543 25.0557L11.9265 25.5835L11.3987 25.0557C11.265 24.9221 11.0445 24.9221 10.9109 25.0557C10.7773 25.1893 10.7773 25.4098 10.9109 25.5434L11.4388 26.0713L10.9109 26.5991C10.7773 26.7327 10.7773 26.9532 10.9109 27.0869C11.0445 27.2205 11.265 27.2205 11.3987 27.0869L11.9265 26.559L12.4543 27.0869C12.588 27.2205 12.8085 27.2205 12.9421 27.0869C13.0757 26.9532 13.0757 26.7327 12.9421 26.5991Z" fill="white"/>
<path id="Vector_175" d="M9.92205 26.5991L9.39421 26.0713L9.92205 25.5434C10.0557 25.4098 10.0557 25.1893 9.92205 25.0557C9.78842 24.9221 9.56793 24.9221 9.4343 25.0557L8.90646 25.5835L8.37862 25.0557C8.24499 24.9221 8.0245 24.9221 7.89087 25.0557C7.75724 25.1893 7.75724 25.4098 7.89087 25.5434L8.41871 26.0713L7.89087 26.5991C7.75724 26.7327 7.75724 26.9532 7.89087 27.0869C8.0245 27.2205 8.24499 27.2205 8.37862 27.0869L8.90646 26.559L9.4343 27.0869C9.56793 27.2205 9.78842 27.2205 9.92205 27.0869C10.0557 26.9532 10.0557 26.7327 9.92205 26.5991Z" fill="white"/>
<path id="Vector_176" d="M6.88864 26.5991L6.3608 26.0713L6.88864 25.5434C7.02227 25.4098 7.02227 25.1893 6.88864 25.0557C6.75501 24.9221 6.53452 24.9221 6.40089 25.0557L5.87305 25.5835L5.34521 25.0557C5.21158 24.9221 4.99109 24.9221 4.85746 25.0557C4.72383 25.1893 4.72383 25.4098 4.85746 25.5434L5.3853 26.0713L4.85746 26.5991C4.72383 26.7327 4.72383 26.9532 4.85746 27.0869C4.99109 27.2205 5.21158 27.2205 5.34521 27.0869L5.87305 26.559L6.40089 27.0869C6.53452 27.2205 6.75501 27.2205 6.88864 27.0869C7.02227 26.9532 7.02227 26.7327 6.88864 26.5991Z" fill="white"/>
<path id="Vector_177" d="M22.1359 26.5991L21.608 26.0713L22.1359 25.5434C22.2695 25.4098 22.2695 25.1893 22.1359 25.0557C22.0022 24.9221 21.7817 24.9221 21.6481 25.0557L21.1203 25.5835L20.5924 25.0557C20.4588 24.9221 20.2383 24.9221 20.1047 25.0557C19.971 25.1893 19.971 25.4098 20.1047 25.5434L20.6325 26.0713L20.1047 26.5991C19.971 26.7327 19.971 26.9532 20.1047 27.0869C20.2383 27.2205 20.4588 27.2205 20.5924 27.0869L21.1203 26.559L21.6481 27.0869C21.7817 27.2205 22.0022 27.2205 22.1359 27.0869C22.2695 26.9532 22.2695 26.7327 22.1359 26.5991Z" fill="white"/>
<path id="Vector_178" d="M25.216 26.5991L24.6882 26.0713L25.216 25.5434C25.3497 25.4098 25.3497 25.1893 25.216 25.0557C25.0824 24.9221 24.8619 24.9221 24.7283 25.0557L24.2004 25.5835L23.6726 25.0557C23.539 24.9221 23.3185 24.9221 23.1849 25.0557C23.0512 25.1893 23.0512 25.4098 23.1849 25.5434L23.7127 26.0713L23.1849 26.5991C23.0512 26.7327 23.0512 26.9532 23.1849 27.0869C23.3185 27.2205 23.539 27.2205 23.6726 27.0869L24.2004 26.559L24.7283 27.0869C24.8619 27.2205 25.0824 27.2205 25.216 27.0869C25.3497 26.9532 25.3497 26.7327 25.216 26.5991Z" fill="white"/>
<path id="Vector_179" d="M28.2962 26.5991L27.7684 26.0713L28.2962 25.5434C28.4298 25.4098 28.4298 25.1893 28.2962 25.0557C28.1626 24.9221 27.9421 24.9221 27.8085 25.0557L27.2806 25.5835L26.7528 25.0557C26.6192 24.9221 26.3987 24.9221 26.265 25.0557C26.1314 25.1893 26.1314 25.4098 26.265 25.5434L26.7929 26.0713L26.265 26.5991C26.1314 26.7327 26.1314 26.9532 26.265 27.0869C26.3987 27.2205 26.6192 27.2205 26.7528 27.0869L27.2806 26.559L27.8085 27.0869C27.9421 27.2205 28.1626 27.2205 28.2962 27.0869C28.4298 26.9532 28.4298 26.7327 28.2962 26.5991Z" fill="white"/>
<path id="Vector_180" d="M31.2561 26.5991L30.7283 26.0713L31.2561 25.5434C31.3898 25.4098 31.3898 25.1893 31.2561 25.0557C31.1225 24.9221 30.902 24.9221 30.7684 25.0557L30.2405 25.5835L29.7127 25.0557C29.5791 24.9221 29.3586 24.9221 29.2249 25.0557C29.0913 25.1893 29.0913 25.4098 29.2249 25.5434L29.7528 26.0713L29.2249 26.5991C29.0913 26.7327 29.0913 26.9532 29.2249 27.0869C29.3586 27.2205 29.5791 27.2205 29.7127 27.0869L30.2405 26.559L30.7684 27.0869C30.902 27.2205 31.1225 27.2205 31.2561 27.0869C31.3898 26.9532 31.3898 26.7327 31.2561 26.5991Z" fill="white"/>
<path id="Vector_181" d="M34.2294 26.5991L33.7016 26.0713L34.2294 25.5434C34.363 25.4098 34.363 25.1893 34.2294 25.0557C34.0958 24.9221 33.8753 24.9221 33.7416 25.0557L33.2138 25.5835L32.686 25.0557C32.5523 24.9221 32.3318 24.9221 32.1982 25.0557C32.0646 25.1893 32.0646 25.4098 32.1982 25.5434L32.7261 26.0713L32.1982 26.5991C32.0646 26.7327 32.0646 26.9532 32.1982 27.0869C32.3318 27.2205 32.5523 27.2205 32.686 27.0869L33.2138 26.559L33.7416 27.0869C33.8753 27.2205 34.0958 27.2205 34.2294 27.0869C34.363 26.9532 34.363 26.7327 34.2294 26.5991Z" fill="white"/>
<path id="Vector_182" d="M37.3229 26.5991L36.7951 26.0713L37.3229 25.5434C37.4566 25.4098 37.4566 25.1893 37.3229 25.0557C37.1893 24.9221 36.9688 24.9221 36.8352 25.0557L36.3073 25.5835L35.7795 25.0557C35.6459 24.9221 35.4254 24.9221 35.2918 25.0557C35.1581 25.1893 35.1581 25.4098 35.2918 25.5434L35.8196 26.0713L35.2918 26.5991C35.1581 26.7327 35.1581 26.9532 35.2918 27.0869C35.4254 27.2205 35.6459 27.2205 35.7795 27.0869L36.3073 26.559L36.8352 27.0869C36.9688 27.2205 37.1893 27.2205 37.3229 27.0869C37.4566 26.9532 37.4566 26.7327 37.3229 26.5991Z" fill="white"/>
<path id="Vector_183" d="M40.4633 26.5991L39.9354 26.0713L40.4633 25.5434C40.5969 25.4098 40.5969 25.1893 40.4633 25.0557C40.3296 24.9221 40.1091 24.9221 39.9755 25.0557L39.4477 25.5835L38.9198 25.0557C38.7862 24.9221 38.5657 24.9221 38.4321 25.0557C38.2984 25.1893 38.2984 25.4098 38.4321 25.5434L38.9599 26.0713L38.4321 26.5991C38.2984 26.7327 38.2984 26.9532 38.4321 27.0869C38.5657 27.2205 38.7862 27.2205 38.9198 27.0869L39.4477 26.559L39.9755 27.0869C40.1091 27.2205 40.3296 27.2205 40.4633 27.0869C40.5969 26.9532 40.5969 26.7327 40.4633 26.5991Z" fill="white"/>
<path id="Vector_184" d="M43.4699 26.5991L42.9421 26.0713L43.4699 25.5434C43.6036 25.4098 43.6036 25.1893 43.4699 25.0557C43.3363 24.9221 43.1158 24.9221 42.9822 25.0557L42.4543 25.5835L41.9265 25.0557C41.7929 24.9221 41.5724 24.9221 41.4388 25.0557C41.3051 25.1893 41.3051 25.4098 41.4388 25.5434L41.9666 26.0713L41.4388 26.5991C41.3051 26.7327 41.3051 26.9532 41.4388 27.0869C41.5724 27.2205 41.7929 27.2205 41.9265 27.0869L42.4543 26.559L42.9822 27.0869C43.1158 27.2205 43.3363 27.2205 43.4699 27.0869C43.6036 26.9532 43.6036 26.7327 43.4699 26.5991Z" fill="white"/>
<path id="Vector_185" d="M19.049 29.5991L18.5212 29.0713L19.049 28.5434C19.1826 28.4098 19.1826 28.1893 19.049 28.0557C18.9154 27.9221 18.6949 27.9221 18.5612 28.0557L18.0334 28.5835L17.5056 28.0557C17.3719 27.9221 17.1514 27.9221 17.0178 28.0557C16.8842 28.1893 16.8842 28.4098 17.0178 28.5434L17.5457 29.0713L17.0178 29.5991C16.8842 29.7327 16.8842 29.9532 17.0178 30.0869C17.1514 30.2205 17.3719 30.2205 17.5056 30.0869L18.0334 29.559L18.5612 30.0869C18.6949 30.2205 18.9154 30.2205 19.049 30.0869C19.1826 29.9532 19.1826 29.7327 19.049 29.5991Z" fill="white"/>
<path id="Vector_186" d="M15.9354 29.5991L15.4076 29.0713L15.9354 28.5434C16.069 28.4098 16.069 28.1893 15.9354 28.0557C15.8018 27.9221 15.5813 27.9221 15.4477 28.0557L14.9198 28.5835L14.392 28.0557C14.2584 27.9221 14.0379 27.9221 13.9042 28.0557C13.7706 28.1893 13.7706 28.4098 13.9042 28.5434L14.4321 29.0713L13.9042 29.5991C13.7706 29.7327 13.7706 29.9532 13.9042 30.0869C14.0379 30.2205 14.2584 30.2205 14.392 30.0869L14.9198 29.559L15.4477 30.0869C15.5813 30.2205 15.8018 30.2205 15.9354 30.0869C16.069 29.9532 16.069 29.7327 15.9354 29.5991Z" fill="white"/>
<path id="Vector_187" d="M12.9421 29.5991L12.4143 29.0713L12.9421 28.5434C13.0757 28.4098 13.0757 28.1893 12.9421 28.0557C12.8085 27.9221 12.588 27.9221 12.4543 28.0557L11.9265 28.5835L11.3987 28.0557C11.265 27.9221 11.0445 27.9221 10.9109 28.0557C10.7773 28.1893 10.7773 28.4098 10.9109 28.5434L11.4388 29.0713L10.9109 29.5991C10.7773 29.7327 10.7773 29.9532 10.9109 30.0869C11.0445 30.2205 11.265 30.2205 11.3987 30.0869L11.9265 29.559L12.4543 30.0869C12.588 30.2205 12.8085 30.2205 12.9421 30.0869C13.0757 29.9532 13.0757 29.7327 12.9421 29.5991Z" fill="white"/>
<path id="Vector_188" d="M9.92205 29.5991L9.39421 29.0713L9.92205 28.5434C10.0557 28.4098 10.0557 28.1893 9.92205 28.0557C9.78842 27.9221 9.56793 27.9221 9.4343 28.0557L8.90646 28.5835L8.37862 28.0557C8.24499 27.9221 8.0245 27.9221 7.89087 28.0557C7.75724 28.1893 7.75724 28.4098 7.89087 28.5434L8.41871 29.0713L7.89087 29.5991C7.75724 29.7327 7.75724 29.9532 7.89087 30.0869C8.0245 30.2205 8.24499 30.2205 8.37862 30.0869L8.90646 29.559L9.4343 30.0869C9.56793 30.2205 9.78842 30.2205 9.92205 30.0869C10.0557 29.9532 10.0557 29.7327 9.92205 29.5991Z" fill="white"/>
<path id="Vector_189" d="M6.88864 29.5991L6.3608 29.0713L6.88864 28.5434C7.02227 28.4098 7.02227 28.1893 6.88864 28.0557C6.75501 27.9221 6.53452 27.9221 6.40089 28.0557L5.87305 28.5835L5.34521 28.0557C5.21158 27.9221 4.99109 27.9221 4.85746 28.0557C4.72383 28.1893 4.72383 28.4098 4.85746 28.5434L5.3853 29.0713L4.85746 29.5991C4.72383 29.7327 4.72383 29.9532 4.85746 30.0869C4.99109 30.2205 5.21158 30.2205 5.34521 30.0869L5.87305 29.559L6.40089 30.0869C6.53452 30.2205 6.75501 30.2205 6.88864 30.0869C7.02227 29.9532 7.02227 29.7327 6.88864 29.5991Z" fill="white"/>
<path id="Vector_190" d="M22.1359 29.5991L21.608 29.0713L22.1359 28.5434C22.2695 28.4098 22.2695 28.1893 22.1359 28.0557C22.0022 27.9221 21.7817 27.9221 21.6481 28.0557L21.1203 28.5835L20.5924 28.0557C20.4588 27.9221 20.2383 27.9221 20.1047 28.0557C19.971 28.1893 19.971 28.4098 20.1047 28.5434L20.6325 29.0713L20.1047 29.5991C19.971 29.7327 19.971 29.9532 20.1047 30.0869C20.2383 30.2205 20.4588 30.2205 20.5924 30.0869L21.1203 29.559L21.6481 30.0869C21.7817 30.2205 22.0022 30.2205 22.1359 30.0869C22.2695 29.9532 22.2695 29.7327 22.1359 29.5991Z" fill="white"/>
<path id="Vector_191" d="M25.216 29.5991L24.6882 29.0713L25.216 28.5434C25.3497 28.4098 25.3497 28.1893 25.216 28.0557C25.0824 27.9221 24.8619 27.9221 24.7283 28.0557L24.2004 28.5835L23.6726 28.0557C23.539 27.9221 23.3185 27.9221 23.1849 28.0557C23.0512 28.1893 23.0512 28.4098 23.1849 28.5434L23.7127 29.0713L23.1849 29.5991C23.0512 29.7327 23.0512 29.9532 23.1849 30.0869C23.3185 30.2205 23.539 30.2205 23.6726 30.0869L24.2004 29.559L24.7283 30.0869C24.8619 30.2205 25.0824 30.2205 25.216 30.0869C25.3497 29.9532 25.3497 29.7327 25.216 29.5991Z" fill="white"/>
<path id="Vector_192" d="M28.2962 29.5991L27.7684 29.0713L28.2962 28.5434C28.4298 28.4098 28.4298 28.1893 28.2962 28.0557C28.1626 27.9221 27.9421 27.9221 27.8085 28.0557L27.2806 28.5835L26.7528 28.0557C26.6192 27.9221 26.3987 27.9221 26.265 28.0557C26.1314 28.1893 26.1314 28.4098 26.265 28.5434L26.7929 29.0713L26.265 29.5991C26.1314 29.7327 26.1314 29.9532 26.265 30.0869C26.3987 30.2205 26.6192 30.2205 26.7528 30.0869L27.2806 29.559L27.8085 30.0869C27.9421 30.2205 28.1626 30.2205 28.2962 30.0869C28.4298 29.9532 28.4298 29.7327 28.2962 29.5991Z" fill="white"/>
<path id="Vector_193" d="M31.2561 29.5991L30.7283 29.0713L31.2561 28.5434C31.3898 28.4098 31.3898 28.1893 31.2561 28.0557C31.1225 27.9221 30.902 27.9221 30.7684 28.0557L30.2405 28.5835L29.7127 28.0557C29.5791 27.9221 29.3586 27.9221 29.2249 28.0557C29.0913 28.1893 29.0913 28.4098 29.2249 28.5434L29.7528 29.0713L29.2249 29.5991C29.0913 29.7327 29.0913 29.9532 29.2249 30.0869C29.3586 30.2205 29.5791 30.2205 29.7127 30.0869L30.2405 29.559L30.7684 30.0869C30.902 30.2205 31.1225 30.2205 31.2561 30.0869C31.3898 29.9532 31.3898 29.7327 31.2561 29.5991Z" fill="white"/>
<path id="Vector_194" d="M34.2294 29.5991L33.7016 29.0713L34.2294 28.5434C34.363 28.4098 34.363 28.1893 34.2294 28.0557C34.0958 27.9221 33.8753 27.9221 33.7416 28.0557L33.2138 28.5835L32.686 28.0557C32.5523 27.9221 32.3318 27.9221 32.1982 28.0557C32.0646 28.1893 32.0646 28.4098 32.1982 28.5434L32.7261 29.0713L32.1982 29.5991C32.0646 29.7327 32.0646 29.9532 32.1982 30.0869C32.3318 30.2205 32.5523 30.2205 32.686 30.0869L33.2138 29.559L33.7416 30.0869C33.8753 30.2205 34.0958 30.2205 34.2294 30.0869C34.363 29.9532 34.363 29.7327 34.2294 29.5991Z" fill="white"/>
<path id="Vector_195" d="M37.3229 29.5991L36.7951 29.0713L37.3229 28.5434C37.4566 28.4098 37.4566 28.1893 37.3229 28.0557C37.1893 27.9221 36.9688 27.9221 36.8352 28.0557L36.3073 28.5835L35.7795 28.0557C35.6459 27.9221 35.4254 27.9221 35.2918 28.0557C35.1581 28.1893 35.1581 28.4098 35.2918 28.5434L35.8196 29.0713L35.2918 29.5991C35.1581 29.7327 35.1581 29.9532 35.2918 30.0869C35.4254 30.2205 35.6459 30.2205 35.7795 30.0869L36.3073 29.559L36.8352 30.0869C36.9688 30.2205 37.1893 30.2205 37.3229 30.0869C37.4566 29.9532 37.4566 29.7327 37.3229 29.5991Z" fill="white"/>
<path id="Vector_196" d="M40.4633 29.5991L39.9354 29.0713L40.4633 28.5434C40.5969 28.4098 40.5969 28.1893 40.4633 28.0557C40.3296 27.9221 40.1091 27.9221 39.9755 28.0557L39.4477 28.5835L38.9198 28.0557C38.7862 27.9221 38.5657 27.9221 38.4321 28.0557C38.2984 28.1893 38.2984 28.4098 38.4321 28.5434L38.9599 29.0713L38.4321 29.5991C38.2984 29.7327 38.2984 29.9532 38.4321 30.0869C38.5657 30.2205 38.7862 30.2205 38.9198 30.0869L39.4477 29.559L39.9755 30.0869C40.1091 30.2205 40.3296 30.2205 40.4633 30.0869C40.5969 29.9532 40.5969 29.7327 40.4633 29.5991Z" fill="white"/>
<path id="Vector_197" d="M43.4699 29.5991L42.9421 29.0713L43.4699 28.5434C43.6036 28.4098 43.6036 28.1893 43.4699 28.0557C43.3363 27.9221 43.1158 27.9221 42.9822 28.0557L42.4543 28.5835L41.9265 28.0557C41.7929 27.9221 41.5724 27.9221 41.4388 28.0557C41.3051 28.1893 41.3051 28.4098 41.4388 28.5434L41.9666 29.0713L41.4388 29.5991C41.3051 29.7327 41.3051 29.9532 41.4388 30.0869C41.5724 30.2205 41.7929 30.2205 41.9265 30.0869L42.4543 29.559L42.9822 30.0869C43.1158 30.2205 43.3363 30.2205 43.4699 30.0869C43.6036 29.9532 43.6036 29.7327 43.4699 29.5991Z" fill="white"/>
<path id="Vector_198" d="M19.049 32.5991L18.5212 32.0713L19.049 31.5434C19.1826 31.4098 19.1826 31.1893 19.049 31.0557C18.9154 30.9221 18.6949 30.9221 18.5612 31.0557L18.0334 31.5835L17.5056 31.0557C17.3719 30.9221 17.1514 30.9221 17.0178 31.0557C16.8842 31.1893 16.8842 31.4098 17.0178 31.5434L17.5457 32.0713L17.0178 32.5991C16.8842 32.7327 16.8842 32.9532 17.0178 33.0869C17.1514 33.2205 17.3719 33.2205 17.5056 33.0869L18.0334 32.559L18.5612 33.0869C18.6949 33.2205 18.9154 33.2205 19.049 33.0869C19.1826 32.9532 19.1826 32.7327 19.049 32.5991Z" fill="white"/>
<path id="Vector_199" d="M15.9354 32.5991L15.4076 32.0713L15.9354 31.5434C16.069 31.4098 16.069 31.1893 15.9354 31.0557C15.8018 30.9221 15.5813 30.9221 15.4477 31.0557L14.9198 31.5835L14.392 31.0557C14.2584 30.9221 14.0379 30.9221 13.9042 31.0557C13.7706 31.1893 13.7706 31.4098 13.9042 31.5434L14.4321 32.0713L13.9042 32.5991C13.7706 32.7327 13.7706 32.9532 13.9042 33.0869C14.0379 33.2205 14.2584 33.2205 14.392 33.0869L14.9198 32.559L15.4477 33.0869C15.5813 33.2205 15.8018 33.2205 15.9354 33.0869C16.069 32.9532 16.069 32.7327 15.9354 32.5991Z" fill="white"/>
<path id="Vector_200" d="M12.9421 32.5991L12.4143 32.0713L12.9421 31.5434C13.0757 31.4098 13.0757 31.1893 12.9421 31.0557C12.8085 30.9221 12.588 30.9221 12.4543 31.0557L11.9265 31.5835L11.3987 31.0557C11.265 30.9221 11.0445 30.9221 10.9109 31.0557C10.7773 31.1893 10.7773 31.4098 10.9109 31.5434L11.4388 32.0713L10.9109 32.5991C10.7773 32.7327 10.7773 32.9532 10.9109 33.0869C11.0445 33.2205 11.265 33.2205 11.3987 33.0869L11.9265 32.559L12.4543 33.0869C12.588 33.2205 12.8085 33.2205 12.9421 33.0869C13.0757 32.9532 13.0757 32.7327 12.9421 32.5991Z" fill="white"/>
<path id="Vector_201" d="M9.92205 32.5991L9.39421 32.0713L9.92205 31.5434C10.0557 31.4098 10.0557 31.1893 9.92205 31.0557C9.78842 30.9221 9.56793 30.9221 9.4343 31.0557L8.90646 31.5835L8.37862 31.0557C8.24499 30.9221 8.0245 30.9221 7.89087 31.0557C7.75724 31.1893 7.75724 31.4098 7.89087 31.5434L8.41871 32.0713L7.89087 32.5991C7.75724 32.7327 7.75724 32.9532 7.89087 33.0869C8.0245 33.2205 8.24499 33.2205 8.37862 33.0869L8.90646 32.559L9.4343 33.0869C9.56793 33.2205 9.78842 33.2205 9.92205 33.0869C10.0557 32.9532 10.0557 32.7327 9.92205 32.5991Z" fill="white"/>
<path id="Vector_202" d="M6.88864 32.5991L6.3608 32.0713L6.88864 31.5434C7.02227 31.4098 7.02227 31.1893 6.88864 31.0557C6.75501 30.9221 6.53452 30.9221 6.40089 31.0557L5.87305 31.5835L5.34521 31.0557C5.21158 30.9221 4.99109 30.9221 4.85746 31.0557C4.72383 31.1893 4.72383 31.4098 4.85746 31.5434L5.3853 32.0713L4.85746 32.5991C4.72383 32.7327 4.72383 32.9532 4.85746 33.0869C4.99109 33.2205 5.21158 33.2205 5.34521 33.0869L5.87305 32.559L6.40089 33.0869C6.53452 33.2205 6.75501 33.2205 6.88864 33.0869C7.02227 32.9532 7.02227 32.7327 6.88864 32.5991Z" fill="white"/>
<path id="Vector_203" d="M22.1359 32.5991L21.608 32.0713L22.1359 31.5434C22.2695 31.4098 22.2695 31.1893 22.1359 31.0557C22.0022 30.9221 21.7817 30.9221 21.6481 31.0557L21.1203 31.5835L20.5924 31.0557C20.4588 30.9221 20.2383 30.9221 20.1047 31.0557C19.971 31.1893 19.971 31.4098 20.1047 31.5434L20.6325 32.0713L20.1047 32.5991C19.971 32.7327 19.971 32.9532 20.1047 33.0869C20.2383 33.2205 20.4588 33.2205 20.5924 33.0869L21.1203 32.559L21.6481 33.0869C21.7817 33.2205 22.0022 33.2205 22.1359 33.0869C22.2695 32.9532 22.2695 32.7327 22.1359 32.5991Z" fill="white"/>
<path id="Vector_204" d="M25.216 32.5991L24.6882 32.0713L25.216 31.5434C25.3497 31.4098 25.3497 31.1893 25.216 31.0557C25.0824 30.9221 24.8619 30.9221 24.7283 31.0557L24.2004 31.5835L23.6726 31.0557C23.539 30.9221 23.3185 30.9221 23.1849 31.0557C23.0512 31.1893 23.0512 31.4098 23.1849 31.5434L23.7127 32.0713L23.1849 32.5991C23.0512 32.7327 23.0512 32.9532 23.1849 33.0869C23.3185 33.2205 23.539 33.2205 23.6726 33.0869L24.2004 32.559L24.7283 33.0869C24.8619 33.2205 25.0824 33.2205 25.216 33.0869C25.3497 32.9532 25.3497 32.7327 25.216 32.5991Z" fill="white"/>
<path id="Vector_205" d="M28.2962 32.5991L27.7684 32.0713L28.2962 31.5434C28.4298 31.4098 28.4298 31.1893 28.2962 31.0557C28.1626 30.9221 27.9421 30.9221 27.8085 31.0557L27.2806 31.5835L26.7528 31.0557C26.6192 30.9221 26.3987 30.9221 26.265 31.0557C26.1314 31.1893 26.1314 31.4098 26.265 31.5434L26.7929 32.0713L26.265 32.5991C26.1314 32.7327 26.1314 32.9532 26.265 33.0869C26.3987 33.2205 26.6192 33.2205 26.7528 33.0869L27.2806 32.559L27.8085 33.0869C27.9421 33.2205 28.1626 33.2205 28.2962 33.0869C28.4298 32.9532 28.4298 32.7327 28.2962 32.5991Z" fill="white"/>
<path id="Vector_206" d="M31.2561 32.5991L30.7283 32.0713L31.2561 31.5434C31.3898 31.4098 31.3898 31.1893 31.2561 31.0557C31.1225 30.9221 30.902 30.9221 30.7684 31.0557L30.2405 31.5835L29.7127 31.0557C29.5791 30.9221 29.3586 30.9221 29.2249 31.0557C29.0913 31.1893 29.0913 31.4098 29.2249 31.5434L29.7528 32.0713L29.2249 32.5991C29.0913 32.7327 29.0913 32.9532 29.2249 33.0869C29.3586 33.2205 29.5791 33.2205 29.7127 33.0869L30.2405 32.559L30.7684 33.0869C30.902 33.2205 31.1225 33.2205 31.2561 33.0869C31.3898 32.9532 31.3898 32.7327 31.2561 32.5991Z" fill="white"/>
<path id="Vector_207" d="M34.2294 32.5991L33.7016 32.0713L34.2294 31.5434C34.363 31.4098 34.363 31.1893 34.2294 31.0557C34.0958 30.9221 33.8753 30.9221 33.7416 31.0557L33.2138 31.5835L32.686 31.0557C32.5523 30.9221 32.3318 30.9221 32.1982 31.0557C32.0646 31.1893 32.0646 31.4098 32.1982 31.5434L32.7261 32.0713L32.1982 32.5991C32.0646 32.7327 32.0646 32.9532 32.1982 33.0869C32.3318 33.2205 32.5523 33.2205 32.686 33.0869L33.2138 32.559L33.7416 33.0869C33.8753 33.2205 34.0958 33.2205 34.2294 33.0869C34.363 32.9532 34.363 32.7327 34.2294 32.5991Z" fill="white"/>
<path id="Vector_208" d="M37.3229 32.5991L36.7951 32.0713L37.3229 31.5434C37.4566 31.4098 37.4566 31.1893 37.3229 31.0557C37.1893 30.9221 36.9688 30.9221 36.8352 31.0557L36.3073 31.5835L35.7795 31.0557C35.6459 30.9221 35.4254 30.9221 35.2918 31.0557C35.1581 31.1893 35.1581 31.4098 35.2918 31.5434L35.8196 32.0713L35.2918 32.5991C35.1581 32.7327 35.1581 32.9532 35.2918 33.0869C35.4254 33.2205 35.6459 33.2205 35.7795 33.0869L36.3073 32.559L36.8352 33.0869C36.9688 33.2205 37.1893 33.2205 37.3229 33.0869C37.4566 32.9532 37.4566 32.7327 37.3229 32.5991Z" fill="white"/>
<path id="Vector_209" d="M40.4633 32.5991L39.9354 32.0713L40.4633 31.5434C40.5969 31.4098 40.5969 31.1893 40.4633 31.0557C40.3296 30.9221 40.1091 30.9221 39.9755 31.0557L39.4477 31.5835L38.9198 31.0557C38.7862 30.9221 38.5657 30.9221 38.4321 31.0557C38.2984 31.1893 38.2984 31.4098 38.4321 31.5434L38.9599 32.0713L38.4321 32.5991C38.2984 32.7327 38.2984 32.9532 38.4321 33.0869C38.5657 33.2205 38.7862 33.2205 38.9198 33.0869L39.4477 32.559L39.9755 33.0869C40.1091 33.2205 40.3296 33.2205 40.4633 33.0869C40.5969 32.9532 40.5969 32.7327 40.4633 32.5991Z" fill="white"/>
<path id="Vector_210" d="M43.4699 32.5991L42.9421 32.0713L43.4699 31.5434C43.6036 31.4098 43.6036 31.1893 43.4699 31.0557C43.3363 30.9221 43.1158 30.9221 42.9822 31.0557L42.4543 31.5835L41.9265 31.0557C41.7929 30.9221 41.5724 30.9221 41.4388 31.0557C41.3051 31.1893 41.3051 31.4098 41.4388 31.5434L41.9666 32.0713L41.4388 32.5991C41.3051 32.7327 41.3051 32.9532 41.4388 33.0869C41.5724 33.2205 41.7929 33.2205 41.9265 33.0869L42.4543 32.559L42.9822 33.0869C43.1158 33.2205 43.3363 33.2205 43.4699 33.0869C43.6036 32.9532 43.6036 32.7327 43.4699 32.5991Z" fill="white"/>
<g id="Group_6">
<path id="Vector_211" d="M50.8797 2.21826H56.6927C58.7506 2.21826 60.167 3.42093 60.167 5.09131C60.167 6.26058 59.5791 7.11581 58.5635 7.65033C59.8998 8.25167 60.6682 9.32071 60.6682 10.5902C60.6682 12.4276 59.098 13.6971 56.9065 13.6971H50.8731V2.21826H50.8797ZM56.078 6.84855C57 6.84855 57.6481 6.31403 57.6481 5.57906C57.6481 4.8441 56.9933 4.32294 56.078 4.32294H53.3385V6.84855H56.078ZM56.4655 11.5924C57.4543 11.5924 58.1559 11.0045 58.1559 10.1893C58.1559 9.37416 57.4543 8.78619 56.4655 8.78619H53.3385V11.5924H56.4655Z" fill="white"/>
<path id="Vector_212" d="M70.1426 11.8931H65.0312L64.2962 13.6971H61.5368L66.2138 2.21826H68.9733L73.6503 13.6971H70.8775L70.1426 11.8931ZM69.2873 9.80178L67.5835 5.60579L65.8797 9.80178H69.2873Z" fill="white"/>
<path id="Vector_213" d="M75.1002 2.21826H77.559L83.0913 9.63474V2.21826H85.5635V13.6971H83.0913L77.559 6.28062V13.6971H75.1002V2.21826Z" fill="white"/>
<path id="Vector_214" d="M93.1938 7.24944H98.2717V11.98C97.1158 13.1826 95.3452 13.9042 93.6281 13.9042C90.3007 13.9042 87.4811 11.1782 87.4811 7.95768C87.4811 4.73719 90.3074 2.0245 93.6281 2.0245C95.3519 2.0245 97.1225 2.7461 98.2717 3.94877L96.4811 5.55234C95.7929 4.76392 94.6771 4.26281 93.6214 4.26281C91.6637 4.26281 90.0134 5.96659 90.0134 7.95768C90.0134 9.94877 91.6704 11.6659 93.6214 11.6659C94.4098 11.6659 95.2116 11.3987 95.8597 10.931V9.17372H93.1871V7.24944H93.1938Z" fill="white"/>
<path id="Vector_215" d="M108.448 11.4788V13.7038H100.263V2.21826H102.735V11.4722H108.448V11.4788Z" fill="white"/>
<path id="Vector_216" d="M117.715 11.8931H112.604L111.869 13.6971H109.109L113.786 2.21826H116.546L121.223 13.6971H118.45L117.715 11.8931ZM116.86 9.80178L115.156 5.60579L113.452 9.80178H116.86Z" fill="white"/>
<path id="Vector_217" d="M122.679 2.21826H126.788C130.65 2.21826 133.39 4.5902 133.39 7.951C133.39 11.3118 130.65 13.6971 126.788 13.6971H122.679V2.21826ZM127.109 11.4588C129.301 11.4588 130.851 10.0022 130.851 7.951C130.851 5.89978 129.294 4.45657 127.109 4.45657H125.138V11.4588H127.109Z" fill="white"/>
<path id="Vector_218" d="M137.759 4.44321V6.73497H143.526V8.95991H137.759V11.4855H144.127V13.7105H135.287V2.21826H144.127V4.44321H137.759Z" fill="white"/>
<path id="Vector_219" d="M145.243 11.9933L146.666 10.3029C147.748 11.2383 148.991 11.8062 150.441 11.8062C151.677 11.8062 152.312 11.2383 152.312 10.5167C152.312 9.69488 151.644 9.44766 149.886 9.04677C147.461 8.4922 145.744 7.81069 145.744 5.58575C145.744 3.3608 147.481 2.01114 149.987 2.01114C151.857 2.01114 153.314 2.59911 154.483 3.60134L153.194 5.37194C152.171 4.55011 151.022 4.10245 149.92 4.10245C148.817 4.10245 148.229 4.65701 148.229 5.33853C148.229 6.17372 148.918 6.44098 150.688 6.84187C153.16 7.39644 154.797 8.1314 154.797 10.2494C154.797 12.3675 153.14 13.8909 150.334 13.8909C148.343 13.8909 146.572 13.2227 145.236 11.9866L145.243 11.9933Z" fill="white"/>
<path id="Vector_220" d="M166.71 2.21826V13.6971H164.252V8.95323H159.02V13.6971H156.561V2.21826H159.02V6.72828H164.252V2.21826H166.71Z" fill="white"/>
<path id="Vector_221" d="M58.4633 27.9287H53.3519L52.6169 29.7327H49.8575L54.5345 18.2539H57.294L61.9711 29.7327H59.1982L58.4633 27.9287ZM57.608 25.8374L55.9042 21.6414L54.2005 25.8374H57.608Z" fill="white"/>
<path id="Vector_222" d="M63.3207 18.2539H68.4855C70.9777 18.2539 72.8152 19.8575 72.8152 22.1292C72.8152 24.4009 70.9777 26.0045 68.4855 26.0045H65.7795V29.7327H63.3207V18.2539ZM68.2183 23.7528C69.441 23.7528 70.2762 23.118 70.2762 22.1292C70.2762 21.1403 69.441 20.5056 68.2183 20.5056H65.7795V23.7461H68.2183V23.7528Z" fill="white"/>
<path id="Vector_223" d="M74.3452 18.2539H79.51C82.0022 18.2539 83.8397 19.8575 83.8397 22.1292C83.8397 24.4009 82.0022 26.0045 79.51 26.0045H76.804V29.7327H74.3452V18.2539ZM79.2428 23.7528C80.4655 23.7528 81.3007 23.118 81.3007 22.1292C81.3007 21.1403 80.4655 20.5056 79.2428 20.5056H76.804V23.7461H79.2428V23.7528Z" fill="white"/>
<path id="Vector_224" d="M93.0601 27.9287H87.9488L87.2138 29.7327H84.4543L89.1314 18.2539H91.8909L96.5679 29.7327H93.7951L93.0601 27.9287ZM92.2049 25.8374L90.5011 21.6414L88.7973 25.8374H92.2049Z" fill="white"/>
<path id="Vector_225" d="M104.82 29.7327L102.194 26.0045H100.37V29.7327H97.9109V18.2539H103.076C105.568 18.2539 107.405 19.8575 107.405 22.1292C107.405 23.833 106.37 25.1693 104.8 25.7238L107.626 29.7327H104.82ZM100.376 23.7528H102.815C104.038 23.7528 104.873 23.118 104.873 22.1292C104.873 21.1403 104.038 20.5056 102.815 20.5056H100.376V23.7461V23.7528Z" fill="white"/>
<path id="Vector_226" d="M111.715 20.4788V22.7706H117.481V24.9955H111.715V27.5212H118.082V29.7461H109.243V18.2673H118.082V20.4922H111.715V20.4788Z" fill="white"/>
<path id="Vector_227" d="M128.058 27.5145V29.7394H119.873V18.2606H122.345V27.5145H128.058Z" fill="white"/>
<path id="Vector_228" d="M53.2517 36.5145V38.8062H59.0178V41.0312H53.2517V43.5568H59.6192V45.7817H50.7795V34.3029H59.6192V36.5278H53.2517V36.5145Z" fill="white"/>
<path id="Vector_229" d="M67.7372 40.0089L71.9466 45.7751H69.0201L66.2806 42.0134L63.5078 45.7751H60.6481L64.8441 40.0624L60.6481 34.2962H63.5546L66.314 38.0579L69.0735 34.2962H71.9466L67.7372 40.0089Z" fill="white"/>
<path id="Vector_230" d="M73.363 34.2895H78.5278C81.0201 34.2895 82.8575 35.8931 82.8575 38.1648C82.8575 40.4365 81.0201 42.0401 78.5278 42.0401H75.8218V45.7684H73.363V34.2895ZM78.2606 39.7884C79.4833 39.7884 80.3185 39.1537 80.3185 38.1648C80.3185 37.1759 79.4833 36.5412 78.2606 36.5412H75.8218V39.7817H78.2606V39.7884Z" fill="white"/>
<path id="Vector_231" d="M83.9332 40.0223C83.9332 36.7951 86.7394 34.0891 90.0334 34.0891C93.3274 34.0891 96.1336 36.7951 96.1336 40.0223C96.1336 43.2494 93.3608 45.9688 90.0334 45.9688C86.706 45.9688 83.9332 43.2428 83.9332 40.0223ZM93.608 40.0223C93.608 38.0312 91.9711 36.3274 90.0334 36.3274C88.0958 36.3274 86.4722 38.0312 86.4722 40.0223C86.4722 42.0134 88.1091 43.7305 90.0334 43.7305C91.9577 43.7305 93.608 42.0267 93.608 40.0223Z" fill="white"/>
</g>
</g>
</svg>
