<svg width="24" height="24" viewBox="0 0 24 24" fill="none" xmlns="http://www.w3.org/2000/svg">
<g id="lni_lni-forward">
<path id="Vector" d="M21.7875 1.50001C21.7875 1.05001 21.4125 0.637512 20.925 0.637512C20.4375 0.637512 20.0625 1.01251 20.0625 1.50001V10.8375L6.07502 1.68751C5.32502 1.20001 4.35002 1.16251 3.52502 1.57501C2.73752 2.02501 2.21252 2.85001 2.21252 3.75001V20.25C2.21252 21.15 2.70002 21.975 3.52502 22.425C3.90002 22.6125 4.31252 22.725 4.72502 22.725C5.21252 22.725 5.66252 22.575 6.07502 22.3125L20.1 13.1625V22.5C20.1 22.95 20.475 23.3625 20.9625 23.3625C21.45 23.3625 21.825 22.9875 21.825 22.5V1.50001H21.7875ZM5.13752 20.8875C4.87502 21.0375 4.57502 21.075 4.31252 20.925C4.20002 20.85 3.90002 20.6625 3.90002 20.25V3.75001C3.90002 3.33751 4.20002 3.15001 4.31252 3.07501C4.42502 3.00001 4.57502 2.96251 4.68752 2.96251C4.83752 2.96251 4.98752 3.00001 5.13752 3.11251L18.7875 12L5.13752 20.8875Z" fill="white"/>
</g>
</svg>
